<?xml version="1.0" encoding="UTF-8" standalone="no"?>
<!-- Created with Inkscape (http://www.inkscape.org/) -->
<svg id="svg4180" xmlns:rdf="http://www.w3.org/1999/02/22-rdf-syntax-ns#" xmlns="http://www.w3.org/2000/svg" height="350" width="350" version="1.1" xmlns:cc="http://creativecommons.org/ns#" xmlns:dc="http://purl.org/dc/elements/1.1/" viewBox="0 0 350 350">
 <metadata id="metadata4185">
  <rdf:RDF>
   <cc:Work rdf:about="">
    <dc:format>image/svg+xml</dc:format>
    <dc:type rdf:resource="http://purl.org/dc/dcmitype/StillImage"/>
    <dc:title/>
   </cc:Work>
  </rdf:RDF>
 </metadata>
 <g id="layer1" fill-rule="evenodd" transform="translate(0 -702.36)">
  <g id="g4218" transform="matrix(1.4417 0 0 1.4417 -246.86 33.693)" fill="#999">
   <path id="path4220" style="color-rendering:auto;color:#000000;isolation:auto;mix-blend-mode:normal;shape-rendering:auto;solid-color:#000000;image-rendering:auto" d="m217.52 642.02-5.3875 38.61 21.55-0.89791-8.0812-40.406-5.3875-32.325 8.0812-34.121 16.162-25.142-22.448 23.346-8.9791 28.733z"/>
   <g id="g4222" transform="matrix(.35997 0 0 .35997 120.9 221.84)">
    <path id="path4224" style="color-rendering:auto;color:#000000;isolation:auto;mix-blend-mode:normal;shape-rendering:auto;solid-color:#000000;image-rendering:auto" d="m158.59 867c-12.916 0.4967-17.79 28.784-3.0305 52.023 18.324 23.684 29.262 28.556 45.962 32.325 13.729 0.66542 30.465-0.83277 24.749-12.122-29.28-20.715-40.589-31.764-67.68-72.226z"/>
    <path id="path4226" style="color-rendering:auto;color:#000000;isolation:auto;mix-blend-mode:normal;shape-rendering:auto;solid-color:#000000;image-rendering:auto" d="m169.71 864.47c19.572 23.102 33.943 48.516 64.65 66.67 11.448 4.9365 22.392 0.46944 23.739-11.112-1.5477-13.034-1.7579-23.341-7.5761-38.891-4.4188-8.8385-8.2777-24.167-26.264-36.871-10.221-5.7641-17.554-9.5616-36.365-4.5457-12.573 4.2761-19.427 12.908-18.183 24.749z"/>
   </g>
   <g id="g4228" transform="matrix(-.35543 .057002 .057002 .35543 268.92 190.08)">
    <path id="path4230" style="color-rendering:auto;color:#000000;isolation:auto;mix-blend-mode:normal;shape-rendering:auto;solid-color:#000000;image-rendering:auto" d="m158.59 867c-12.916 0.4967-17.79 28.784-3.0305 52.023 18.324 23.684 29.262 28.556 45.962 32.325 13.729 0.66542 30.465-0.83277 24.749-12.122-29.28-20.715-40.589-31.764-67.68-72.226z"/>
    <path id="path4232" style="color-rendering:auto;color:#000000;isolation:auto;mix-blend-mode:normal;shape-rendering:auto;solid-color:#000000;image-rendering:auto" d="m169.71 864.47c19.572 23.102 33.943 48.516 64.65 66.67 11.448 4.9365 22.392 0.46944 23.739-11.112-1.5477-13.034-1.7579-23.341-7.5761-38.891-4.4188-8.8385-8.2777-24.167-26.264-36.871-10.221-5.7641-17.554-9.5616-36.365-4.5457-12.573 4.2761-19.427 12.908-18.183 24.749z"/>
   </g>
   <g id="g4234" transform="matrix(-.084298 -.27032 -.27032 .084298 519.71 571.76)">
    <path id="path4236" style="color-rendering:auto;color:#000000;isolation:auto;mix-blend-mode:normal;shape-rendering:auto;solid-color:#000000;image-rendering:auto" d="m158.59 867c-12.916 0.4967-17.79 28.784-3.0305 52.023 18.324 23.684 29.262 28.556 45.962 32.325 13.729 0.66542 30.465-0.83277 24.749-12.122-29.28-20.715-40.589-31.764-67.68-72.226z"/>
    <path id="path4238" style="color-rendering:auto;color:#000000;isolation:auto;mix-blend-mode:normal;shape-rendering:auto;solid-color:#000000;image-rendering:auto" d="m169.71 864.47c19.572 23.102 33.943 48.516 64.65 66.67 11.448 4.9365 22.392 0.46944 23.739-11.112-1.5477-13.034-1.7579-23.341-7.5761-38.891-4.4188-8.8385-8.2777-24.167-26.264-36.871-10.221-5.7641-17.554-9.5616-36.365-4.5457-12.573 4.2761-19.427 12.908-18.183 24.749z"/>
   </g>
   <g id="g4240" transform="matrix(-.21562 -.091053 -.091053 .21562 398.23 376)">
    <path id="path4242" style="color-rendering:auto;color:#000000;isolation:auto;mix-blend-mode:normal;shape-rendering:auto;solid-color:#000000;image-rendering:auto" d="m158.59 867c-12.916 0.4967-17.79 28.784-3.0305 52.023 18.324 23.684 29.262 28.556 45.962 32.325 13.729 0.66542 30.465-0.83277 24.749-12.122-29.28-20.715-40.589-31.764-67.68-72.226z"/>
    <path id="path4244" style="color-rendering:auto;color:#000000;isolation:auto;mix-blend-mode:normal;shape-rendering:auto;solid-color:#000000;image-rendering:auto" d="m169.71 864.47c19.572 23.102 33.943 48.516 64.65 66.67 11.448 4.9365 22.392 0.46944 23.739-11.112-1.5477-13.034-1.7579-23.341-7.5761-38.891-4.4188-8.8385-8.2777-24.167-26.264-36.871-10.221-5.7641-17.554-9.5616-36.365-4.5457-12.573 4.2761-19.427 12.908-18.183 24.749z"/>
   </g>
   <g id="g4246" transform="matrix(.22224 .073432 .073432 -.22224 79.243 774.91)">
    <path id="path4248" style="color-rendering:auto;color:#000000;isolation:auto;mix-blend-mode:normal;shape-rendering:auto;solid-color:#000000;image-rendering:auto" d="m158.59 867c-12.916 0.4967-17.79 28.784-3.0305 52.023 18.324 23.684 29.262 28.556 45.962 32.325 13.729 0.66542 30.465-0.83277 24.749-12.122-29.28-20.715-40.589-31.764-67.68-72.226z"/>
    <path id="path4250" style="color-rendering:auto;color:#000000;isolation:auto;mix-blend-mode:normal;shape-rendering:auto;solid-color:#000000;image-rendering:auto" d="m169.71 864.47c19.572 23.102 33.943 48.516 64.65 66.67 11.448 4.9365 22.392 0.46944 23.739-11.112-1.5477-13.034-1.7579-23.341-7.5761-38.891-4.4188-8.8385-8.2777-24.167-26.264-36.871-10.221-5.7641-17.554-9.5616-36.365-4.5457-12.573 4.2761-19.427 12.908-18.183 24.749z"/>
   </g>
  </g>
  <g id="g4252" transform="matrix(1.4417 0 0 1.4417 -68.743 147.98)" fill="#b3b3b3">
   <path id="path4254" style="color-rendering:auto;color:#000000;isolation:auto;mix-blend-mode:normal;shape-rendering:auto;solid-color:#000000;image-rendering:auto" d="m217.52 642.02-5.3875 38.61 21.55-0.89791-8.0812-40.406-5.3875-32.325 8.0812-34.121 16.162-25.142-22.448 23.346-8.9791 28.733z"/>
   <g id="g4257" transform="matrix(.35997 0 0 .35997 120.9 221.84)">
    <path id="path4259" style="color-rendering:auto;color:#000000;isolation:auto;mix-blend-mode:normal;shape-rendering:auto;solid-color:#000000;image-rendering:auto" d="m158.59 867c-12.916 0.4967-17.79 28.784-3.0305 52.023 18.324 23.684 29.262 28.556 45.962 32.325 13.729 0.66542 30.465-0.83277 24.749-12.122-29.28-20.715-40.589-31.764-67.68-72.226z"/>
    <path id="path4261" style="color-rendering:auto;color:#000000;isolation:auto;mix-blend-mode:normal;shape-rendering:auto;solid-color:#000000;image-rendering:auto" d="m169.71 864.47c19.572 23.102 33.943 48.516 64.65 66.67 11.448 4.9365 22.392 0.46944 23.739-11.112-1.5477-13.034-1.7579-23.341-7.5761-38.891-4.4188-8.8385-8.2777-24.167-26.264-36.871-10.221-5.7641-17.554-9.5616-36.365-4.5457-12.573 4.2761-19.427 12.908-18.183 24.749z"/>
   </g>
   <g id="g4263" transform="matrix(-.35543 .057002 .057002 .35543 268.92 190.08)">
    <path id="path4265" style="color-rendering:auto;color:#000000;isolation:auto;mix-blend-mode:normal;shape-rendering:auto;solid-color:#000000;image-rendering:auto" d="m158.59 867c-12.916 0.4967-17.79 28.784-3.0305 52.023 18.324 23.684 29.262 28.556 45.962 32.325 13.729 0.66542 30.465-0.83277 24.749-12.122-29.28-20.715-40.589-31.764-67.68-72.226z"/>
    <path id="path4267" style="color-rendering:auto;color:#000000;isolation:auto;mix-blend-mode:normal;shape-rendering:auto;solid-color:#000000;image-rendering:auto" d="m169.71 864.47c19.572 23.102 33.943 48.516 64.65 66.67 11.448 4.9365 22.392 0.46944 23.739-11.112-1.5477-13.034-1.7579-23.341-7.5761-38.891-4.4188-8.8385-8.2777-24.167-26.264-36.871-10.221-5.7641-17.554-9.5616-36.365-4.5457-12.573 4.2761-19.427 12.908-18.183 24.749z"/>
   </g>
   <g id="g4269" transform="matrix(-.084298 -.27032 -.27032 .084298 519.71 571.76)">
    <path id="path4271" style="color-rendering:auto;color:#000000;isolation:auto;mix-blend-mode:normal;shape-rendering:auto;solid-color:#000000;image-rendering:auto" d="m158.59 867c-12.916 0.4967-17.79 28.784-3.0305 52.023 18.324 23.684 29.262 28.556 45.962 32.325 13.729 0.66542 30.465-0.83277 24.749-12.122-29.28-20.715-40.589-31.764-67.68-72.226z"/>
    <path id="path4273" style="color-rendering:auto;color:#000000;isolation:auto;mix-blend-mode:normal;shape-rendering:auto;solid-color:#000000;image-rendering:auto" d="m169.71 864.47c19.572 23.102 33.943 48.516 64.65 66.67 11.448 4.9365 22.392 0.46944 23.739-11.112-1.5477-13.034-1.7579-23.341-7.5761-38.891-4.4188-8.8385-8.2777-24.167-26.264-36.871-10.221-5.7641-17.554-9.5616-36.365-4.5457-12.573 4.2761-19.427 12.908-18.183 24.749z"/>
   </g>
   <g id="g4275" transform="matrix(-.21562 -.091053 -.091053 .21562 398.23 376)">
    <path id="path4277" style="color-rendering:auto;color:#000000;isolation:auto;mix-blend-mode:normal;shape-rendering:auto;solid-color:#000000;image-rendering:auto" d="m158.59 867c-12.916 0.4967-17.79 28.784-3.0305 52.023 18.324 23.684 29.262 28.556 45.962 32.325 13.729 0.66542 30.465-0.83277 24.749-12.122-29.28-20.715-40.589-31.764-67.68-72.226z"/>
    <path id="path4279" style="color-rendering:auto;color:#000000;isolation:auto;mix-blend-mode:normal;shape-rendering:auto;solid-color:#000000;image-rendering:auto" d="m169.71 864.47c19.572 23.102 33.943 48.516 64.65 66.67 11.448 4.9365 22.392 0.46944 23.739-11.112-1.5477-13.034-1.7579-23.341-7.5761-38.891-4.4188-8.8385-8.2777-24.167-26.264-36.871-10.221-5.7641-17.554-9.5616-36.365-4.5457-12.573 4.2761-19.427 12.908-18.183 24.749z"/>
   </g>
   <g id="g4281" transform="matrix(.22224 .073432 .073432 -.22224 79.243 774.91)">
    <path id="path4283" style="color-rendering:auto;color:#000000;isolation:auto;mix-blend-mode:normal;shape-rendering:auto;solid-color:#000000;image-rendering:auto" d="m158.59 867c-12.916 0.4967-17.79 28.784-3.0305 52.023 18.324 23.684 29.262 28.556 45.962 32.325 13.729 0.66542 30.465-0.83277 24.749-12.122-29.28-20.715-40.589-31.764-67.68-72.226z"/>
    <path id="path4285" style="color-rendering:auto;color:#000000;isolation:auto;mix-blend-mode:normal;shape-rendering:auto;solid-color:#000000;image-rendering:auto" d="m169.71 864.47c19.572 23.102 33.943 48.516 64.65 66.67 11.448 4.9365 22.392 0.46944 23.739-11.112-1.5477-13.034-1.7579-23.341-7.5761-38.891-4.4188-8.8385-8.2777-24.167-26.264-36.871-10.221-5.7641-17.554-9.5616-36.365-4.5457-12.573 4.2761-19.427 12.908-18.183 24.749z"/>
   </g>
  </g>
  <g id="g4620" transform="matrix(.12245 -.50430 .50430 .12245 -264.11 836.05)" fill="#b3b3b3">
   <path id="path4622" style="color-rendering:auto;color:#000000;isolation:auto;mix-blend-mode:normal;shape-rendering:auto;solid-color:#000000;image-rendering:auto" d="m158.59 867c-12.916 0.4967-17.79 28.784-3.0305 52.023 18.324 23.684 29.262 28.556 45.962 32.325 13.729 0.66542 30.465-0.83277 24.749-12.122-29.28-20.715-40.589-31.764-67.68-72.226z"/>
   <path id="path4624" style="color-rendering:auto;color:#000000;isolation:auto;mix-blend-mode:normal;shape-rendering:auto;solid-color:#000000;image-rendering:auto" d="m169.71 864.47c19.572 23.102 33.943 48.516 64.65 66.67 11.448 4.9365 22.392 0.46944 23.739-11.112-1.5477-13.034-1.7579-23.341-7.5761-38.891-4.4188-8.8385-8.2777-24.167-26.264-36.871-10.221-5.7641-17.554-9.5616-36.365-4.5457-12.573 4.2761-19.427 12.908-18.183 24.749z"/>
  </g>
  <g id="g4626" transform="matrix(.097780 .36546 -.36546 .097780 543.8 590.84)" fill="#ccc">
   <path id="path4628" style="color-rendering:auto;color:#000000;isolation:auto;mix-blend-mode:normal;shape-rendering:auto;solid-color:#000000;image-rendering:auto" d="m158.59 867c-12.916 0.4967-17.79 28.784-3.0305 52.023 18.324 23.684 29.262 28.556 45.962 32.325 13.729 0.66542 30.465-0.83277 24.749-12.122-29.28-20.715-40.589-31.764-67.68-72.226z"/>
   <path id="path4630" style="color-rendering:auto;color:#000000;isolation:auto;mix-blend-mode:normal;shape-rendering:auto;solid-color:#000000;image-rendering:auto" d="m169.71 864.47c19.572 23.102 33.943 48.516 64.65 66.67 11.448 4.9365 22.392 0.46944 23.739-11.112-1.5477-13.034-1.7579-23.341-7.5761-38.891-4.4188-8.8385-8.2777-24.167-26.264-36.871-10.221-5.7641-17.554-9.5616-36.365-4.5457-12.573 4.2761-19.427 12.908-18.183 24.749z"/>
  </g>
  <g id="g4632" transform="matrix(.075050 -.29679 -.29679 -.075050 546.5 894.48)" fill="#ccc">
   <path id="path4634" style="color-rendering:auto;color:#000000;isolation:auto;mix-blend-mode:normal;shape-rendering:auto;solid-color:#000000;image-rendering:auto" d="m158.59 867c-12.916 0.4967-17.79 28.784-3.0305 52.023 18.324 23.684 29.262 28.556 45.962 32.325 13.729 0.66542 30.465-0.83277 24.749-12.122-29.28-20.715-40.589-31.764-67.68-72.226z"/>
   <path id="path4636" style="color-rendering:auto;color:#000000;isolation:auto;mix-blend-mode:normal;shape-rendering:auto;solid-color:#000000;image-rendering:auto" d="m169.71 864.47c19.572 23.102 33.943 48.516 64.65 66.67 11.448 4.9365 22.392 0.46944 23.739-11.112-1.5477-13.034-1.7579-23.341-7.5761-38.891-4.4188-8.8385-8.2777-24.167-26.264-36.871-10.221-5.7641-17.554-9.5616-36.365-4.5457-12.573 4.2761-19.427 12.908-18.183 24.749z"/>
  </g>
  <g id="g4638" transform="matrix(-.20091 .27111 .27111 .20091 56.209 565.68)" fill="#b3b3b3">
   <path id="path4640" style="color-rendering:auto;color:#000000;isolation:auto;mix-blend-mode:normal;shape-rendering:auto;solid-color:#000000;image-rendering:auto" d="m158.59 867c-12.916 0.4967-17.79 28.784-3.0305 52.023 18.324 23.684 29.262 28.556 45.962 32.325 13.729 0.66542 30.465-0.83277 24.749-12.122-29.28-20.715-40.589-31.764-67.68-72.226z"/>
   <path id="path4642" style="color-rendering:auto;color:#000000;isolation:auto;mix-blend-mode:normal;shape-rendering:auto;solid-color:#000000;image-rendering:auto" d="m169.71 864.47c19.572 23.102 33.943 48.516 64.65 66.67 11.448 4.9365 22.392 0.46944 23.739-11.112-1.5477-13.034-1.7579-23.341-7.5761-38.891-4.4188-8.8385-8.2777-24.167-26.264-36.871-10.221-5.7641-17.554-9.5616-36.365-4.5457-12.573 4.2761-19.427 12.908-18.183 24.749z"/>
  </g>
  <g id="g4644" transform="matrix(.17848 -.28637 -.28637 -.17848 525.12 1044)" fill="#ccc">
   <path id="path4646" style="color-rendering:auto;color:#000000;isolation:auto;mix-blend-mode:normal;shape-rendering:auto;solid-color:#000000;image-rendering:auto" d="m158.59 867c-12.916 0.4967-17.79 28.784-3.0305 52.023 18.324 23.684 29.262 28.556 45.962 32.325 13.729 0.66542 30.465-0.83277 24.749-12.122-29.28-20.715-40.589-31.764-67.68-72.226z"/>
   <path id="path4648" style="color-rendering:auto;color:#000000;isolation:auto;mix-blend-mode:normal;shape-rendering:auto;solid-color:#000000;image-rendering:auto" d="m169.71 864.47c19.572 23.102 33.943 48.516 64.65 66.67 11.448 4.9365 22.392 0.46944 23.739-11.112-1.5477-13.034-1.7579-23.341-7.5761-38.891-4.4188-8.8385-8.2777-24.167-26.264-36.871-10.221-5.7641-17.554-9.5616-36.365-4.5457-12.573 4.2761-19.427 12.908-18.183 24.749z"/>
  </g>
  <g id="g4666" transform="matrix(-.14475 .19532 .19532 .14475 174.74 554.64)" fill="#ccc">
   <path id="path4668" style="color-rendering:auto;color:#000000;isolation:auto;mix-blend-mode:normal;shape-rendering:auto;solid-color:#000000;image-rendering:auto" d="m158.59 867c-12.916 0.4967-17.79 28.784-3.0305 52.023 18.324 23.684 29.262 28.556 45.962 32.325 13.729 0.66542 30.465-0.83277 24.749-12.122-29.28-20.715-40.589-31.764-67.68-72.226z"/>
   <path id="path4670" style="color-rendering:auto;color:#000000;isolation:auto;mix-blend-mode:normal;shape-rendering:auto;solid-color:#000000;image-rendering:auto" d="m169.71 864.47c19.572 23.102 33.943 48.516 64.65 66.67 11.448 4.9365 22.392 0.46944 23.739-11.112-1.5477-13.034-1.7579-23.341-7.5761-38.891-4.4188-8.8385-8.2777-24.167-26.264-36.871-10.221-5.7641-17.554-9.5616-36.365-4.5457-12.573 4.2761-19.427 12.908-18.183 24.749z"/>
  </g>
 </g>
</svg>
