<?xml version="1.0" encoding="UTF-8" standalone="no"?>
<!-- Created with Inkscape (http://www.inkscape.org/) -->
<svg id="svg4180" xmlns:rdf="http://www.w3.org/1999/02/22-rdf-syntax-ns#" xmlns="http://www.w3.org/2000/svg" height="350" width="350" version="1.1" xmlns:cc="http://creativecommons.org/ns#" xmlns:dc="http://purl.org/dc/elements/1.1/" viewBox="0 0 350 350">
 <metadata id="metadata4185">
  <rdf:RDF>
   <cc:Work rdf:about="">
    <dc:format>image/svg+xml</dc:format>
    <dc:type rdf:resource="http://purl.org/dc/dcmitype/StillImage"/>
    <dc:title/>
   </cc:Work>
  </rdf:RDF>
 </metadata>
 <g id="layer1" transform="translate(0 -702.36)">
  <g id="g4256" fill-rule="evenodd" transform="matrix(1.5665 0 0 1.5665 -185.68 -41.277)">
   <path id="path4258" style="color-rendering:auto;color:#000000;isolation:auto;mix-blend-mode:normal;shape-rendering:auto;solid-color:#000000;image-rendering:auto" d="m217.52 642.02-5.3875 38.61 21.55-0.89791-8.0812-40.406-5.3875-32.325 8.0812-34.121 16.162-25.142-22.448 23.346-8.9791 28.733z"/>
   <g id="g4260" transform="matrix(.35997 0 0 .35997 120.9 221.84)">
    <path id="path4262" style="color-rendering:auto;color:#000000;isolation:auto;mix-blend-mode:normal;shape-rendering:auto;solid-color:#000000;image-rendering:auto" d="m158.59 867c-12.916 0.4967-17.79 28.784-3.0305 52.023 18.324 23.684 29.262 28.556 45.962 32.325 13.729 0.66542 30.465-0.83277 24.749-12.122-29.28-20.715-40.589-31.764-67.68-72.226z"/>
    <path id="path4264" style="color-rendering:auto;color:#000000;isolation:auto;mix-blend-mode:normal;shape-rendering:auto;solid-color:#000000;image-rendering:auto" d="m169.71 864.47c19.572 23.102 33.943 48.516 64.65 66.67 11.448 4.9365 22.392 0.46944 23.739-11.112-1.5477-13.034-1.7579-23.341-7.5761-38.891-4.4188-8.8385-8.2777-24.167-26.264-36.871-10.221-5.7641-17.554-9.5616-36.365-4.5457-12.573 4.2761-19.427 12.908-18.183 24.749z"/>
   </g>
   <g id="g4266" transform="matrix(-.35543 .057002 .057002 .35543 268.92 190.08)">
    <path id="path4268" style="color-rendering:auto;color:#000000;isolation:auto;mix-blend-mode:normal;shape-rendering:auto;solid-color:#000000;image-rendering:auto" d="m158.59 867c-12.916 0.4967-17.79 28.784-3.0305 52.023 18.324 23.684 29.262 28.556 45.962 32.325 13.729 0.66542 30.465-0.83277 24.749-12.122-29.28-20.715-40.589-31.764-67.68-72.226z"/>
    <path id="path4270" style="color-rendering:auto;color:#000000;isolation:auto;mix-blend-mode:normal;shape-rendering:auto;solid-color:#000000;image-rendering:auto" d="m169.71 864.47c19.572 23.102 33.943 48.516 64.65 66.67 11.448 4.9365 22.392 0.46944 23.739-11.112-1.5477-13.034-1.7579-23.341-7.5761-38.891-4.4188-8.8385-8.2777-24.167-26.264-36.871-10.221-5.7641-17.554-9.5616-36.365-4.5457-12.573 4.2761-19.427 12.908-18.183 24.749z"/>
   </g>
   <g id="g4272" transform="matrix(-.084298 -.27032 -.27032 .084298 519.71 571.76)">
    <path id="path4274" style="color-rendering:auto;color:#000000;isolation:auto;mix-blend-mode:normal;shape-rendering:auto;solid-color:#000000;image-rendering:auto" d="m158.59 867c-12.916 0.4967-17.79 28.784-3.0305 52.023 18.324 23.684 29.262 28.556 45.962 32.325 13.729 0.66542 30.465-0.83277 24.749-12.122-29.28-20.715-40.589-31.764-67.68-72.226z"/>
    <path id="path4276" style="color-rendering:auto;color:#000000;isolation:auto;mix-blend-mode:normal;shape-rendering:auto;solid-color:#000000;image-rendering:auto" d="m169.71 864.47c19.572 23.102 33.943 48.516 64.65 66.67 11.448 4.9365 22.392 0.46944 23.739-11.112-1.5477-13.034-1.7579-23.341-7.5761-38.891-4.4188-8.8385-8.2777-24.167-26.264-36.871-10.221-5.7641-17.554-9.5616-36.365-4.5457-12.573 4.2761-19.427 12.908-18.183 24.749z"/>
   </g>
   <g id="g4278" transform="matrix(-.21562 -.091053 -.091053 .21562 398.23 376)">
    <path id="path4280" style="color-rendering:auto;color:#000000;isolation:auto;mix-blend-mode:normal;shape-rendering:auto;solid-color:#000000;image-rendering:auto" d="m158.59 867c-12.916 0.4967-17.79 28.784-3.0305 52.023 18.324 23.684 29.262 28.556 45.962 32.325 13.729 0.66542 30.465-0.83277 24.749-12.122-29.28-20.715-40.589-31.764-67.68-72.226z"/>
    <path id="path4282" style="color-rendering:auto;color:#000000;isolation:auto;mix-blend-mode:normal;shape-rendering:auto;solid-color:#000000;image-rendering:auto" d="m169.71 864.47c19.572 23.102 33.943 48.516 64.65 66.67 11.448 4.9365 22.392 0.46944 23.739-11.112-1.5477-13.034-1.7579-23.341-7.5761-38.891-4.4188-8.8385-8.2777-24.167-26.264-36.871-10.221-5.7641-17.554-9.5616-36.365-4.5457-12.573 4.2761-19.427 12.908-18.183 24.749z"/>
   </g>
   <g id="g4284" transform="matrix(.22224 .073432 .073432 -.22224 79.243 774.91)">
    <path id="path4286" style="color-rendering:auto;color:#000000;isolation:auto;mix-blend-mode:normal;shape-rendering:auto;solid-color:#000000;image-rendering:auto" d="m158.59 867c-12.916 0.4967-17.79 28.784-3.0305 52.023 18.324 23.684 29.262 28.556 45.962 32.325 13.729 0.66542 30.465-0.83277 24.749-12.122-29.28-20.715-40.589-31.764-67.68-72.226z"/>
    <path id="path4288" style="color-rendering:auto;color:#000000;isolation:auto;mix-blend-mode:normal;shape-rendering:auto;solid-color:#000000;image-rendering:auto" d="m169.71 864.47c19.572 23.102 33.943 48.516 64.65 66.67 11.448 4.9365 22.392 0.46944 23.739-11.112-1.5477-13.034-1.7579-23.341-7.5761-38.891-4.4188-8.8385-8.2777-24.167-26.264-36.871-10.221-5.7641-17.554-9.5616-36.365-4.5457-12.573 4.2761-19.427 12.908-18.183 24.749z"/>
   </g>
  </g>
 </g>
</svg>
