<?xml version="1.0" encoding="UTF-8" standalone="no"?>
<!-- Created with Inkscape (http://www.inkscape.org/) -->

<svg
   xmlns:dc="http://purl.org/dc/elements/1.1/"
   xmlns:cc="http://creativecommons.org/ns#"
   xmlns:rdf="http://www.w3.org/1999/02/22-rdf-syntax-ns#"
   xmlns:svg="http://www.w3.org/2000/svg"
   xmlns="http://www.w3.org/2000/svg"
   xmlns:sodipodi="http://sodipodi.sourceforge.net/DTD/sodipodi-0.dtd"
   xmlns:inkscape="http://www.inkscape.org/namespaces/inkscape"
   width="350"
   height="350"
   viewBox="0 0 350 350"
   id="svg4180"
   version="1.1"
   inkscape:version="0.91 r"
   sodipodi:docname="logoarbolnegro3.svg">
  <defs
     id="defs4182" />
  <sodipodi:namedview
     id="base"
     pagecolor="#ffffff"
     bordercolor="#666666"
     borderopacity="1.0"
     inkscape:pageopacity="0.0"
     inkscape:pageshadow="2"
     inkscape:zoom="0.35"
     inkscape:cx="292.14285"
     inkscape:cy="388.57143"
     inkscape:document-units="px"
     inkscape:current-layer="layer1"
     showgrid="false"
     units="px"
     inkscape:window-width="1366"
     inkscape:window-height="716"
     inkscape:window-x="0"
     inkscape:window-y="0"
     inkscape:window-maximized="1" />
  <metadata
     id="metadata4185">
    <rdf:RDF>
      <cc:Work
         rdf:about="">
        <dc:format>image/svg+xml</dc:format>
        <dc:type
           rdf:resource="http://purl.org/dc/dcmitype/StillImage" />
        <dc:title></dc:title>
      </cc:Work>
    </rdf:RDF>
  </metadata>
  <g
     inkscape:label="Capa 1"
     inkscape:groupmode="layer"
     id="layer1"
     transform="translate(0,-702.36216)">
    <g
       style="fill:#000000"
       transform="matrix(1.5665076,0,0,1.5665076,-185.68325,-41.27708)"
       id="g4256">
      <path
         style="color:#000000;clip-rule:nonzero;display:inline;overflow:visible;visibility:visible;opacity:1;isolation:auto;mix-blend-mode:normal;color-interpolation:sRGB;color-interpolation-filters:linearRGB;solid-color:#000000;solid-opacity:1;fill:#000000;fill-opacity:1;fill-rule:evenodd;stroke:none;stroke-width:1.00000012px;stroke-linecap:butt;stroke-linejoin:miter;stroke-miterlimit:4;stroke-dasharray:none;stroke-dashoffset:0;stroke-opacity:1;color-rendering:auto;image-rendering:auto;shape-rendering:auto;text-rendering:auto;enable-background:accumulate"
         d="m 217.51952,642.01575 -5.38748,38.61027 21.54992,-0.89791 -8.08122,-40.4061 -5.38748,-32.32488 8.08122,-34.1207 16.16244,-25.14158 -22.44783,23.34574 -8.97914,28.73323 z"
         id="path4258"
         inkscape:connector-curvature="0"
         sodipodi:nodetypes="cccccccccc" />
      <g
         style="fill:#000000"
         id="g4260"
         transform="matrix(0.35996713,0,0,0.35996713,120.90292,221.8357)">
        <path
           sodipodi:nodetypes="ccccc"
           inkscape:connector-curvature="0"
           id="path4262"
           d="m 158.59395,866.99917 c -12.91604,0.4967 -17.79048,28.784 -3.03046,52.02285 18.3239,23.68419 29.26167,28.5555 45.96194,32.32489 13.72892,0.66542 30.46477,-0.83277 24.74874,-12.12184 -29.28008,-20.7153 -40.58939,-31.76373 -67.68022,-72.2259 z"
           style="color:#000000;clip-rule:nonzero;display:inline;overflow:visible;visibility:visible;opacity:1;isolation:auto;mix-blend-mode:normal;color-interpolation:sRGB;color-interpolation-filters:linearRGB;solid-color:#000000;solid-opacity:1;fill:#000000;fill-opacity:1;fill-rule:evenodd;stroke:none;stroke-width:1.00000012px;stroke-linecap:butt;stroke-linejoin:miter;stroke-miterlimit:4;stroke-dasharray:none;stroke-dashoffset:0;stroke-opacity:1;color-rendering:auto;image-rendering:auto;shape-rendering:auto;text-rendering:auto;enable-background:accumulate" />
        <path
           sodipodi:nodetypes="ccccccc"
           inkscape:connector-curvature="0"
           id="path4264"
           d="m 169.70563,864.47379 c 19.57213,23.10237 33.94329,48.51629 64.64976,66.67006 11.4484,4.93651 22.39172,0.46944 23.73859,-11.11167 -1.54768,-13.03417 -1.75788,-23.34136 -7.57614,-38.89088 -4.41876,-8.83847 -8.27774,-24.16717 -26.26398,-36.87056 -10.22118,-5.76408 -17.55428,-9.56159 -36.36549,-4.54569 -12.57335,4.27614 -19.42698,12.9084 -18.18274,24.74874 z"
           style="color:#000000;clip-rule:nonzero;display:inline;overflow:visible;visibility:visible;opacity:1;isolation:auto;mix-blend-mode:normal;color-interpolation:sRGB;color-interpolation-filters:linearRGB;solid-color:#000000;solid-opacity:1;fill:#000000;fill-opacity:1;fill-rule:evenodd;stroke:none;stroke-width:1.00000012px;stroke-linecap:butt;stroke-linejoin:miter;stroke-miterlimit:4;stroke-dasharray:none;stroke-dashoffset:0;stroke-opacity:1;color-rendering:auto;image-rendering:auto;shape-rendering:auto;text-rendering:auto;enable-background:accumulate" />
      </g>
      <g
         style="fill:#000000"
         transform="matrix(-0.35542524,0.05700205,0.05700205,0.35542524,268.923,190.08129)"
         id="g4266">
        <path
           style="color:#000000;clip-rule:nonzero;display:inline;overflow:visible;visibility:visible;opacity:1;isolation:auto;mix-blend-mode:normal;color-interpolation:sRGB;color-interpolation-filters:linearRGB;solid-color:#000000;solid-opacity:1;fill:#000000;fill-opacity:1;fill-rule:evenodd;stroke:none;stroke-width:1.00000012px;stroke-linecap:butt;stroke-linejoin:miter;stroke-miterlimit:4;stroke-dasharray:none;stroke-dashoffset:0;stroke-opacity:1;color-rendering:auto;image-rendering:auto;shape-rendering:auto;text-rendering:auto;enable-background:accumulate"
           d="m 158.59395,866.99917 c -12.91604,0.4967 -17.79048,28.784 -3.03046,52.02285 18.3239,23.68419 29.26167,28.5555 45.96194,32.32489 13.72892,0.66542 30.46477,-0.83277 24.74874,-12.12184 -29.28008,-20.7153 -40.58939,-31.76373 -67.68022,-72.2259 z"
           id="path4268"
           inkscape:connector-curvature="0"
           sodipodi:nodetypes="ccccc" />
        <path
           style="color:#000000;clip-rule:nonzero;display:inline;overflow:visible;visibility:visible;opacity:1;isolation:auto;mix-blend-mode:normal;color-interpolation:sRGB;color-interpolation-filters:linearRGB;solid-color:#000000;solid-opacity:1;fill:#000000;fill-opacity:1;fill-rule:evenodd;stroke:none;stroke-width:1.00000012px;stroke-linecap:butt;stroke-linejoin:miter;stroke-miterlimit:4;stroke-dasharray:none;stroke-dashoffset:0;stroke-opacity:1;color-rendering:auto;image-rendering:auto;shape-rendering:auto;text-rendering:auto;enable-background:accumulate"
           d="m 169.70563,864.47379 c 19.57213,23.10237 33.94329,48.51629 64.64976,66.67006 11.4484,4.93651 22.39172,0.46944 23.73859,-11.11167 -1.54768,-13.03417 -1.75788,-23.34136 -7.57614,-38.89088 -4.41876,-8.83847 -8.27774,-24.16717 -26.26398,-36.87056 -10.22118,-5.76408 -17.55428,-9.56159 -36.36549,-4.54569 -12.57335,4.27614 -19.42698,12.9084 -18.18274,24.74874 z"
           id="path4270"
           inkscape:connector-curvature="0"
           sodipodi:nodetypes="ccccccc" />
      </g>
      <g
         style="fill:#000000"
         id="g4272"
         transform="matrix(-0.08429765,-0.27032443,-0.27032443,0.08429765,519.7055,571.7562)">
        <path
           sodipodi:nodetypes="ccccc"
           inkscape:connector-curvature="0"
           id="path4274"
           d="m 158.59395,866.99917 c -12.91604,0.4967 -17.79048,28.784 -3.03046,52.02285 18.3239,23.68419 29.26167,28.5555 45.96194,32.32489 13.72892,0.66542 30.46477,-0.83277 24.74874,-12.12184 -29.28008,-20.7153 -40.58939,-31.76373 -67.68022,-72.2259 z"
           style="color:#000000;clip-rule:nonzero;display:inline;overflow:visible;visibility:visible;opacity:1;isolation:auto;mix-blend-mode:normal;color-interpolation:sRGB;color-interpolation-filters:linearRGB;solid-color:#000000;solid-opacity:1;fill:#000000;fill-opacity:1;fill-rule:evenodd;stroke:none;stroke-width:1.00000012px;stroke-linecap:butt;stroke-linejoin:miter;stroke-miterlimit:4;stroke-dasharray:none;stroke-dashoffset:0;stroke-opacity:1;color-rendering:auto;image-rendering:auto;shape-rendering:auto;text-rendering:auto;enable-background:accumulate" />
        <path
           sodipodi:nodetypes="ccccccc"
           inkscape:connector-curvature="0"
           id="path4276"
           d="m 169.70563,864.47379 c 19.57213,23.10237 33.94329,48.51629 64.64976,66.67006 11.4484,4.93651 22.39172,0.46944 23.73859,-11.11167 -1.54768,-13.03417 -1.75788,-23.34136 -7.57614,-38.89088 -4.41876,-8.83847 -8.27774,-24.16717 -26.26398,-36.87056 -10.22118,-5.76408 -17.55428,-9.56159 -36.36549,-4.54569 -12.57335,4.27614 -19.42698,12.9084 -18.18274,24.74874 z"
           style="color:#000000;clip-rule:nonzero;display:inline;overflow:visible;visibility:visible;opacity:1;isolation:auto;mix-blend-mode:normal;color-interpolation:sRGB;color-interpolation-filters:linearRGB;solid-color:#000000;solid-opacity:1;fill:#000000;fill-opacity:1;fill-rule:evenodd;stroke:none;stroke-width:1.00000012px;stroke-linecap:butt;stroke-linejoin:miter;stroke-miterlimit:4;stroke-dasharray:none;stroke-dashoffset:0;stroke-opacity:1;color-rendering:auto;image-rendering:auto;shape-rendering:auto;text-rendering:auto;enable-background:accumulate" />
      </g>
      <g
         style="fill:#000000"
         transform="matrix(-0.2156247,-0.09105343,-0.09105343,0.2156247,398.23405,375.99787)"
         id="g4278">
        <path
           style="color:#000000;clip-rule:nonzero;display:inline;overflow:visible;visibility:visible;opacity:1;isolation:auto;mix-blend-mode:normal;color-interpolation:sRGB;color-interpolation-filters:linearRGB;solid-color:#000000;solid-opacity:1;fill:#000000;fill-opacity:1;fill-rule:evenodd;stroke:none;stroke-width:1.00000012px;stroke-linecap:butt;stroke-linejoin:miter;stroke-miterlimit:4;stroke-dasharray:none;stroke-dashoffset:0;stroke-opacity:1;color-rendering:auto;image-rendering:auto;shape-rendering:auto;text-rendering:auto;enable-background:accumulate"
           d="m 158.59395,866.99917 c -12.91604,0.4967 -17.79048,28.784 -3.03046,52.02285 18.3239,23.68419 29.26167,28.5555 45.96194,32.32489 13.72892,0.66542 30.46477,-0.83277 24.74874,-12.12184 -29.28008,-20.7153 -40.58939,-31.76373 -67.68022,-72.2259 z"
           id="path4280"
           inkscape:connector-curvature="0"
           sodipodi:nodetypes="ccccc" />
        <path
           style="color:#000000;clip-rule:nonzero;display:inline;overflow:visible;visibility:visible;opacity:1;isolation:auto;mix-blend-mode:normal;color-interpolation:sRGB;color-interpolation-filters:linearRGB;solid-color:#000000;solid-opacity:1;fill:#000000;fill-opacity:1;fill-rule:evenodd;stroke:none;stroke-width:1.00000012px;stroke-linecap:butt;stroke-linejoin:miter;stroke-miterlimit:4;stroke-dasharray:none;stroke-dashoffset:0;stroke-opacity:1;color-rendering:auto;image-rendering:auto;shape-rendering:auto;text-rendering:auto;enable-background:accumulate"
           d="m 169.70563,864.47379 c 19.57213,23.10237 33.94329,48.51629 64.64976,66.67006 11.4484,4.93651 22.39172,0.46944 23.73859,-11.11167 -1.54768,-13.03417 -1.75788,-23.34136 -7.57614,-38.89088 -4.41876,-8.83847 -8.27774,-24.16717 -26.26398,-36.87056 -10.22118,-5.76408 -17.55428,-9.56159 -36.36549,-4.54569 -12.57335,4.27614 -19.42698,12.9084 -18.18274,24.74874 z"
           id="path4282"
           inkscape:connector-curvature="0"
           sodipodi:nodetypes="ccccccc" />
      </g>
      <g
         style="fill:#000000"
         id="g4284"
         transform="matrix(0.22224404,0.07343245,0.07343245,-0.22224404,79.242618,774.90619)">
        <path
           sodipodi:nodetypes="ccccc"
           inkscape:connector-curvature="0"
           id="path4286"
           d="m 158.59395,866.99917 c -12.91604,0.4967 -17.79048,28.784 -3.03046,52.02285 18.3239,23.68419 29.26167,28.5555 45.96194,32.32489 13.72892,0.66542 30.46477,-0.83277 24.74874,-12.12184 -29.28008,-20.7153 -40.58939,-31.76373 -67.68022,-72.2259 z"
           style="color:#000000;clip-rule:nonzero;display:inline;overflow:visible;visibility:visible;opacity:1;isolation:auto;mix-blend-mode:normal;color-interpolation:sRGB;color-interpolation-filters:linearRGB;solid-color:#000000;solid-opacity:1;fill:#000000;fill-opacity:1;fill-rule:evenodd;stroke:none;stroke-width:1.00000012px;stroke-linecap:butt;stroke-linejoin:miter;stroke-miterlimit:4;stroke-dasharray:none;stroke-dashoffset:0;stroke-opacity:1;color-rendering:auto;image-rendering:auto;shape-rendering:auto;text-rendering:auto;enable-background:accumulate" />
        <path
           sodipodi:nodetypes="ccccccc"
           inkscape:connector-curvature="0"
           id="path4288"
           d="m 169.70563,864.47379 c 19.57213,23.10237 33.94329,48.51629 64.64976,66.67006 11.4484,4.93651 22.39172,0.46944 23.73859,-11.11167 -1.54768,-13.03417 -1.75788,-23.34136 -7.57614,-38.89088 -4.41876,-8.83847 -8.27774,-24.16717 -26.26398,-36.87056 -10.22118,-5.76408 -17.55428,-9.56159 -36.36549,-4.54569 -12.57335,4.27614 -19.42698,12.9084 -18.18274,24.74874 z"
           style="color:#000000;clip-rule:nonzero;display:inline;overflow:visible;visibility:visible;opacity:1;isolation:auto;mix-blend-mode:normal;color-interpolation:sRGB;color-interpolation-filters:linearRGB;solid-color:#000000;solid-opacity:1;fill:#000000;fill-opacity:1;fill-rule:evenodd;stroke:none;stroke-width:1.00000012px;stroke-linecap:butt;stroke-linejoin:miter;stroke-miterlimit:4;stroke-dasharray:none;stroke-dashoffset:0;stroke-opacity:1;color-rendering:auto;image-rendering:auto;shape-rendering:auto;text-rendering:auto;enable-background:accumulate" />
      </g>
    </g>
  </g>
</svg>
