<?xml version="1.0" encoding="UTF-8" standalone="no"?>
<!-- Created with Inkscape (http://www.inkscape.org/) -->

<svg
   xmlns:dc="http://purl.org/dc/elements/1.1/"
   xmlns:cc="http://creativecommons.org/ns#"
   xmlns:rdf="http://www.w3.org/1999/02/22-rdf-syntax-ns#"
   xmlns:svg="http://www.w3.org/2000/svg"
   xmlns="http://www.w3.org/2000/svg"
   xmlns:xlink="http://www.w3.org/1999/xlink"
   xmlns:sodipodi="http://sodipodi.sourceforge.net/DTD/sodipodi-0.dtd"
   xmlns:inkscape="http://www.inkscape.org/namespaces/inkscape"
   width="500"
   height="380"
   viewBox="0 0 500.00001 380"
   id="svg4323"
   version="1.1"
   inkscape:version="0.91 r"
   sodipodi:docname="icon-plan-ahorro.svg">
  <defs
     id="defs4325">
    <inkscape:path-effect
       cusp_linecap_type="round"
       end_linecap_type="zerowidth"
       miter_limit="4"
       linejoin_type="round"
       start_linecap_type="zerowidth"
       interpolator_beta="0.2"
       interpolator_type="Linear"
       sort_points="true"
       offset_points="0.0003152515,0.37600296"
       is_visible="true"
       id="path-effect5398"
       effect="powerstroke" />
    <inkscape:path-effect
       effect="powerstroke"
       id="path-effect5250"
       is_visible="true"
       offset_points="0.0003152515,0.4320427"
       sort_points="true"
       interpolator_type="Linear"
       interpolator_beta="0.2"
       start_linecap_type="zerowidth"
       linejoin_type="round"
       miter_limit="4"
       end_linecap_type="zerowidth"
       cusp_linecap_type="round" />
    <inkscape:path-effect
       effect="skeletal"
       id="path-effect5230"
       is_visible="true"
       pattern="M 0,5 C 0,2.24 2.24,0 5,0 7.76,0 10,2.24 10,5 10,7.76 7.76,10 5,10 2.24,10 0,7.76 0,5 Z"
       copytype="single_stretched"
       prop_scale="1"
       scale_y_rel="false"
       spacing="0"
       normal_offset="0"
       tang_offset="0"
       prop_units="false"
       vertical_pattern="false"
       fuse_tolerance="0" />
    <inkscape:path-effect
       effect="powerstroke"
       id="path-effect5178"
       is_visible="true"
       offset_points="0,0.57452035"
       sort_points="true"
       interpolator_type="Linear"
       interpolator_beta="0.2"
       start_linecap_type="zerowidth"
       linejoin_type="round"
       miter_limit="4"
       end_linecap_type="zerowidth"
       cusp_linecap_type="round" />
    <inkscape:path-effect
       effect="powerstroke"
       id="path-effect5158"
       is_visible="true"
       offset_points="0,0.5"
       sort_points="true"
       interpolator_type="Linear"
       interpolator_beta="0.2"
       start_linecap_type="zerowidth"
       linejoin_type="round"
       miter_limit="4"
       end_linecap_type="zerowidth"
       cusp_linecap_type="round" />
    <inkscape:path-effect
       effect="powerstroke"
       id="path-effect5154"
       is_visible="true"
       offset_points="0,0.57452035"
       sort_points="true"
       interpolator_type="Linear"
       interpolator_beta="0.2"
       start_linecap_type="zerowidth"
       linejoin_type="round"
       miter_limit="4"
       end_linecap_type="zerowidth"
       cusp_linecap_type="round" />
    <inkscape:path-effect
       effect="powerstroke"
       id="path-effect5134"
       is_visible="true"
       offset_points="0.044204688,-0.50271765"
       sort_points="true"
       interpolator_type="Linear"
       interpolator_beta="0.2"
       start_linecap_type="zerowidth"
       linejoin_type="round"
       miter_limit="4"
       end_linecap_type="zerowidth"
       cusp_linecap_type="round" />
    <inkscape:path-effect
       effect="skeletal"
       id="path-effect5122"
       is_visible="true"
       pattern="M 0,5 C 0,2.24 2.24,0 5,0 7.76,0 10,2.24 10,5 10,7.76 7.76,10 5,10 2.24,10 0,7.76 0,5 Z"
       copytype="single_stretched"
       prop_scale="1"
       scale_y_rel="false"
       spacing="0"
       normal_offset="0"
       tang_offset="0"
       prop_units="false"
       vertical_pattern="false"
       fuse_tolerance="0" />
    <inkscape:path-effect
       effect="skeletal"
       id="path-effect5112"
       is_visible="true"
       pattern="m -238.70451,115.06128 c 0,-2.76 2.24,-5 5,-5 2.76,0 5,2.24 5,5 0,2.76 -2.24,5 -5,5 -2.76,0 -5,-2.24 -5,-5 z"
       copytype="single_stretched"
       prop_scale="1"
       scale_y_rel="false"
       spacing="0"
       normal_offset="0"
       tang_offset="0"
       prop_units="false"
       vertical_pattern="false"
       fuse_tolerance="0" />
    <inkscape:path-effect
       fuse_tolerance="0"
       vertical_pattern="false"
       prop_units="false"
       tang_offset="0"
       normal_offset="0"
       spacing="0"
       scale_y_rel="false"
       prop_scale="1"
       copytype="single_stretched"
       pattern="m -307.63743,115.06128 c 0,-2.76 2.24,-5 5,-5 2.76,0 5,2.24 5,5 0,2.76 -2.24,5 -5,5 -2.76,0 -5,-2.24 -5,-5 z"
       is_visible="true"
       id="path-effect5106"
       effect="skeletal" />
    <inkscape:path-effect
       effect="skeletal"
       id="path-effect5094"
       is_visible="true"
       pattern="m -237.14286,116.42857 c 0,-2.76 2.24,-5 5,-5 2.76,0 5,2.24 5,5 0,2.76 -2.24,5 -5,5 -2.76,0 -5,-2.24 -5,-5 z"
       copytype="single_stretched"
       prop_scale="1"
       scale_y_rel="false"
       spacing="0"
       normal_offset="0"
       tang_offset="0"
       prop_units="false"
       vertical_pattern="false"
       fuse_tolerance="0" />
    <inkscape:path-effect
       effect="skeletal"
       id="path-effect5010"
       is_visible="true"
       pattern="m -261.83467,356.75056 c 0,-2.76 2.24,-5 5,-5 2.76,0 5,2.24 5,5 0,2.76 -2.24,5 -5,5 -2.76,0 -5,-2.24 -5,-5 z"
       copytype="single_stretched"
       prop_scale="1"
       scale_y_rel="false"
       spacing="0"
       normal_offset="0"
       tang_offset="0"
       prop_units="false"
       vertical_pattern="false"
       fuse_tolerance="0" />
    <linearGradient
       inkscape:collect="always"
       id="linearGradient4256">
      <stop
         style="stop-color:#009aae;stop-opacity:1;"
         offset="0"
         id="stop4258" />
      <stop
         style="stop-color:#145288;stop-opacity:1"
         offset="1"
         id="stop4260" />
    </linearGradient>
    <linearGradient
       inkscape:collect="always"
       xlink:href="#linearGradient4256"
       id="linearGradient5013"
       x1="24.312508"
       y1="217.524"
       x2="410.73401"
       y2="217.524"
       gradientUnits="userSpaceOnUse" />
    <linearGradient
       inkscape:collect="always"
       xlink:href="#linearGradient4256"
       id="linearGradient5015"
       gradientUnits="userSpaceOnUse"
       x1="24.312508"
       y1="217.524"
       x2="410.73401"
       y2="217.524" />
    <linearGradient
       inkscape:collect="always"
       xlink:href="#linearGradient4256"
       id="linearGradient5017"
       gradientUnits="userSpaceOnUse"
       x1="24.312508"
       y1="217.524"
       x2="410.73401"
       y2="217.524" />
    <linearGradient
       inkscape:collect="always"
       xlink:href="#linearGradient4256"
       id="linearGradient5019"
       gradientUnits="userSpaceOnUse"
       x1="24.312508"
       y1="217.524"
       x2="410.73401"
       y2="217.524" />
    <linearGradient
       inkscape:collect="always"
       xlink:href="#linearGradient4256"
       id="linearGradient5680"
       x1="0"
       y1="147.91"
       x2="295.82001"
       y2="147.91"
       gradientUnits="userSpaceOnUse" />
    <linearGradient
       inkscape:collect="always"
       xlink:href="#linearGradient4256"
       id="linearGradient5682"
       gradientUnits="userSpaceOnUse"
       x1="0"
       y1="147.91"
       x2="295.82001"
       y2="147.91" />
    <linearGradient
       inkscape:collect="always"
       xlink:href="#linearGradient4256"
       id="linearGradient5684"
       gradientUnits="userSpaceOnUse"
       x1="0"
       y1="147.91"
       x2="295.82001"
       y2="147.91" />
    <linearGradient
       inkscape:collect="always"
       xlink:href="#linearGradient4256"
       id="linearGradient5686"
       gradientUnits="userSpaceOnUse"
       x1="0"
       y1="147.91"
       x2="295.82001"
       y2="147.91" />
  </defs>
  <sodipodi:namedview
     id="base"
     pagecolor="#ffffff"
     bordercolor="#666666"
     borderopacity="1.0"
     inkscape:pageopacity="0.0"
     inkscape:pageshadow="2"
     inkscape:zoom="0.35"
     inkscape:cx="205.7115"
     inkscape:cy="528.54007"
     inkscape:document-units="px"
     inkscape:current-layer="layer1"
     showgrid="false"
     inkscape:window-width="1366"
     inkscape:window-height="716"
     inkscape:window-x="0"
     inkscape:window-y="0"
     inkscape:window-maximized="1"
     units="px" />
  <metadata
     id="metadata4328">
    <rdf:RDF>
      <cc:Work
         rdf:about="">
        <dc:format>image/svg+xml</dc:format>
        <dc:type
           rdf:resource="http://purl.org/dc/dcmitype/StillImage" />
        <dc:title></dc:title>
      </cc:Work>
    </rdf:RDF>
  </metadata>
  <g
     inkscape:label="Capa 1"
     inkscape:groupmode="layer"
     id="layer1"
     transform="translate(0,-672.36218)">
    <g
       transform="matrix(0.9098196,0,0,0.9098196,22.000007,696.36218)"
       id="g5096"
       style="opacity:1;fill:url(#linearGradient5680);fill-opacity:1">
      <g
         id="g5098"
         style="fill:url(#linearGradient5686);fill-opacity:1">
        <path
           style="fill:url(#linearGradient5682);fill-opacity:1"
           inkscape:connector-curvature="0"
           d="M 147.91,0 C 66.124,0 0,66.124 0,147.91 c 0,81.786 66.124,147.91 147.91,147.91 81.786,0 147.91,-66.124 147.91,-147.91 C 295.82,66.124 229.696,0 147.91,0 Z m 0,278.419 c -71.345,0 -130.509,-59.164 -130.509,-130.509 0,-71.345 59.164,-130.509 130.509,-130.509 71.345,0 130.509,59.164 130.509,130.509 0,71.345 -59.164,130.509 -130.509,130.509 z"
           id="path5100" />
        <path
           style="fill:url(#linearGradient5684);fill-opacity:1"
           inkscape:connector-curvature="0"
           d="m 184.453,116.588 c 0,5.22 3.48,8.701 8.701,8.701 5.22,0 8.701,-3.48 8.701,-8.701 0,-20.342 -19.751,-36.351 -45.243,-39.379 l 0,-7.605 c 0,-5.22 -3.48,-8.701 -8.701,-8.701 -5.22,0 -8.701,3.48 -8.701,8.701 l 0,7.605 c -25.493,3.045 -45.243,19.037 -45.243,39.379 0,20.342 19.751,36.351 45.243,39.379 l 0,45.087 c -15.383,-2.558 -27.842,-11.537 -27.842,-21.821 0,-5.22 -3.48,-8.701 -8.701,-8.701 -5.22,0 -8.701,3.48 -8.701,8.701 0,20.342 19.751,36.351 45.243,39.379 l 0,7.604 c 0,5.22 3.48,8.701 8.701,8.701 5.22,0 8.701,-3.48 8.701,-8.701 l 0,-7.605 c 25.493,-3.045 45.243,-19.037 45.243,-39.379 0,-20.342 -19.751,-36.351 -45.243,-39.379 l 0,-45.086 c 15.383,2.558 27.842,11.537 27.842,21.821 z m -73.085,0 c 0,-10.284 12.459,-19.263 27.842,-21.821 l 0,43.642 c -15.383,-2.558 -27.842,-11.537 -27.842,-21.821 z m 73.085,62.644 c 0,10.284 -12.459,19.263 -27.842,21.821 l 0,-43.642 c 15.383,2.558 27.842,11.538 27.842,21.821 z"
           id="path5102" />
      </g>
    </g>
    <g
       transform="matrix(0.72919038,0,0,0.72919038,186.72891,705.4902)"
       id="g4896"
       style="fill:#ffffff;fill-opacity:1;stroke:url(#linearGradient5013);stroke-width:11.28548336;stroke-miterlimit:4;stroke-dasharray:none">
      <g
         id="g4898"
         style="fill:#ffffff;fill-opacity:1;stroke:url(#linearGradient5019);stroke-width:11.28548336;stroke-miterlimit:4;stroke-dasharray:none">
        <path
           style="fill:#ffffff;fill-opacity:1;stroke:url(#linearGradient5015);stroke-width:11.28548336;stroke-miterlimit:4;stroke-dasharray:none"
           inkscape:connector-curvature="0"
           d="m 202.011,205.437 c -6.501,-2.273 -9.219,-3.666 -9.219,-6.391 0,-4.857 5.021,-6.143 7.679,-6.143 5.097,0 6.143,2.068 6.143,5.172 l 0,0.242 c 0,2.232 1.81,4.043 4.039,4.043 l 1.041,0 c 2.23,0 4.039,-1.807 4.041,-4.039 l 0.006,-7.01 c 0,-1.133 -0.475,-2.215 -1.308,-2.98 -2.535,-2.326 -5.821,-3.617 -10.003,-3.924 l 0,-4.598 c 0,-2.232 -1.811,-4.041 -4.039,-4.041 l -0.974,0 c -2.229,0 -4.04,1.809 -4.04,4.041 l 0,4.918 c -6.099,1.684 -11.879,7.248 -11.879,14.643 0,8.82 7.777,11.482 14.64,13.83 7.115,2.438 10.091,4.021 10.091,7.508 0,5.041 -5.234,6.386 -8.326,6.386 -3.125,0 -6.991,-0.892 -8.036,-2.361 -0.457,-0.654 -0.765,-1.926 -0.915,-3.785 -0.172,-2.098 -1.923,-3.715 -4.027,-3.715 l -0.821,0 c -1.079,0 -2.11,0.43 -2.871,1.198 -0.758,0.764 -1.18,1.799 -1.17,2.877 l 0.063,7.948 c 0.013,1.802 1.216,3.371 2.95,3.858 0.175,0.05 0.408,0.103 0.644,0.154 l 0.192,0.041 c 3.603,1.006 6.862,1.877 9.467,2.207 l 0,6.691 c 0,2.23 1.811,4.039 4.04,4.039 l 0.974,0 c 2.229,0 4.039,-1.809 4.039,-4.039 l 0,-6.838 c 6.717,-1.412 13.094,-6.979 13.094,-14.824 -0.003,-9.678 -8.604,-12.688 -15.515,-15.108 z"
           id="path4900" />
        <path
           style="fill:#ffffff;fill-opacity:1;stroke:url(#linearGradient5017);stroke-width:11.28548336;stroke-miterlimit:4;stroke-dasharray:none"
           inkscape:connector-curvature="0"
           d="M 410.734,74.918 410.734,0 C 389.536,9.292 349.658,22.585 331.099,23.641 312.539,24.697 225.324,11.002 201.696,16.916 182.68,21.676 78.267,100.25 47.122,121.918 c -49.723,34.593 -5.72,40.138 15.158,32.136 21.008,-8.052 88.712,-45.871 88.712,-45.871 -0.214,7.662 0.944,18.508 7.797,30.219 0,0 7.75,10.864 17.037,21.499 -20.04,9.137 -34.006,29.351 -34.006,52.773 0,19.896 10.078,37.48 25.396,47.926 l -100.204,0 c -5.549,0 -10.048,4.498 -10.048,10.047 l 0,154.35 c 0,5.553 4.499,10.051 10.048,10.051 l 265.562,0 c 5.548,0 10.047,-4.498 10.047,-10.051 l 0,-154.35 c 0,-5.549 -4.499,-10.047 -10.047,-10.047 l -100.203,0 c 15.316,-10.445 25.395,-28.029 25.395,-47.926 0,-14.541 -5.394,-27.838 -14.27,-38.025 -0.106,-0.089 -0.2,-0.186 -0.289,-0.284 14.482,-7.218 29.704,-20.151 66.559,-35.225 62.073,-25.389 83.097,-54.223 100.968,-64.222 z m -171.012,58.778 c -11.633,8.212 -19.572,16.233 -24.203,23.19 -2.611,-0.737 -5.295,-1.295 -8.039,-1.664 -2.399,-7.765 -6.52,-17.979 -12.799,-31.504 0,0 -2.882,-6.779 -1.932,-14.885 2.37,-9.058 10.55,-18.772 33.664,-21.755 38.92,-5.022 44.443,14.654 26.855,35.14 -3.753,3.889 -8.286,7.765 -13.546,11.478 z m 5.478,150.848 c 5.521,0 10.014,4.49 10.014,10.013 0,5.52 -4.491,10.012 -10.014,10.012 l -90.814,0 c -5.521,0 -10.012,-4.492 -10.012,-10.012 0,-5.521 4.491,-10.013 10.012,-10.013 l 90.814,0 z m -45.407,-29.168 c -23.547,0 -42.705,-19.155 -42.705,-42.703 0,-23.547 19.158,-42.703 42.705,-42.703 3.474,0 6.847,0.426 10.081,1.213 -0.005,6.768 5.262,10.629 13.948,9.771 1.334,-0.131 2.628,-0.316 3.893,-0.551 9.042,7.838 14.78,19.393 14.78,32.27 0.001,23.548 -19.155,42.703 -42.702,42.703 z"
           id="path4902" />
      </g>
    </g>
  </g>
</svg>
