<?xml version="1.0" encoding="UTF-8" standalone="no"?>
<!-- Created with Inkscape (http://www.inkscape.org/) -->

<svg
   xmlns:dc="http://purl.org/dc/elements/1.1/"
   xmlns:cc="http://creativecommons.org/ns#"
   xmlns:rdf="http://www.w3.org/1999/02/22-rdf-syntax-ns#"
   xmlns:svg="http://www.w3.org/2000/svg"
   xmlns="http://www.w3.org/2000/svg"
   xmlns:xlink="http://www.w3.org/1999/xlink"
   xmlns:sodipodi="http://sodipodi.sourceforge.net/DTD/sodipodi-0.dtd"
   xmlns:inkscape="http://www.inkscape.org/namespaces/inkscape"
   width="500"
   height="480"
   viewBox="0 0 500 480.00001"
   id="svg2"
   version="1.1"
   inkscape:version="0.91 r"
   sodipodi:docname="icon-place.svg"
   inkscape:export-filename="/home/ara/Documentos/gastro/img/g4550.png"
   inkscape:export-xdpi="90"
   inkscape:export-ydpi="90">
  <defs
     id="defs4">
    <linearGradient
       id="linearGradient4228"
       inkscape:collect="always">
      <stop
         id="stop4230"
         offset="0"
         style="stop-color:#3399ff;stop-opacity:1;" />
      <stop
         id="stop4232"
         offset="1"
         style="stop-color:#9900ff;stop-opacity:0.93623191" />
    </linearGradient>
    <linearGradient
       inkscape:collect="always"
       xlink:href="#linearGradient4228"
       id="linearGradient4222"
       x1="2.5339999"
       y1="25"
       x2="47.466"
       y2="25"
       gradientUnits="userSpaceOnUse" />
    <linearGradient
       inkscape:collect="always"
       xlink:href="#linearGradient4228"
       id="linearGradient4224"
       x1="297.80704"
       y1="928.55615"
       x2="493.73929"
       y2="928.55615"
       gradientUnits="userSpaceOnUse"
       gradientTransform="matrix(0.89132615,0,0,0.89132615,30.799407,81.133899)" />
    <linearGradient
       inkscape:collect="always"
       xlink:href="#linearGradient4228"
       id="linearGradient4226"
       x1="10.974543"
       y1="48.856"
       x2="86.738457"
       y2="48.856"
       gradientUnits="userSpaceOnUse" />
    <linearGradient
       inkscape:collect="always"
       xlink:href="#linearGradient4228"
       id="linearGradient4234"
       gradientUnits="userSpaceOnUse"
       x1="2.5339999"
       y1="25"
       x2="47.466"
       y2="25" />
    <linearGradient
       inkscape:collect="always"
       xlink:href="#linearGradient4228"
       id="linearGradient4236"
       gradientUnits="userSpaceOnUse"
       x1="2.5339999"
       y1="25"
       x2="47.466"
       y2="25" />
    <linearGradient
       inkscape:collect="always"
       xlink:href="#linearGradient4228"
       id="linearGradient4238"
       gradientUnits="userSpaceOnUse"
       x1="2.5339999"
       y1="25"
       x2="47.466"
       y2="25" />
    <linearGradient
       inkscape:collect="always"
       xlink:href="#linearGradient4228"
       id="linearGradient4240"
       gradientUnits="userSpaceOnUse"
       x1="2.5339999"
       y1="25"
       x2="47.466"
       y2="25" />
    <linearGradient
       inkscape:collect="always"
       xlink:href="#linearGradient4228"
       id="linearGradient4242"
       gradientUnits="userSpaceOnUse"
       x1="2.5339999"
       y1="25"
       x2="47.466"
       y2="25" />
    <linearGradient
       inkscape:collect="always"
       xlink:href="#linearGradient4228"
       id="linearGradient4244"
       gradientUnits="userSpaceOnUse"
       x1="2.5339999"
       y1="25"
       x2="47.466"
       y2="25" />
    <linearGradient
       inkscape:collect="always"
       xlink:href="#linearGradient4228"
       id="linearGradient4246"
       gradientUnits="userSpaceOnUse"
       x1="2.5339999"
       y1="25"
       x2="47.466"
       y2="25" />
    <linearGradient
       inkscape:collect="always"
       xlink:href="#linearGradient4228"
       id="linearGradient4248"
       gradientUnits="userSpaceOnUse"
       x1="2.5339999"
       y1="25"
       x2="47.466"
       y2="25" />
    <linearGradient
       inkscape:collect="always"
       xlink:href="#linearGradient4228"
       id="linearGradient4250"
       gradientUnits="userSpaceOnUse"
       x1="2.5339999"
       y1="25"
       x2="47.466"
       y2="25" />
    <linearGradient
       inkscape:collect="always"
       xlink:href="#linearGradient4228"
       id="linearGradient4252"
       gradientUnits="userSpaceOnUse"
       x1="2.5339999"
       y1="25"
       x2="47.466"
       y2="25" />
    <linearGradient
       inkscape:collect="always"
       xlink:href="#linearGradient4228"
       id="linearGradient4254"
       gradientUnits="userSpaceOnUse"
       x1="2.5339999"
       y1="25"
       x2="47.466"
       y2="25" />
    <linearGradient
       inkscape:collect="always"
       xlink:href="#linearGradient4228"
       id="linearGradient4256"
       gradientUnits="userSpaceOnUse"
       x1="2.5339999"
       y1="25"
       x2="47.466"
       y2="25" />
    <linearGradient
       inkscape:collect="always"
       xlink:href="#linearGradient4228"
       id="linearGradient4258"
       gradientUnits="userSpaceOnUse"
       x1="2.5339999"
       y1="25"
       x2="47.466"
       y2="25" />
    <linearGradient
       inkscape:collect="always"
       xlink:href="#linearGradient4228"
       id="linearGradient4260"
       gradientUnits="userSpaceOnUse"
       x1="2.5339999"
       y1="25"
       x2="47.466"
       y2="25" />
    <linearGradient
       inkscape:collect="always"
       xlink:href="#linearGradient4228"
       id="linearGradient4262"
       gradientUnits="userSpaceOnUse"
       x1="2.5339999"
       y1="25"
       x2="47.466"
       y2="25" />
    <linearGradient
       inkscape:collect="always"
       xlink:href="#linearGradient4228"
       id="linearGradient4264"
       gradientUnits="userSpaceOnUse"
       x1="2.5339999"
       y1="25"
       x2="47.466"
       y2="25" />
    <linearGradient
       inkscape:collect="always"
       xlink:href="#linearGradient4228"
       id="linearGradient4266"
       gradientUnits="userSpaceOnUse"
       x1="2.5339999"
       y1="25"
       x2="47.466"
       y2="25" />
    <linearGradient
       inkscape:collect="always"
       xlink:href="#linearGradient4228"
       id="linearGradient4268"
       gradientUnits="userSpaceOnUse"
       x1="2.5339999"
       y1="25"
       x2="47.466"
       y2="25" />
    <linearGradient
       inkscape:collect="always"
       xlink:href="#linearGradient4228"
       id="linearGradient4270"
       gradientUnits="userSpaceOnUse"
       x1="2.5339999"
       y1="25"
       x2="47.466"
       y2="25" />
    <linearGradient
       inkscape:collect="always"
       xlink:href="#linearGradient4228"
       id="linearGradient4272"
       gradientUnits="userSpaceOnUse"
       x1="10.974543"
       y1="48.856"
       x2="86.738457"
       y2="48.856" />
    <linearGradient
       inkscape:collect="always"
       xlink:href="#linearGradient4228"
       id="linearGradient4274"
       gradientUnits="userSpaceOnUse"
       x1="10.974543"
       y1="48.856"
       x2="86.738457"
       y2="48.856" />
    <linearGradient
       inkscape:collect="always"
       xlink:href="#linearGradient4228"
       id="linearGradient4276"
       gradientUnits="userSpaceOnUse"
       x1="10.974543"
       y1="48.856"
       x2="86.738457"
       y2="48.856" />
    <linearGradient
       inkscape:collect="always"
       xlink:href="#linearGradient4228"
       id="linearGradient4278"
       gradientUnits="userSpaceOnUse"
       x1="10.974543"
       y1="48.856"
       x2="86.738457"
       y2="48.856" />
    <linearGradient
       inkscape:collect="always"
       xlink:href="#linearGradient4228"
       id="linearGradient4280"
       gradientUnits="userSpaceOnUse"
       x1="10.974543"
       y1="48.856"
       x2="86.738457"
       y2="48.856" />
    <linearGradient
       inkscape:collect="always"
       xlink:href="#linearGradient4228"
       id="linearGradient4282"
       gradientUnits="userSpaceOnUse"
       x1="10.974543"
       y1="48.856"
       x2="86.738457"
       y2="48.856" />
    <linearGradient
       inkscape:collect="always"
       xlink:href="#linearGradient4228"
       id="linearGradient4284"
       gradientUnits="userSpaceOnUse"
       x1="10.974543"
       y1="48.856"
       x2="86.738457"
       y2="48.856" />
    <linearGradient
       inkscape:collect="always"
       xlink:href="#linearGradient4228"
       id="linearGradient4286"
       gradientUnits="userSpaceOnUse"
       x1="10.974543"
       y1="48.856"
       x2="86.738457"
       y2="48.856" />
    <linearGradient
       inkscape:collect="always"
       xlink:href="#linearGradient4228"
       id="linearGradient4288"
       gradientUnits="userSpaceOnUse"
       x1="10.974543"
       y1="48.856"
       x2="86.738457"
       y2="48.856" />
    <linearGradient
       inkscape:collect="always"
       xlink:href="#linearGradient4228"
       id="linearGradient4290"
       gradientUnits="userSpaceOnUse"
       x1="10.974543"
       y1="48.856"
       x2="86.738457"
       y2="48.856" />
    <linearGradient
       inkscape:collect="always"
       xlink:href="#linearGradient4228"
       id="linearGradient4292"
       gradientUnits="userSpaceOnUse"
       x1="10.974543"
       y1="48.856"
       x2="86.738457"
       y2="48.856" />
    <linearGradient
       inkscape:collect="always"
       xlink:href="#linearGradient4228"
       id="linearGradient4294"
       gradientUnits="userSpaceOnUse"
       x1="10.974543"
       y1="48.856"
       x2="86.738457"
       y2="48.856" />
    <linearGradient
       inkscape:collect="always"
       xlink:href="#linearGradient4228"
       id="linearGradient4296"
       gradientUnits="userSpaceOnUse"
       x1="10.974543"
       y1="48.856"
       x2="86.738457"
       y2="48.856" />
    <linearGradient
       inkscape:collect="always"
       xlink:href="#linearGradient4228"
       id="linearGradient4298"
       gradientUnits="userSpaceOnUse"
       x1="10.974543"
       y1="48.856"
       x2="86.738457"
       y2="48.856" />
    <linearGradient
       inkscape:collect="always"
       xlink:href="#linearGradient4228"
       id="linearGradient4300"
       gradientUnits="userSpaceOnUse"
       x1="10.974543"
       y1="48.856"
       x2="86.738457"
       y2="48.856" />
    <linearGradient
       inkscape:collect="always"
       xlink:href="#linearGradient4228"
       id="linearGradient4302"
       gradientUnits="userSpaceOnUse"
       x1="10.974543"
       y1="48.856"
       x2="86.738457"
       y2="48.856" />
    <linearGradient
       inkscape:collect="always"
       xlink:href="#linearGradient4228"
       id="linearGradient4304"
       gradientUnits="userSpaceOnUse"
       x1="10.974543"
       y1="48.856"
       x2="86.738457"
       y2="48.856" />
  </defs>
  <sodipodi:namedview
     id="base"
     pagecolor="#ffffff"
     bordercolor="#666666"
     borderopacity="1.0"
     inkscape:pageopacity="0.0"
     inkscape:pageshadow="2"
     inkscape:zoom="0.35"
     inkscape:cx="599.31467"
     inkscape:cy="499.09331"
     inkscape:document-units="px"
     inkscape:current-layer="layer1"
     showgrid="false"
     units="px"
     inkscape:window-width="1366"
     inkscape:window-height="716"
     inkscape:window-x="0"
     inkscape:window-y="0"
     inkscape:window-maximized="1" />
  <metadata
     id="metadata7">
    <rdf:RDF>
      <cc:Work
         rdf:about="">
        <dc:format>image/svg+xml</dc:format>
        <dc:type
           rdf:resource="http://purl.org/dc/dcmitype/StillImage" />
        <dc:title></dc:title>
      </cc:Work>
    </rdf:RDF>
  </metadata>
  <g
     inkscape:label="Capa 1"
     inkscape:groupmode="layer"
     id="layer1"
     style="display:inline;opacity:1"
     transform="translate(0,-572.36218)">
    <g
       id="g4374"
       transform="matrix(3.0468555,0,0,3.0468555,110.22775,655.41422)"
       style="fill:none;stroke:url(#linearGradient4226);stroke-width:3.81691384;stroke-miterlimit:4;stroke-dasharray:none;stroke-opacity:1">
      <g
         id="g4334"
         style="fill:none;stroke:url(#linearGradient4274);stroke-width:3.81691384;stroke-miterlimit:4;stroke-dasharray:none;stroke-opacity:1">
        <path
           id="path4336"
           d="M 48.855,0 C 29.021,0 12.883,16.138 12.883,35.974 c 0,5.174 1.059,10.114 3.146,14.684 8.994,19.681 26.238,40.46 31.31,46.359 0.38,0.441 0.934,0.695 1.517,0.695 0.583,0 1.137,-0.254 1.517,-0.695 5.07,-5.898 22.314,-26.676 31.311,-46.359 2.088,-4.57 3.146,-9.51 3.146,-14.684 C 84.828,16.138 68.69,0 48.855,0 Z m 0,54.659 c -10.303,0 -18.686,-8.383 -18.686,-18.686 0,-10.304 8.383,-18.687 18.686,-18.687 10.303,0 18.686,8.383 18.686,18.687 0.001,10.303 -8.382,18.686 -18.686,18.686 z"
           inkscape:connector-curvature="0"
           style="fill:none;stroke:url(#linearGradient4272);stroke-width:3.81691384;stroke-miterlimit:4;stroke-dasharray:none;stroke-opacity:1" />
      </g>
      <g
         id="g4338"
         style="fill:none;stroke:url(#linearGradient4276);stroke-width:3.81691384;stroke-miterlimit:4;stroke-dasharray:none;stroke-opacity:1" />
      <g
         id="g4340"
         style="fill:none;stroke:url(#linearGradient4278);stroke-width:3.81691384;stroke-miterlimit:4;stroke-dasharray:none;stroke-opacity:1" />
      <g
         id="g4342"
         style="fill:none;stroke:url(#linearGradient4280);stroke-width:3.81691384;stroke-miterlimit:4;stroke-dasharray:none;stroke-opacity:1" />
      <g
         id="g4344"
         style="fill:none;stroke:url(#linearGradient4282);stroke-width:3.81691384;stroke-miterlimit:4;stroke-dasharray:none;stroke-opacity:1" />
      <g
         id="g4346"
         style="fill:none;stroke:url(#linearGradient4284);stroke-width:3.81691384;stroke-miterlimit:4;stroke-dasharray:none;stroke-opacity:1" />
      <g
         id="g4348"
         style="fill:none;stroke:url(#linearGradient4286);stroke-width:3.81691384;stroke-miterlimit:4;stroke-dasharray:none;stroke-opacity:1" />
      <g
         id="g4350"
         style="fill:none;stroke:url(#linearGradient4288);stroke-width:3.81691384;stroke-miterlimit:4;stroke-dasharray:none;stroke-opacity:1" />
      <g
         id="g4352"
         style="fill:none;stroke:url(#linearGradient4290);stroke-width:3.81691384;stroke-miterlimit:4;stroke-dasharray:none;stroke-opacity:1" />
      <g
         id="g4354"
         style="fill:none;stroke:url(#linearGradient4292);stroke-width:3.81691384;stroke-miterlimit:4;stroke-dasharray:none;stroke-opacity:1" />
      <g
         id="g4356"
         style="fill:none;stroke:url(#linearGradient4294);stroke-width:3.81691384;stroke-miterlimit:4;stroke-dasharray:none;stroke-opacity:1" />
      <g
         id="g4358"
         style="fill:none;stroke:url(#linearGradient4296);stroke-width:3.81691384;stroke-miterlimit:4;stroke-dasharray:none;stroke-opacity:1" />
      <g
         id="g4360"
         style="fill:none;stroke:url(#linearGradient4298);stroke-width:3.81691384;stroke-miterlimit:4;stroke-dasharray:none;stroke-opacity:1" />
      <g
         id="g4362"
         style="fill:none;stroke:url(#linearGradient4300);stroke-width:3.81691384;stroke-miterlimit:4;stroke-dasharray:none;stroke-opacity:1" />
      <g
         id="g4364"
         style="fill:none;stroke:url(#linearGradient4302);stroke-width:3.81691384;stroke-miterlimit:4;stroke-dasharray:none;stroke-opacity:1" />
      <g
         id="g4366"
         style="fill:none;stroke:url(#linearGradient4304);stroke-width:3.81691384;stroke-miterlimit:4;stroke-dasharray:none;stroke-opacity:1" />
    </g>
    <path
       sodipodi:nodetypes="cccccccccccccc"
       inkscape:connector-curvature="0"
       id="path4249"
       d="m 384.41363,820.75464 0,113.25955 c -13.35304,-2.10604 -24.53108,0.78756 -32.07701,7.1282 -12.52033,-1.18879 -24.0632,-1.49299 -39.00722,13.06843 -7.46037,8.64755 -12.05979,21.04341 -11.48435,27.72081 l 26.92884,12.67236 c -1.82897,-8.7667 -4.93081,-17.81616 2.37606,-24.55266 8.12499,19.91106 30.42138,29.19346 68.11412,26.92866 12.24629,-1.4232 22.24812,-4.7609 29.50292,-9.9002 32.77244,-25.86828 39.45685,-58.8961 35.64111,-88.70671 -2.10472,-17.4319 -18.87241,-28.12108 -32.07699,-25.34482 -11.78125,2.76339 -20.45078,11.60744 -25.54279,17.22657 l -0.99003,-71.08424 z"
       style="color:#000000;clip-rule:nonzero;display:inline;overflow:visible;visibility:visible;opacity:1;isolation:auto;mix-blend-mode:normal;color-interpolation:sRGB;color-interpolation-filters:linearRGB;solid-color:#000000;solid-opacity:1;fill:none;fill-opacity:1;fill-rule:evenodd;stroke:url(#linearGradient4224);stroke-width:11.08834553;stroke-linecap:butt;stroke-linejoin:miter;stroke-miterlimit:4;stroke-dasharray:none;stroke-dashoffset:0;stroke-opacity:1;color-rendering:auto;image-rendering:auto;shape-rendering:auto;text-rendering:auto;enable-background:accumulate" />
    <g
       id="g4550"
       transform="matrix(3.641704,0,0,3.641704,16.411018,817.73766)"
       style="fill:none;stroke:url(#linearGradient4222);stroke-opacity:1">
      <g
         id="g4506"
         style="fill:none;stroke:url(#linearGradient4240);stroke-opacity:1">
        <g
           id="g4508"
           style="fill:none;stroke:url(#linearGradient4238);stroke-opacity:1">
          <path
             id="path4510"
             d="m 46.966,23.345 c 0,-3.814 -3.115,-6.92 -6.931,-6.92 -3.816,0 -6.933,3.105 -6.933,6.92 0,3.435 2.496,6.267 5.769,6.813 l 0,7.267 c 0,5.664 -4.597,10.261 -10.261,10.261 -5.664,0 -10.262,-4.598 -10.262,-10.261 L 18.323,29.1 c 2.686,-0.358 5.311,-1.929 7.646,-4.612 0.343,-0.394 0.447,-0.902 0.388,-1.387 3.052,-4.035 4.945,-9.53 4.945,-13.754 0,-6.521 -2.922,-7.198 -7.754,-8.304 L 23.541,1.031 C 23.244,0.433 22.644,0 21.917,0 c -1.021,0 -1.849,0.827 -1.849,1.836 0,1.021 0.827,1.848 1.849,1.848 0.404,0 0.783,-0.168 1.084,-0.407 l 0.043,0.016 c 4.691,1.077 5.957,1.369 5.957,6.054 0,3.715 -1.758,8.69 -4.445,12.282 -0.445,0.026 -0.885,0.222 -1.214,0.588 -1.373,1.589 -3.567,3.491 -6.159,3.491 -2.59,0 -4.782,-1.884 -6.155,-3.469 C 10.698,21.873 10.259,21.677 9.817,21.652 7.123,18.047 5.361,13.066 5.361,9.346 5.361,4.658 6.606,4.367 11.326,3.29 l 0.016,-0.015 c 0.324,0.239 0.677,0.408 1.107,0.408 1.021,0 1.848,-0.828 1.848,-1.848 C 14.296,0.827 13.47,0 12.448,0 11.719,0 11.12,0.433 10.802,1.029 L 10.798,1.03 C 5.961,2.146 3.034,2.811 3.034,9.347 c 0,4.228 1.9,9.743 4.979,13.777 -0.059,0.485 0.046,0.994 0.389,1.387 2.333,2.665 4.933,4.23 7.616,4.589 l 0.003,8.324 C 16.022,44.359 21.676,50 28.61,50 35.544,50 41.174,44.359 41.174,37.424 l 0,-7.267 c 3.272,-0.546 5.792,-3.378 5.792,-6.812 z m -6.931,4.63 c -2.543,0 -4.63,-2.074 -4.63,-4.628 0,-2.544 2.087,-4.617 4.63,-4.617 2.543,0 4.606,2.073 4.606,4.617 0.001,2.553 -2.063,4.628 -4.606,4.628 z"
             inkscape:connector-curvature="0"
             style="fill:none;stroke:url(#linearGradient4234);stroke-opacity:1" />
          <path
             id="path4512"
             d="m 40.035,19.891 c -1.91,0 -3.466,1.545 -3.466,3.455 0,1.921 1.556,3.464 3.466,3.464 1.909,0 3.466,-1.543 3.466,-3.464 0,-1.91 -1.557,-3.455 -3.466,-3.455 z"
             inkscape:connector-curvature="0"
             style="fill:none;stroke:url(#linearGradient4236);stroke-opacity:1" />
        </g>
      </g>
      <g
         id="g4514"
         style="fill:none;stroke:url(#linearGradient4242);stroke-opacity:1" />
      <g
         id="g4516"
         style="fill:none;stroke:url(#linearGradient4244);stroke-opacity:1" />
      <g
         id="g4518"
         style="fill:none;stroke:url(#linearGradient4246);stroke-opacity:1" />
      <g
         id="g4520"
         style="fill:none;stroke:url(#linearGradient4248);stroke-opacity:1" />
      <g
         id="g4522"
         style="fill:none;stroke:url(#linearGradient4250);stroke-opacity:1" />
      <g
         id="g4524"
         style="fill:none;stroke:url(#linearGradient4252);stroke-opacity:1" />
      <g
         id="g4526"
         style="fill:none;stroke:url(#linearGradient4254);stroke-opacity:1" />
      <g
         id="g4528"
         style="fill:none;stroke:url(#linearGradient4256);stroke-opacity:1" />
      <g
         id="g4530"
         style="fill:none;stroke:url(#linearGradient4258);stroke-opacity:1" />
      <g
         id="g4532"
         style="fill:none;stroke:url(#linearGradient4260);stroke-opacity:1" />
      <g
         id="g4534"
         style="fill:none;stroke:url(#linearGradient4262);stroke-opacity:1" />
      <g
         id="g4536"
         style="fill:none;stroke:url(#linearGradient4264);stroke-opacity:1" />
      <g
         id="g4538"
         style="fill:none;stroke:url(#linearGradient4266);stroke-opacity:1" />
      <g
         id="g4540"
         style="fill:none;stroke:url(#linearGradient4268);stroke-opacity:1" />
      <g
         id="g4542"
         style="fill:none;stroke:url(#linearGradient4270);stroke-opacity:1" />
    </g>
  </g>
</svg>
