<?xml version="1.0" encoding="UTF-8" standalone="no"?>
<!-- Created with Inkscape (http://www.inkscape.org/) -->

<svg
   xmlns:osb="http://www.openswatchbook.org/uri/2009/osb"
   xmlns:dc="http://purl.org/dc/elements/1.1/"
   xmlns:cc="http://creativecommons.org/ns#"
   xmlns:rdf="http://www.w3.org/1999/02/22-rdf-syntax-ns#"
   xmlns:svg="http://www.w3.org/2000/svg"
   xmlns="http://www.w3.org/2000/svg"
   xmlns:sodipodi="http://sodipodi.sourceforge.net/DTD/sodipodi-0.dtd"
   xmlns:inkscape="http://www.inkscape.org/namespaces/inkscape"
   width="1000"
   height="1000"
   viewBox="0 0 1000.0002 1000.0002"
   id="svg2"
   version="1.1"
   inkscape:version="0.91 r"
   sodipodi:docname="logo2.svg">
  <defs
     id="defs4">
    <linearGradient
       id="linearGradient6773"
       osb:paint="solid">
      <stop
         style="stop-color:#99ff55;stop-opacity:1;"
         offset="0"
         id="stop6775" />
    </linearGradient>
    <linearGradient
       id="linearGradient6767"
       osb:paint="solid">
      <stop
         style="stop-color:#000000;stop-opacity:1;"
         offset="0"
         id="stop6769" />
    </linearGradient>
  </defs>
  <sodipodi:namedview
     id="base"
     pagecolor="#ffffff"
     bordercolor="#666666"
     borderopacity="1.0"
     inkscape:pageopacity="0.0"
     inkscape:pageshadow="2"
     inkscape:zoom="0.33544127"
     inkscape:cx="348.79429"
     inkscape:cy="527.56126"
     inkscape:document-units="px"
     inkscape:current-layer="layer3"
     showgrid="false"
     units="px"
     inkscape:window-width="1366"
     inkscape:window-height="716"
     inkscape:window-x="0"
     inkscape:window-y="0"
     inkscape:window-maximized="1" />
  <metadata
     id="metadata7">
    <rdf:RDF>
      <cc:Work
         rdf:about="">
        <dc:format>image/svg+xml</dc:format>
        <dc:type
           rdf:resource="http://purl.org/dc/dcmitype/StillImage" />
        <dc:title></dc:title>
      </cc:Work>
    </rdf:RDF>
  </metadata>
  <g
     inkscape:groupmode="layer"
     id="layer2"
     inkscape:label="linea"
     style="display:inline;opacity:1"
     transform="translate(0,-371.26)">
    <path
       style="color:#000000;clip-rule:nonzero;display:inline;overflow:visible;visibility:visible;opacity:1;isolation:auto;mix-blend-mode:normal;color-interpolation:sRGB;color-interpolation-filters:linearRGB;solid-color:#000000;solid-opacity:1;fill:#1a1a1a;fill-opacity:1;fill-rule:evenodd;stroke:none;stroke-width:1.00000012px;stroke-linecap:butt;stroke-linejoin:miter;stroke-miterlimit:4;stroke-dasharray:none;stroke-dashoffset:0;stroke-opacity:1;color-rendering:auto;image-rendering:auto;shape-rendering:auto;text-rendering:auto;enable-background:accumulate"
       d="m 530.54067,466.18599 c -10.60753,0.3913 -20.63279,1.75375 -28.28516,7.07031 -2.35702,2.03278 -4.71329,5.08492 -7.07031,8.08203 l -11.3125,5.88281 0.44336,-1.28125 -6.32422,-0.52734 -1.05469,3.16211 c -3.3639,-0.39978 -7.53831,0.41814 -13.70117,4.2168 -5.78486,4.22809 -9.47219,11.0793 -11.0664,19.49804 -0.24485,13.4517 -0.58905,28.35658 0.52734,36.36328 0.32843,12.47227 2.34008,24.41836 0,36.89063 -0.21932,20.02625 -4.63349,34.45842 -8.95899,49.00976 l 5.26954,-7.37695 c -4.74539,14.6348 -11.07013,26.63558 -20.02539,34.25391 l 10.53906,-6.32422 c -2.55307,5.43381 -5.53298,10.0152 -9.48633,12.64844 4.56731,-0.71717 9.13582,-1.29579 13.70312,-4.74219 -3.81905,16.56667 -2.73661,18.65145 -2.63671,24.76758 0.85044,13.02716 3.57752,24.70503 10.01367,32.14648 l 8.95898,17.91797 -2.63476,-22.13281 6.53125,-44.41211 c -1.74566,21.8572 -3.78317,42.56563 -0.60547,58.53711 2.2227,7.45259 6.83184,20.55836 9.19531,27.23828 l -0.26562,-0.0215 0.72851,1.3379 c 0.35314,0.99563 1.22823,3.497 1.29688,3.68945 l 2.92382,12.71875 2.25196,16.83398 -0.57813,12.39453 c -1.84618,16.17922 -8.84246,28.58162 -16.20898,38.68946 -4.70518,5.35115 -11.41447,15.71359 -17.39063,24.24219 -4.32176,3.09209 -9.40033,4.83311 -15.01953,9.22265 -6.26829,4.62301 -11.17346,9.55596 -15.81055,18.18164 -3.70205,6.9687 -4.62228,14.62842 -5.00585,23.97852 -0.22353,6.67989 1.46669,12.64667 4.65234,17.96289 -6.15423,4.6696 -12.56392,9.85267 -20.67969,18.44531 -6.70871,4.42506 -20.81758,17.73992 -32.98242,27.62109 l -36.36328,34.25588 -46.37695,29.5117 c -24.8744,-0.6481 -49.47204,-2.1336 -76.94141,8.4316 -33.9035,13.3204 -67.80548,33.2835 -101.708981,51.1192 -11.35925,5.8949 -24.48014,10.6152 -40.05274,13.7012 -6.9196,-0.8654 -12.41402,1.9523 -16.33594,5.7968 -4.74964,7.7338 -6.46851,13.6214 -5.27148,17.3907 6.25309,11.3308 8.55181,15.607 25.0332,23.4511 l 38.734381,35.5723 12.38476,12.9121 c 15.81209,3.1658 27.22134,-1.0424 39.25977,-4.4805 l 4.21679,-5.2695 c 2.47925,-2.108 0.84611,-4.2163 -0.52734,-6.3243 l -12.12109,1.5821 -16.33594,-2.6348 c -9.33469,-5.7226 -13.28345,-18.1795 -18.97266,-28.4589 -4.02123,-5.4821 -7.44755,-11.0828 -6.56836,-17.545 0,0 4.04844,-8.1021 8.15039,-11.9668 10.26642,-7.0856 22.58852,-11.087 34.78126,-15.2832 l 111.72265,-22.1328 16.86524,-2.3711 c 5.34274,1.0292 8.57614,0.024 12.33789,-0.4824 17.11163,-5.191 31.37827,-9.0218 44.05078,-14.5371 8.51183,-4.216 16.20072,-8.8638 20.75195,-11.6484 l 0.13477,0.1093 c 29.1482,-14.9316 53.74556,-35.1895 77.13476,-50.1211 l 35.83594,-32.14644 23.71484,-16.33593 47.80274,-1.36328 98.85547,10.10351 54.92578,2.29883 c 12.10286,0.57488 24.25447,8.19333 34.50976,13.72852 l 2.94336,20.15429 c 0.5292,21.8243 17.97762,53.5925 18.79102,52.7754 11.30636,15.4728 15.00772,23.6963 21.96289,33.5371 l -0.15039,0.2363 c 10.64581,18.844 19.41275,35.8103 26.08398,50.6797 l 8.19922,48.4433 c -2.34079,7.5053 -2.65701,11.5747 -1.11914,17.1407 1.22406,1.9964 4.6512,4.5688 7.82617,5.5898 l 111.79294,4.0996 9.6895,-2.9805 8.9433,2.2364 c 3.2251,-1.2421 6.1899,-2.4845 7.4532,-3.7266 l 2.9804,-5.9629 -1.4902,-7.4531 -17.1426,-1.4902 c -19.5891,-5.7628 -35.75703,-14.0905 -51.4238,-22.795 l -25.33985,-11.4882 c -29.80158,-35.6412 -40.18218,-81.6041 -51.20898,-124.8027 0.50178,-8.7259 -24.69799,-107.45147 -39.99609,-123.48636 -8.12589,-8.51724 -138.3455,-37.82643 -195.07618,-45.28907 0.98881,-4.51191 -3.45709,-13.77965 -3.32617,-29.13085 0,0 0.23703,-20.04688 -0.35547,-38.22852 l 2.17188,-50.16602 c 1.94943,-3.14946 0.88281,-8.69922 0.88281,-8.69922 8.24624,-1.29275 13.97829,-4.72068 17.83203,-10.67382 1.40323,-2.19517 2.40004,-3.59303 3.22266,-9.05274 0.71303,-4.7324 -0.44821,-9.65893 -2.64258,-16.43359 l 1.00195,1.00195 c 5.1567,3.82874 10.43656,5.91638 16.29297,8.3457 l 12.90625,3.31446 13.22656,1.97656 c 6.5962,5.57527 12.0284,12.02415 21.21289,15.6582 3.0054,2.75639 10.84766,4.61133 10.84766,4.61133 5.49437,2.83002 15.41602,-2.93945 15.41602,-2.93945 15.43704,-13.34867 26.39058,-30.86054 36.01172,-51.91992 l 6.41406,-7.33203 c 4.2355,-9.30412 5.18691,-23.53394 4.04101,-40.91016 l -3.02929,-9.0918 c -0.18223,-8.80258 -0.56631,-17.35753 -1.31836,-29.55859 0,0 -3.6985,-4.71801 -6.74219,4.01953 l 0,1.84375 -0.0215,17.63477 -2.01953,-35.86133 c -0.70314,-3.37711 -2.70995,-4.41926 -4.81054,-4.30274 l -2.76563,2.28321 -0.50586,-8.08203 c -2.2383,-5.50472 -7.54077,-1.67087 -6.5664,4.04101 l -0.50391,4.04102 c -2.35702,-4.46084 -4.71525,-2.98705 -7.07227,-0.50586 -1.76056,16.58555 -3.88625,32.97487 -8.58593,50.0039 l 0,12.62696 c -2.35702,-0.8591 -4.7133,-2.79627 -7.07032,-5.05079 l -2.5039,-7.62109 c -2.8145,-5.45711 -6.9729,-11.8325 -11.13281,-10.5625 -1.10962,1.04589 -2.43978,1.79906 -1.51563,5.55664 0.82612,5.01941 1.39112,9.51466 1.51563,13.13086 l 6.06054,11.11133 3.0293,6.0625 c 0,0 -7.24674,2.88492 -9.5957,1.51367 -1.7304,-1.01015 -55.76723,-19.69726 -57.57813,-19.69726 -15.87009,-12.82087 -38.6664,-23.59524 -62.32422,-28.88477 6.20777,-11.94242 8.92245,-23.4316 16.36133,-33.24023 8.79933,-2.50136 15.47091,4.29215 24.24414,1.00976 l 3.03125,-6.06055 1.00977,-10.10156 3.02929,-0.5039 -1.00976,-6.0625 2.02148,-4.03907 0,-8.08203 8.08008,-1.00976 c 2.27134,-1.22136 3.56458,-2.93295 3.03125,-5.55664 l -12.62695,-19.69727 0.5039,-13.63672 c 0.88939,-14.11323 -6.79473,-28.31769 -16.66601,-40.40625 -9.98374,-9.41407 -23.79453,-14.28342 -38.38672,-15.15234 z m -51.49805,34.27539 -0.0195,0.0703 4.54492,1.51367 -4.03906,8.58789 -3.96875,4.36524 -1.78516,-6.39844 5.26758,-8.13867 z m 16.14258,62.69922 c 5.1905,12.99584 3.42502,24.16139 2.52539,32.32422 l -5.20312,7.03906 -0.24219,-0.14258 c -0.60919,0.87461 -1.21618,1.77033 -1.82227,2.66602 0.88642,-3.7494 1.50567,-7.60432 1.77735,-11.59961 2.1914,-8.62714 -0.0913,-19.04414 -3.03321,-29.72461 2.17276,1.02595 4.20859,1.09459 5.99805,-0.5625 z m 149.23047,146.34961 c 5.36223,1.06086 10.05062,1.96224 14.6543,2.83984 l -5.29102,3.84766 -9.36328,-6.6875 z"
       id="path5310"
       inkscape:connector-curvature="0" />
  </g>
  <g
     inkscape:groupmode="layer"
     id="layer3"
     inkscape:label="linea 2"
     style="display:inline"
     transform="translate(0,-371.26)">
    <path
       style="color:#000000;clip-rule:nonzero;display:inline;overflow:visible;visibility:visible;opacity:1;isolation:auto;mix-blend-mode:normal;color-interpolation:sRGB;color-interpolation-filters:linearRGB;solid-color:#000000;solid-opacity:1;fill:#4d4d4d;fill-opacity:1;fill-rule:evenodd;stroke:none;stroke-width:1.00000012px;stroke-linecap:butt;stroke-linejoin:miter;stroke-miterlimit:4;stroke-dasharray:none;stroke-dashoffset:0;stroke-opacity:1;color-rendering:auto;image-rendering:auto;shape-rendering:auto;text-rendering:auto;enable-background:accumulate"
       d="m 479.96488,625.97305 5.06266,-13.56952 c 3.44181,-2.57194 6.52428,-5.50321 12.66988,-5.37136 6.13792,0.43294 10.16069,1.92347 13.50559,3.75292 6.17503,5.87515 10.85977,10.26002 14.22438,13.32475 l 1.49058,2.23586 -8.19816,-0.37265 c -3.48922,-3.76331 -7.76646,-7.00127 -15.43274,-7.97987 -3.57208,-1.10428 -7.14416,-0.86085 -10.71624,-0.59093 -6.21022,0.8487 -9.05276,5.06507 -12.60595,8.5708 z"
       id="path6598"
       inkscape:connector-curvature="0"
       sodipodi:nodetypes="cccccccccc" />
    <path
       style="color:#000000;clip-rule:nonzero;display:inline;overflow:visible;visibility:visible;opacity:1;isolation:auto;mix-blend-mode:normal;color-interpolation:sRGB;color-interpolation-filters:linearRGB;solid-color:#000000;solid-opacity:1;fill:#4d4d4d;fill-opacity:1;fill-rule:evenodd;stroke:none;stroke-width:1.00000012px;stroke-linecap:butt;stroke-linejoin:miter;stroke-miterlimit:4;stroke-dasharray:none;stroke-dashoffset:0;stroke-opacity:1;color-rendering:auto;image-rendering:auto;shape-rendering:auto;text-rendering:auto;enable-background:accumulate"
       d="m 461.3327,713.91693 c 7.45287,3.08245 22.88562,3.8808 22.88562,3.8808 13.95024,2.47951 31.9834,-3.26339 31.9834,-3.26339 11.74664,-5.47772 12.05294,-7.57735 15.93325,-12.16936 l 11.55196,-14.16046 20.49539,4.09908 7.08023,7.08023 c 6.16225,6.69496 8.88768,14.53364 13.78781,20.86804 3.8409,6.36377 4.29877,10.06424 5.94357,15.43274 0.65933,11.78206 -4.73523,14.90574 -4.73523,14.90574 0,0 -4.62915,6.10339 -12.60593,8.35251 l -5.80794,0.59093 -0.9636,7.82552 c -25.89913,0.22569 -51.99045,-1.46441 -76.51979,-2.60851 -6.1137,-0.41529 -15.00123,-4.10305 -19.71266,-8.72515 l -7.82551,-25.7124 z"
       id="path6600"
       inkscape:connector-curvature="0"
       sodipodi:nodetypes="ccccccccccccccccc" />
    <path
       style="color:#000000;clip-rule:nonzero;display:inline;overflow:visible;visibility:visible;opacity:1;isolation:auto;mix-blend-mode:normal;color-interpolation:sRGB;color-interpolation-filters:linearRGB;solid-color:#000000;solid-opacity:1;fill:#4d4d4d;fill-opacity:1;fill-rule:nonzero;stroke:none;stroke-width:5.00000095;stroke-linecap:butt;stroke-linejoin:miter;stroke-miterlimit:4;stroke-dasharray:none;stroke-dashoffset:0;stroke-opacity:1;color-rendering:auto;image-rendering:auto;shape-rendering:auto;text-rendering:auto;enable-background:accumulate"
       d="m 462.45063,843.22424 c 4.09908,-3.63566 11.36015,-2.08097 15.45923,-2.95466 19.87649,-2.84564 35.87934,0.7648 51.61661,4.81788 12.6875,6.58689 19.20321,14.04742 24.96712,19.24959 5.72661,6.56722 18.47365,13.43898 10.06138,22.5769 l 10e-6,-5.33392 79.00041,16.42281 c 3.4328,-0.68656 56.15559,12.20115 58.19633,13.07998 0,0 62.30054,16.4196 60.24039,18.06772 l 6.70759,6.70758 c 15.40942,29.7788 12.51142,34.46811 16.46024,47.48009 l 4.80691,14.37874 c 8.29634,0.0478 -26.22316,6.70855 -45.05241,12.82425 -5.58965,2.6085 -11.17931,5.217 -16.76896,7.8255 l -4.84436,-20.12275 -23.56697,-11.3976 c -30.90718,-0.0356 -63.68219,-1.6056 -92.35166,-4.00866 l -65.40442,-7.82551 -54.56031,-0.61742 -27.94827,21.24069 c -21.07921,20.88295 -42.21457,42.69205 -70.31273,60.76735 -12.74918,8.5834 -36.71345,18.7777 -57.78623,28.4488 -16.89287,6.9654 -34.71096,12.0804 -53.0058,16.242 l -23.10391,1.8632 c 4.3793,-19.6259 0.34508,-39.2518 -9.31608,-58.8777 10.58089,0.2258 21.32926,0.2841 30.55677,1.8632 16.02367,-9.867 32.57434,-21.8374 48.07102,-34.1553 27.62451,-26.85546 54.28623,-49.11319 86.11811,-74.56618 -6.73347,-7.45551 -4.69002,-23.91403 -4.69002,-23.72131 -0.47222,-12.82925 7.22946,-27.46938 16.16705,-35.7628"
       id="path6602"
       inkscape:connector-curvature="0"
       sodipodi:nodetypes="cccccccscccccccccccccccccccccc" />
  </g>
</svg>
