<?xml version="1.0" encoding="UTF-8" standalone="no"?>
<!-- Created with Inkscape (http://www.inkscape.org/) -->
<svg id="svg2" xmlns:rdf="http://www.w3.org/1999/02/22-rdf-syntax-ns#" xmlns="http://www.w3.org/2000/svg" xmlns:osb="http://www.openswatchbook.org/uri/2009/osb" height="1e3" width="1e3" version="1.1" xmlns:cc="http://creativecommons.org/ns#" viewBox="0 0 1000.0002 1000.0002" xmlns:dc="http://purl.org/dc/elements/1.1/">
 <metadata id="metadata7">
  <rdf:RDF>
   <cc:Work rdf:about="">
    <dc:format>image/svg+xml</dc:format>
    <dc:type rdf:resource="http://purl.org/dc/dcmitype/StillImage"/>
    <dc:title/>
   </cc:Work>
  </rdf:RDF>
 </metadata>
 <g id="layer2" transform="translate(0,-371.26)">
  <path id="path5310" style="color-rendering:auto;color:#000000;isolation:auto;mix-blend-mode:normal;shape-rendering:auto;solid-color:#000000;image-rendering:auto" d="m530.54 466.19c-10.608 0.3913-20.633 1.7538-28.285 7.0703-2.357 2.0328-4.7133 5.0849-7.0703 8.082l-11.312 5.8828 0.44336-1.2812-6.3242-0.52734-1.0547 3.1621c-3.3639-0.39978-7.5383 0.41814-13.701 4.2168-5.7849 4.2281-9.4722 11.079-11.066 19.498-0.24485 13.452-0.58905 28.357 0.52734 36.363 0.32843 12.472 2.3401 24.418 0 36.891-0.21932 20.026-4.6335 34.458-8.959 49.01l5.2695-7.377c-4.7454 14.635-11.07 26.636-20.025 34.254l10.539-6.3242c-2.5531 5.4338-5.533 10.015-9.4863 12.648 4.5673-0.71717 9.1358-1.2958 13.703-4.7422-3.819 16.567-2.7366 18.651-2.6367 24.768 0.85044 13.027 3.5775 24.705 10.014 32.146l8.959 17.918-2.6348-22.133 6.5312-44.412c-1.7457 21.857-3.7832 42.566-0.60547 58.537 2.2227 7.4526 6.8318 20.558 9.1953 27.238l-0.26562-0.0215 0.72851 1.3379c0.35314 0.99563 1.2282 3.497 1.2969 3.6894l2.9238 12.719 2.252 16.834-0.57813 12.395c-1.8462 16.179-8.8425 28.582-16.209 38.689-4.7052 5.3512-11.414 15.714-17.391 24.242-4.3218 3.0921-9.4003 4.8331-15.02 9.2226-6.2683 4.623-11.173 9.556-15.811 18.182-3.702 6.9687-4.6223 14.628-5.0058 23.979-0.22353 6.6799 1.4667 12.647 4.6523 17.963-6.1542 4.6696-12.564 9.8527-20.68 18.445-6.7087 4.4251-20.818 17.74-32.982 27.621l-36.363 34.256-46.377 29.512c-24.874-0.6481-49.472-2.1336-76.941 8.4316-33.904 13.32-67.805 33.284-101.71 51.119-11.359 5.8949-24.48 10.615-40.053 13.701-6.9196-0.8654-12.414 1.9523-16.336 5.7968-4.7496 7.7338-6.4685 13.621-5.2715 17.391 6.2531 11.331 8.5518 15.607 25.033 23.451l38.734 35.572 12.385 12.912c15.812 3.1658 27.221-1.0424 39.26-4.4805l4.2168-5.2695c2.4792-2.108 0.84611-4.2163-0.52734-6.3243l-12.121 1.5821-16.336-2.6348c-9.3347-5.7226-13.283-18.18-18.973-28.459-4.0212-5.4821-7.4476-11.083-6.5684-17.545 0 0 4.0484-8.1021 8.1504-11.967 10.266-7.0856 22.589-11.087 34.781-15.283l111.72-22.133 16.865-2.3711c5.3427 1.0292 8.5761 0.024 12.338-0.4824 17.112-5.191 31.378-9.0218 44.051-14.537 8.5118-4.216 16.201-8.8638 20.752-11.648l0.13477 0.1093c29.148-14.932 53.746-35.19 77.135-50.121l35.836-32.146 23.715-16.336 47.803-1.3633 98.855 10.104 54.926 2.2988c12.103 0.57488 24.254 8.1933 34.51 13.729l2.9434 20.154c0.5292 21.824 17.978 53.592 18.791 52.775 11.306 15.473 15.008 23.696 21.963 33.537l-0.15039 0.2363c10.646 18.844 19.413 35.81 26.084 50.68l8.1992 48.443c-2.3408 7.5053-2.657 11.575-1.1191 17.141 1.2241 1.9964 4.6512 4.5688 7.8262 5.5898l111.79 4.0996 9.6895-2.9805 8.9433 2.2364c3.2251-1.2421 6.1899-2.4845 7.4532-3.7266l2.9804-5.9629-1.4902-7.4531-17.143-1.4902c-19.589-5.7628-35.757-14.09-51.424-22.795l-25.34-11.488c-29.802-35.641-40.182-81.604-51.209-124.8 0.50178-8.7259-24.698-107.45-39.996-123.49-8.1259-8.5172-138.35-37.826-195.08-45.289 0.98881-4.5119-3.4571-13.78-3.3262-29.131 0 0 0.23703-20.047-0.35547-38.229l2.1719-50.166c1.9494-3.1495 0.88281-8.6992 0.88281-8.6992 8.2462-1.2928 13.978-4.7207 17.832-10.674 1.4032-2.1952 2.4-3.593 3.2227-9.0527 0.71303-4.7324-0.44821-9.6589-2.6426-16.434l1.002 1.002c5.1567 3.8287 10.437 5.9164 16.293 8.3457l12.906 3.3145 13.227 1.9766c6.5962 5.5753 12.028 12.024 21.213 15.658 3.0054 2.7564 10.848 4.6113 10.848 4.6113 5.4944 2.83 15.416-2.9394 15.416-2.9394 15.437-13.349 26.391-30.861 36.012-51.92l6.4141-7.332c4.2355-9.3041 5.1869-23.534 4.041-40.91l-3.0293-9.0918c-0.18223-8.8026-0.56631-17.358-1.3184-29.559 0 0-3.6985-4.718-6.7422 4.0195v1.8438l-0.0215 17.635-2.0195-35.861c-0.70314-3.3771-2.71-4.4193-4.8105-4.3027l-2.7656 2.2832-0.50586-8.082c-2.2383-5.5047-7.5408-1.6709-6.5664 4.041l-0.50391 4.041c-2.357-4.4608-4.7152-2.987-7.0723-0.50586-1.7606 16.586-3.8862 32.975-8.5859 50.004v12.627c-2.357-0.8591-4.7133-2.7963-7.0703-5.0508l-2.5039-7.6211c-2.8145-5.4571-6.9729-11.832-11.133-10.562-1.1096 1.0459-2.4398 1.7991-1.5156 5.5566 0.82612 5.0194 1.3911 9.5147 1.5156 13.131l6.0605 11.111 3.0293 6.0625s-7.2467 2.8849-9.5957 1.5137c-1.7304-1.0102-55.767-19.697-57.578-19.697-15.87-12.821-38.666-23.595-62.324-28.885 6.2078-11.942 8.9224-23.432 16.361-33.24 8.7993-2.5014 15.471 4.2922 24.244 1.0098l3.0312-6.0606 1.0098-10.102 3.0293-0.5039-1.0098-6.0625 2.0215-4.0391v-8.082l8.0801-1.0098c2.2713-1.2214 3.5646-2.933 3.0312-5.5566l-12.627-19.697 0.5039-13.637c0.88939-14.113-6.7947-28.318-16.666-40.406-9.9837-9.4141-23.795-14.283-38.387-15.152zm-51.498 34.275-0.0195 0.0703 4.5449 1.5137-4.0391 8.5879-3.9688 4.3652-1.7852-6.3984 5.2676-8.1387zm16.143 62.699c5.1905 12.996 3.425 24.161 2.5254 32.324l-5.2031 7.0391-0.24219-0.14258c-0.60919 0.87461-1.2162 1.7703-1.8223 2.666 0.88642-3.7494 1.5057-7.6043 1.7774-11.6 2.1914-8.6271-0.0913-19.044-3.0332-29.725 2.1728 1.026 4.2086 1.0946 5.998-0.5625zm149.23 146.35c5.3622 1.0609 10.051 1.9622 14.654 2.8398l-5.291 3.8477-9.3633-6.6875z" fill-rule="evenodd" fill="#1a1a1a"/>
 </g>
 <g id="layer3" transform="translate(0,-371.26)" fill="#4d4d4d">
  <path id="path6598" style="color-rendering:auto;color:#000000;isolation:auto;mix-blend-mode:normal;shape-rendering:auto;solid-color:#000000;image-rendering:auto" d="m479.96 625.97 5.0627-13.57c3.4418-2.5719 6.5243-5.5032 12.67-5.3714 6.1379 0.43294 10.161 1.9235 13.506 3.7529 6.175 5.8752 10.86 10.26 14.224 13.325l1.4906 2.2359-8.1982-0.37265c-3.4892-3.7633-7.7665-7.0013-15.433-7.9799-3.5721-1.1043-7.1442-0.86085-10.716-0.59093-6.2102 0.8487-9.0528 5.0651-12.606 8.5708z" fill-rule="evenodd"/>
  <path id="path6600" style="color-rendering:auto;color:#000000;isolation:auto;mix-blend-mode:normal;shape-rendering:auto;solid-color:#000000;image-rendering:auto" d="m461.33 713.92c7.4529 3.0824 22.886 3.8808 22.886 3.8808 13.95 2.4795 31.983-3.2634 31.983-3.2634 11.747-5.4777 12.053-7.5774 15.933-12.169l11.552-14.16 20.495 4.0991 7.0802 7.0802c6.1622 6.695 8.8877 14.534 13.788 20.868 3.8409 6.3638 4.2988 10.064 5.9436 15.433 0.65933 11.782-4.7352 14.906-4.7352 14.906s-4.6292 6.1034-12.606 8.3525l-5.8079 0.59093-0.9636 7.8255c-25.899 0.22569-51.99-1.4644-76.52-2.6085-6.1137-0.41529-15.001-4.103-19.713-8.7252l-7.8255-25.712z" fill-rule="evenodd"/>
  <path id="path6602" style="color-rendering:auto;color:#000000;isolation:auto;mix-blend-mode:normal;shape-rendering:auto;solid-color:#000000;image-rendering:auto" d="m462.45 843.22c4.0991-3.6357 11.36-2.081 15.459-2.9547 19.876-2.8456 35.879 0.7648 51.617 4.8179 12.688 6.5869 19.203 14.047 24.967 19.25 5.7266 6.5672 18.474 13.439 10.061 22.577l0.00001-5.3339 79 16.423c3.4328-0.68656 56.156 12.201 58.196 13.08 0 0 62.301 16.42 60.24 18.068l6.7076 6.7076c15.409 29.779 12.511 34.468 16.46 47.48l4.8069 14.379c8.2963 0.0478-26.223 6.7086-45.052 12.824-5.5896 2.6085-11.179 5.217-16.769 7.8255l-4.8444-20.123-23.567-11.398c-30.907-0.0356-63.682-1.6056-92.352-4.0087l-65.404-7.8255-54.56-0.61742-27.948 21.241c-21.079 20.883-42.215 42.692-70.313 60.767-12.749 8.5834-36.713 18.778-57.786 28.449-16.893 6.9654-34.711 12.08-53.006 16.242l-23.104 1.8632c4.3793-19.626 0.34508-39.252-9.3161-58.878 10.581 0.2258 21.329 0.2841 30.557 1.8632 16.024-9.867 32.574-21.837 48.071-34.155 27.625-26.855 54.286-49.113 86.118-74.566-6.7335-7.4555-4.69-23.914-4.69-23.721-0.47222-12.829 7.2295-27.469 16.167-35.763"/>
 </g>
</svg>
