<?xml version="1.0" encoding="UTF-8" standalone="no"?>
<!-- Created with Inkscape (http://www.inkscape.org/) -->
<svg id="svg2" xmlns:rdf="http://www.w3.org/1999/02/22-rdf-syntax-ns#" xmlns="http://www.w3.org/2000/svg" xmlns:osb="http://www.openswatchbook.org/uri/2009/osb" height="1e3" width="1e3" version="1.1" xmlns:cc="http://creativecommons.org/ns#" viewBox="0 0 1000.0002 1000" xmlns:dc="http://purl.org/dc/elements/1.1/">
 <metadata id="metadata7">
  <rdf:RDF>
   <cc:Work rdf:about="">
    <dc:format>image/svg+xml</dc:format>
    <dc:type rdf:resource="http://purl.org/dc/dcmitype/StillImage"/>
    <dc:title/>
   </cc:Work>
  </rdf:RDF>
 </metadata>
 <g id="layer3" transform="translate(0 -62.992)" stroke="#e6e6e6" stroke-linecap="round" stroke-width="2" fill="#4d4d4d">
  <ellipse id="path5455" rx="38.652" ry="38.4" cy="321.28" cx="223.21"/>
  <ellipse id="ellipse5457" rx="38.652" ry="38.4" cy="308.65" cx="785.27"/>
 </g>
 <g id="layer2" fill-rule="evenodd" transform="translate(0 -62.992)" fill="#1a1a1a">
  <path id="path5376" style="color-rendering:auto;color:#000000;isolation:auto;mix-blend-mode:normal;shape-rendering:auto;solid-color:#000000;image-rendering:auto" d="m538.21 378.98c-4.9882 19.315-6.8296 29.945-7.0711 42.809 3.4329 12.023 10.104 20.345 20.203 24.749l21.213 11.617 9.0914 3.5355 13.514-1.306 34.973 3.8314c18.898 3.1429 34.298 10.95 50.508 17.678 15.321-0.9527 30.641-0.8888 45.962 1.0102l24.244 5.0508 13.132-2.0203 24.749-67.68 7.5761-43.942-2.5254-21.718-2.5254-12.122 3.0305-8.0812-3.5355-10.102c-2.357-2.7791-4.714-5.8677-7.0711-9.5964-1.1103-2.8962-1.2995-6.253-0.50507-10.102-0.39776-5.9 3.29-5.6716 6.566-6.0609 8.4764 2.1536 8.4915 9.3839 12.627 14.142l4.5457 15.152 12.122-12.122-0.50507-20.203-9.5964-11.112-11.617-7.0711 0.50508-5.0508c7.7482 3.7076 12.158 4.0772 18.183 6.0609 5.1805 8.0566 8.7968 8.2919 13.132 12.122-1.932 15.785 2.0038 22.182 4.5457 30.81v5.0508c-7.7486 16.433-11.063 31.978-14.142 47.477-0.0176 42.725-3.8529 81.743-6.566 129.8-4.3087 11.087-7.9779 26.651-13.132 31.82l-16.162-0.50507c-22.901 6.3926-49.135 8.3398-74.751 11.112-31.921-0.74027-59.012-6.3114-87.378-10.607-25.147 6.6-32.797 25.732-38.177 44.569l-6.566 48.783c-6.448 39.127 6.1307 70.339 15.214 103.98 12.643 27.413 25.247 56.134 26.499 84.496 2.81 29.789-4.5545 47.175-18.836 63.344-4.781 3.3857-10.31 8.9707-21.304 13.244-13.166 6.8578-51.532 1.0428-67.946 4.2244-7.5266-2.9612-15.424-5.1809-20.203-13.637l0.68891-4.6936c-1.1208 10.546-12.312 15.935-22.912 19.846-21.027-0.83326-41.636-2.1872-59.808-10.632-24.848-7.5562-35.243-28.853-39.187-53.513-3.7806-36.365 18.781-71.216 31.82-107.58 16.73-29.803 16.915-66.101 15.657-102.53 0.60171-14.85-5.0515-29.267-10.902-45.038-8.4153-16.515-10.114-35.167-37.08-49.916-2.3599-0.98285-8.8352-1.7522-16.458-0.0867-20.154 7.4671-43.241 13.768-66.879 18.269-33.637 3.4056-67.945 2.7908-102.53 0.50507-10.678-27.006-16.016-57.749-17.173-91.419 2.2782-30.582 5.9763-60.217 11.112-88.893-3.1462-14.584-4.8045-32.144-6.0609-50.508 1.9897-5.862 5.2554-13 10.102-21.718 7.9392-6.7694 14.107-11.177 19.193-14.142l18.183-2.5254-1.5152 3.5355 4.0406 5.0508c-0.58412 5.3242-6.4674 6.4092-11.617 8.0812l-12.1 10.13c-1.7855 8.7504-2.7865 11.423-5.4333 15.867l1.3927 10.397 11.112 5.0508 11.617-6.566c2.6157-7.5188 7.1485-10.245 11.617-13.132 3.8427-0.37663 6.1236 1.5895 8.0812 4.0406l-5.5558 15.152-17.173 15.657c-1.3971 8.6057-5.0833 15.903-13.132 20.708-2.0661 57.763 3.606 93.59 22.223 125.76 21.659-1.2658 43.181-13.629 68.481-16.902l19.907-3.301c21.72-15.068 47.244-19.175 77.782-26.769 10.308 1.4216 17.784 0.77304 22.728 3.5355 22.241-3.7094 41.719-11.437 53.538-30.305 1.2742-12.948-0.79352-27.752-8.0812-45.457l-0.75889 0.12255-0.75634-0.12255c-5.658-8.2137-11.277-16.506-14.142-30.305-1.2629-8.2838 1.9597-7.5967 4.3111-8.6519-2.2004-14.669-2.2225-51.141 9.1526-63.293-3.1667-13.761 6.6662-25.715 15.326-37.657 17.55-7.5293 33.73-10.95 47.477-7.0711 21.584 19.242 17.837 25.836 19.968 34.468 20.837 22.043 18.846 49.067 15.178 75.823 5.0067-2.9494 5.9504-0.82022 7.2803 0.82632-4.5476 12.285-8.3403 26.458-14.647 34.345z"/>
  <path id="path5459" style="color-rendering:auto;color:#000000;isolation:auto;mix-blend-mode:normal;shape-rendering:auto;solid-color:#000000;image-rendering:auto" d="m508.41 896.56c-9.1759 11.827-11.927 26.609-18.183 30.305l1.2627 36.365s5.2291 3.9642 7.8287 1.5152c1.9451-1.8324 0.80278 5.0096 6.566 6.0609 1.6826 0.30694 12.133-2.8391 9.5964-5.0508-2.2876-1.995 2.504 6.0824 6.8185 2.7779 14.035-3.4023 1.3706-0.0571 12.122-2.0203 28.76-8.4632 13.43-28.466 15.91-57.831 1.4507-6.6454 8.0822-10.278 10.102-14.395-17.308 0.45834-34.118-3.5599-52.023 2.2728z"/>
  <path id="path5461" style="color-rendering:auto;color:#000000;isolation:auto;mix-blend-mode:normal;shape-rendering:auto;solid-color:#000000;image-rendering:auto" d="m412.44 888.98c5.3311 6.2574 10.449 12.621 13.132 20.203 1.7592 16.456 2.3053 31.694 6.566 45.457 2.1887 3.1652 4.3773 4.7272 6.566 2.5254 1.2473 3.13 1.6321 7.1226 6.0609 7.0711h4.0406c3.0305 4.8003 7.0711 4.3848 10.102 4.5457 4.4699 3.3543 6.9728 4.37 10.102 3.0305 5.3404 1.0844 9.6163 0.0398 13.637-1.5152l2.5254-4.5457c2.7163-0.0503 5.1839-0.47368 6.566-2.5254l-0.50508-36.365c-9.4204-9.1574-16.671-19.129-20.708-30.305"/>
 </g>
 <g id="layer4" transform="translate(0 -62.992)">
  <g id="g5708" fill-rule="evenodd" transform="translate(20 54.286)" stroke="#e6e6e6" fill="#4d4d4d">
   <path id="path5547" style="color-rendering:auto;color:#000000;isolation:auto;mix-blend-mode:normal;shape-rendering:auto;solid-color:#000000;image-rendering:auto" d="m530.71 391.56-11.429 5.3571c-5.119 2.7041-10.952 7.9026-16.071 12.5l-23.571 28.929-18.214 23.929-20.714 26.786c-6.4919 8.9286-14.348 18.571-24.643 27.5l-6.07 6.07c-5.0747 0.46607-8.8215 2.2936-16.429 1.0714l-11.786-5.3571 3.9286 8.2143c7.8571 4.0493 15.714 4.238 23.571 3.5714 7.6384-0.45689 10.747-6.8716 15-10.714 9.3106-9.8427 15.31-19.205 21.786-27.143 10.787-14.808 19.762-25.357 30-38.214l20-26.071 16.43-17.86 13.57-10.35 11.43-4.65z"/>
   <path id="path5549" style="color-rendering:auto;color:#000000;isolation:auto;mix-blend-mode:normal;shape-rendering:auto;solid-color:#000000;image-rendering:auto" d="m409.29 394.78 8.21-3.57c13.751 9.1959 27.142 18.572 37.143 29.643l36.071 46.071c9.8313 12.009 19.204 23.33 27.143 32.5 13.153 10.664 21.09 17.029 29.643 23.929l12.857-0.71429 5-3.2143-2.5 8.5714-17.143 0.71429-18.21-12.86c-5.8797-3.0891-11.427-9.1587-18.214-16.786-11.05-9.62-24.88-30.56-36.79-44.64l-23.214-27.857c-9.3054-11.938-25.261-21.659-40-31.786z"/>
   <path id="path5551" style="color-rendering:auto;color:#000000;isolation:auto;mix-blend-mode:normal;shape-rendering:auto;solid-color:#000000;image-rendering:auto" d="m416.07 525.13c20.7 10.11 40.13 18.94 58.93 27.15l48.571 16.429c9.4257 1.0457 16.997 0.85503 23.571 0 4.0476-1.4643 8.0952-5.45 12.143-10.714l-1.0714 8.9286c-2.4569 4.4479-7.6011 6.2084-11.786 8.9286-9.1667 1.0924-18.333-0.0431-27.5-1.7857 0.36204 1.0861-36.267-12.939-38.929-14.643-0.81972-0.52488-50.963-19.589-52.143-21.071l-18.571-8.9286"/>
   <path id="path5553" style="color-rendering:auto;color:#000000;isolation:auto;mix-blend-mode:normal;shape-rendering:auto;solid-color:#000000;image-rendering:auto" d="m395.71 560.85c1.7857 0 2.5 3.5714 4.2857 3.9286 1.7857 0.35714 12.5 2.8571 12.5 2.8571 14.15-1.359 27.506-5.1019 40.714-9.2857 17.662-5.9864 35.359-11.188 52.143-18.929 14.597-3.9958 23.413-9.0146 32.5-13.929l4.2857-1.4286 3.9286 4.2857-26.06 13.57c-12.976 5.3929-22.024 9.7089-35 13.214-11.19 5.1498-33.095 11.359-44.286 14.643-10.285 3.2632-22.115 4.2091-34.286 4.6429-5.6719-1.2704-10.134-2.7826-11.071-5z"/>
   <path id="path5614" style="color-rendering:auto;color:#000000;isolation:auto;mix-blend-mode:normal;shape-rendering:auto;solid-color:#000000;image-rendering:auto" d="m382.85 668.53c65.24 18.738 126.96 13.07 186.88 2.5254 16.464 29.529 33.605 70.526 38.891 94.954 4.0733 33.714-7.5113 50.036-22.902 63.318 1.2613-2.0267 1.4245 2.7618-26.621 10.275 0 0-52.887 11.263-72.435 2.0816-5.5073-1.3729-15.196-9.1685-16.938-17.086 0.3328 7.8062-9.2755 15.756-19.698 18.183-24.111 2.26-46.934-1.5919-64.65-9.5964-43.435-22.868-48.074-42.609-44.447-69.195 3.1405-30.259 25.593-62.563 41.921-95.459z"/>
  </g>
 </g>
</svg>
