<?xml version="1.0" encoding="UTF-8" standalone="no"?>
<!-- Created with Inkscape (http://www.inkscape.org/) -->

<svg
   xmlns:osb="http://www.openswatchbook.org/uri/2009/osb"
   xmlns:dc="http://purl.org/dc/elements/1.1/"
   xmlns:cc="http://creativecommons.org/ns#"
   xmlns:rdf="http://www.w3.org/1999/02/22-rdf-syntax-ns#"
   xmlns:svg="http://www.w3.org/2000/svg"
   xmlns="http://www.w3.org/2000/svg"
   xmlns:sodipodi="http://sodipodi.sourceforge.net/DTD/sodipodi-0.dtd"
   xmlns:inkscape="http://www.inkscape.org/namespaces/inkscape"
   width="1000"
   height="1000"
   viewBox="0 0 1000.0002 1000"
   id="svg2"
   version="1.1"
   inkscape:version="0.91 r"
   sodipodi:docname="logo1.svg">
  <defs
     id="defs4">
    <linearGradient
       id="linearGradient6845"
       osb:paint="solid">
      <stop
         style="stop-color:#99ff55;stop-opacity:1;"
         offset="0"
         id="stop6847" />
    </linearGradient>
    <linearGradient
       id="linearGradient6839"
       osb:paint="solid">
      <stop
         style="stop-color:#7fff2a;stop-opacity:1;"
         offset="0"
         id="stop6841" />
    </linearGradient>
    <linearGradient
       id="linearGradient6833"
       osb:paint="solid">
      <stop
         style="stop-color:#99ff55;stop-opacity:1;"
         offset="0"
         id="stop6835" />
    </linearGradient>
    <linearGradient
       id="linearGradient6827"
       osb:paint="solid">
      <stop
         style="stop-color:#99ff55;stop-opacity:1;"
         offset="0"
         id="stop6829" />
    </linearGradient>
    <linearGradient
       id="linearGradient6821"
       osb:paint="solid">
      <stop
         style="stop-color:#99ff55;stop-opacity:1;"
         offset="0"
         id="stop6823" />
    </linearGradient>
    <linearGradient
       id="linearGradient6815"
       osb:paint="solid">
      <stop
         style="stop-color:#99ff55;stop-opacity:1;"
         offset="0"
         id="stop6817" />
    </linearGradient>
    <linearGradient
       id="linearGradient6809"
       osb:paint="solid">
      <stop
         style="stop-color:#abc837;stop-opacity:1;"
         offset="0"
         id="stop6811" />
    </linearGradient>
    <linearGradient
       id="linearGradient6803"
       osb:paint="solid">
      <stop
         style="stop-color:#66ff00;stop-opacity:1;"
         offset="0"
         id="stop6805" />
    </linearGradient>
    <linearGradient
       id="linearGradient6797"
       osb:paint="solid">
      <stop
         style="stop-color:#d4ff2a;stop-opacity:1;"
         offset="0"
         id="stop6799" />
    </linearGradient>
    <linearGradient
       id="linearGradient6791"
       osb:paint="solid">
      <stop
         style="stop-color:#bcd35f;stop-opacity:1;"
         offset="0"
         id="stop6793" />
    </linearGradient>
    <linearGradient
       id="linearGradient6785"
       osb:paint="solid">
      <stop
         style="stop-color:#7fff2a;stop-opacity:1;"
         offset="0"
         id="stop6787" />
    </linearGradient>
    <linearGradient
       id="linearGradient6779"
       osb:paint="solid">
      <stop
         style="stop-color:#99ff55;stop-opacity:1;"
         offset="0"
         id="stop6781" />
    </linearGradient>
    <linearGradient
       id="linearGradient6704"
       osb:paint="solid">
      <stop
         style="stop-color:#000000;stop-opacity:1;"
         offset="0"
         id="stop6706" />
    </linearGradient>
    <linearGradient
       id="linearGradient6667"
       osb:paint="solid">
      <stop
         style="stop-color:#000000;stop-opacity:1;"
         offset="0"
         id="stop6669" />
    </linearGradient>
    <linearGradient
       id="linearGradient6661"
       osb:paint="solid">
      <stop
         style="stop-color:#ff55dd;stop-opacity:1;"
         offset="0"
         id="stop6663" />
    </linearGradient>
  </defs>
  <sodipodi:namedview
     id="base"
     pagecolor="#ffffff"
     bordercolor="#666666"
     borderopacity="1.0"
     inkscape:pageopacity="0.0"
     inkscape:pageshadow="2"
     inkscape:zoom="0.98994948"
     inkscape:cx="266.14706"
     inkscape:cy="77.201654"
     inkscape:document-units="px"
     inkscape:current-layer="layer3"
     showgrid="false"
     inkscape:window-width="1366"
     inkscape:window-height="716"
     inkscape:window-x="0"
     inkscape:window-y="0"
     inkscape:window-maximized="1"
     units="px" />
  <metadata
     id="metadata7">
    <rdf:RDF>
      <cc:Work
         rdf:about="">
        <dc:format>image/svg+xml</dc:format>
        <dc:type
           rdf:resource="http://purl.org/dc/dcmitype/StillImage" />
        <dc:title></dc:title>
      </cc:Work>
    </rdf:RDF>
  </metadata>
  <g
     inkscape:groupmode="layer"
     id="layer3"
     inkscape:label="pelotas"
     style="display:inline"
     transform="translate(0,-62.992012)">
    <ellipse
       style="opacity:1;fill:#4d4d4d;fill-opacity:1;fill-rule:nonzero;stroke:#e6e6e6;stroke-width:2.00000036;stroke-linecap:round;stroke-miterlimit:4;stroke-dasharray:none;stroke-dashoffset:0;stroke-opacity:1"
       id="path5455"
       cx="223.20654"
       cy="321.27747"
       rx="38.652477"
       ry="38.399944" />
    <ellipse
       ry="38.399944"
       rx="38.652477"
       cy="308.65054"
       cx="785.2699"
       id="ellipse5457"
       style="opacity:1;fill:#4d4d4d;fill-opacity:1;fill-rule:nonzero;stroke:#e6e6e6;stroke-width:2.00000036;stroke-linecap:round;stroke-miterlimit:4;stroke-dasharray:none;stroke-dashoffset:0;stroke-opacity:1" />
  </g>
  <g
     inkscape:groupmode="layer"
     id="layer2"
     inkscape:label="linea"
     style="display:inline;opacity:1"
     transform="translate(0,-62.992012)">
    <path
       style="color:#000000;clip-rule:nonzero;display:inline;overflow:visible;visibility:visible;opacity:1;isolation:auto;mix-blend-mode:normal;color-interpolation:sRGB;color-interpolation-filters:linearRGB;solid-color:#000000;solid-opacity:1;fill:#1a1a1a;fill-opacity:1;fill-rule:evenodd;stroke:none;stroke-width:1.00000012px;stroke-linecap:butt;stroke-linejoin:miter;stroke-miterlimit:4;stroke-dasharray:none;stroke-dashoffset:0;stroke-opacity:1;color-rendering:auto;image-rendering:auto;shape-rendering:auto;text-rendering:auto;enable-background:accumulate"
       d="m 538.20826,378.97871 c -4.98821,19.31512 -6.82963,29.94455 -7.07107,42.80893 3.4329,12.02266 10.1036,20.34498 20.20305,24.74873 l 21.2132,11.61676 9.09138,3.53553 13.5145,-1.30601 34.97282,3.83139 c 18.89809,3.14294 34.29777,10.95043 50.50763,17.67767 15.32065,-0.9527 30.64129,-0.8888 45.96194,1.01016 l 24.24366,5.05076 13.13198,-2.02031 24.74874,-67.68022 7.57614,-43.94163 -2.52538,-21.71828 -2.52538,-12.12183 3.03046,-8.08122 -3.53554,-10.10153 c -2.35702,-2.77907 -4.71405,-5.8677 -7.07107,-9.59645 -1.11028,-2.89621 -1.29951,-6.25295 -0.50507,-10.10152 -0.39776,-5.89995 3.29,-5.6716 6.56599,-6.06092 8.47639,2.1536 8.49153,9.38394 12.62691,14.14214 l 4.54568,15.15229 12.12183,-12.12183 -0.50507,-20.20306 -9.59645,-11.11167 -11.61676,-7.07107 0.50508,-5.05076 c 7.74819,3.70758 12.15846,4.07723 18.18275,6.06091 5.18052,8.05659 8.79679,8.29188 13.13198,12.12183 -1.93202,15.78548 2.00376,22.18248 4.54569,30.80965 l 0,5.05077 c -7.74855,16.43262 -11.06328,31.97848 -14.14214,47.47717 -0.0176,42.72544 -3.85292,81.74262 -6.56599,129.8046 -4.30869,11.08708 -7.97786,26.65073 -13.13198,31.8198 l -16.16245,-0.50507 c -22.90057,6.3926 -49.13514,8.33985 -74.75128,11.11168 -31.92133,-0.74027 -59.01178,-6.31143 -87.3782,-10.60661 -25.14705,6.60001 -32.79685,25.73234 -38.17658,44.56927 l -6.56599,48.78319 c -6.448,39.12652 6.13068,70.33939 15.21355,103.98443 12.6429,27.4128 25.24703,56.13361 26.49856,84.49568 2.81,29.7893 -4.55452,47.17489 -18.83575,63.34374 -4.78099,3.3857 -10.30975,8.97068 -21.30421,13.24402 -13.16622,6.85783 -51.53242,1.04278 -67.94636,4.22444 -7.52661,-2.96117 -15.42393,-5.18091 -20.20305,-13.63706 l 0.68891,-4.69362 c -1.12085,10.54596 -12.31243,15.93525 -22.91227,19.84591 -21.027,-0.83326 -41.63553,-2.18719 -59.80821,-10.63199 -24.84793,-7.55621 -35.24278,-28.85324 -39.18674,-53.5127 -3.78065,-36.36549 18.78098,-71.21575 31.81981,-107.58124 16.7297,-29.80317 16.91469,-66.10052 15.65736,-102.53049 0.60171,-14.84987 -5.0515,-29.26677 -10.90246,-45.03845 -8.41527,-16.51544 -10.11409,-35.16715 -37.07978,-49.91589 -2.35989,-0.98285 -8.83521,-1.7522 -16.4583,-0.0867 -20.1541,7.46711 -43.24054,13.76831 -66.87929,18.26941 -33.63728,3.40565 -67.94464,2.79078 -102.53048,0.50507 -10.67763,-27.00553 -16.01553,-57.74887 -17.17259,-91.4188 2.2782,-30.5816 5.97633,-60.21659 11.11167,-88.89343 -3.1462,-14.58409 -4.80453,-32.14389 -6.06091,-50.50762 1.98972,-5.86197 5.2554,-12.99991 10.10152,-21.71828 7.93917,-6.76943 14.107,-11.17707 19.1929,-14.14214 l 18.18275,-2.52538 -1.51523,3.53553 4.04061,5.05077 c -0.58412,5.32424 -6.46736,6.40919 -11.61675,8.08122 L 196.7767,304.6099 c -1.78546,8.75036 -2.7865,11.42285 -5.43329,15.86658 l 1.39268,10.39739 11.11167,5.05076 11.61676,-6.56599 c 2.61566,-7.51881 7.14846,-10.24475 11.61675,-13.13198 3.84274,-0.37663 6.12364,1.5895 8.08122,4.04061 l -5.55584,15.15228 -17.17259,15.65737 c -1.39712,8.60569 -5.08332,15.90332 -13.13198,20.70813 -2.06606,57.76275 3.60602,93.59046 22.22335,125.76399 21.65887,-1.26585 43.18135,-13.6292 68.48116,-16.90211 l 19.90719,-3.30095 c 21.72035,-15.06849 47.24394,-19.1746 77.78175,-26.76903 10.30786,1.42155 17.7843,0.77304 22.72843,3.53553 22.2406,-3.70942 41.71903,-11.43654 53.53808,-30.30458 1.27417,-12.94789 -0.79352,-27.75237 -8.08122,-45.45686 l -0.75889,0.12255 -0.75634,-0.12255 c -5.65797,-8.21367 -11.27665,-16.50592 -14.14213,-30.30458 -1.26291,-8.28385 1.9597,-7.59668 4.31109,-8.65192 -2.20039,-14.66896 -2.22246,-51.14069 9.15265,-63.29299 -3.1667,-13.76122 6.66623,-25.71481 15.32561,-37.65664 17.54982,-7.52932 33.72993,-10.94951 47.47717,-7.07107 21.58368,19.24192 17.83743,25.83635 19.96845,34.46774 20.83722,22.04312 18.84587,49.06701 15.17767,75.82272 5.00666,-2.94943 5.9504,-0.82022 7.28028,0.82632 -4.54761,12.28538 -8.34026,26.45815 -14.64721,34.34519 z"
       id="path5376"
       inkscape:connector-curvature="0"
       sodipodi:nodetypes="cccccccccccccccccccccccccccccccccccccccccccccccccccccccccccccccccccccccccccccccccccccccccccccc" />
    <path
       style="color:#000000;clip-rule:nonzero;display:inline;overflow:visible;visibility:visible;opacity:1;isolation:auto;mix-blend-mode:normal;color-interpolation:sRGB;color-interpolation-filters:linearRGB;solid-color:#000000;solid-opacity:1;fill:#1a1a1a;fill-opacity:1;fill-rule:evenodd;stroke:none;stroke-width:1.00000012px;stroke-linecap:butt;stroke-linejoin:miter;stroke-miterlimit:4;stroke-dasharray:none;stroke-dashoffset:0;stroke-opacity:1;color-rendering:auto;image-rendering:auto;shape-rendering:auto;text-rendering:auto;enable-background:accumulate"
       d="m 508.40876,896.55933 c -9.17593,11.82737 -11.92709,26.60914 -18.18275,30.30458 l 1.2627,36.36549 c 0,0 5.22911,3.96418 7.82867,1.51523 1.94509,-1.83239 0.80278,5.00959 6.56599,6.06092 1.6826,0.30694 12.13255,-2.83907 9.59645,-5.05077 -2.28761,-1.995 2.50395,6.08236 6.81854,2.77793 14.03547,-3.40234 1.37065,-0.0571 12.12183,-2.02031 28.76032,-8.46323 13.43012,-28.46626 15.9099,-57.83124 1.45074,-6.64538 8.08216,-10.27822 10.10152,-14.39467 -17.3077,0.45834 -34.118,-3.55989 -52.02285,2.27284 z"
       id="path5459"
       inkscape:connector-curvature="0"
       sodipodi:nodetypes="cccsssccccc" />
    <path
       style="color:#000000;clip-rule:nonzero;display:inline;overflow:visible;visibility:visible;opacity:1;isolation:auto;mix-blend-mode:normal;color-interpolation:sRGB;color-interpolation-filters:linearRGB;solid-color:#000000;solid-opacity:1;fill:#1a1a1a;fill-opacity:1;fill-rule:evenodd;stroke:none;stroke-width:1.00000012px;stroke-linecap:butt;stroke-linejoin:miter;stroke-miterlimit:4;stroke-dasharray:none;stroke-dashoffset:0;stroke-opacity:1;color-rendering:auto;image-rendering:auto;shape-rendering:auto;text-rendering:auto;enable-background:accumulate"
       d="m 412.44426,888.98319 c 5.33114,6.25744 10.44917,12.62145 13.13199,20.20305 1.75918,16.45571 2.30526,31.69433 6.56599,45.45687 2.18866,3.16516 4.37733,4.72717 6.56599,2.52538 1.24734,3.12999 1.63206,7.12259 6.06092,7.07106 l 4.04061,0 c 3.03046,4.80033 7.07107,4.3848 10.10152,4.54569 4.46986,3.35431 6.97276,4.36995 10.10153,3.03046 5.34042,1.0844 9.61633,0.0398 13.63706,-1.51523 l 2.52538,-4.54569 c 2.71631,-0.0503 5.18393,-0.47368 6.56599,-2.52538 l -0.50508,-36.36549 c -9.42037,-9.1574 -16.67056,-19.12862 -20.70812,-30.30458"
       id="path5461"
       inkscape:connector-curvature="0"
       sodipodi:nodetypes="ccccccccccccc" />
  </g>
  <g
     inkscape:groupmode="layer"
     id="layer4"
     inkscape:label="ropa"
     style="display:inline;opacity:1"
     transform="translate(0,-62.992012)">
    <g
       id="g5708"
       style="fill:#4d4d4d;fill-opacity:1;stroke:#e6e6e6;stroke-opacity:1;stroke-width:1.00000018;stroke-miterlimit:4;stroke-dasharray:none"
       transform="translate(20.000004,54.285724)">
      <path
         sodipodi:nodetypes="cccccccccccccccccccc"
         inkscape:connector-curvature="0"
         id="path5547"
         d="m 530.71429,391.56337 -11.42857,5.35714 c -5.11905,2.70406 -10.95238,7.9026 -16.07143,12.50001 l -23.57143,28.92857 -18.21429,23.92857 -20.71428,26.78571 c -6.49191,8.92857 -14.34849,18.57143 -24.64286,27.50001 L 410,522.6348 c -5.0747,0.46607 -8.82151,2.2936 -16.42858,1.07143 l -11.78571,-5.35714 3.92858,8.21428 c 7.85714,4.04926 15.71428,4.23801 23.57142,3.57143 7.63835,-0.45689 10.74747,-6.87158 15,-10.71429 9.31055,-9.84271 15.30975,-19.20477 21.78572,-27.14285 10.78747,-14.80777 19.7619,-25.35715 30,-38.21429 l 20,-26.07143 L 512.5,410.1348 526.07143,399.77766 537.5,395.1348 Z"
         style="color:#000000;clip-rule:nonzero;display:inline;overflow:visible;visibility:visible;opacity:1;isolation:auto;mix-blend-mode:normal;color-interpolation:sRGB;color-interpolation-filters:linearRGB;solid-color:#000000;solid-opacity:1;fill:#4d4d4d;fill-opacity:1;fill-rule:evenodd;stroke:#e6e6e6;stroke-width:1.00000018;stroke-linecap:butt;stroke-linejoin:miter;stroke-miterlimit:4;stroke-dasharray:none;stroke-dashoffset:0;stroke-opacity:1;color-rendering:auto;image-rendering:auto;shape-rendering:auto;text-rendering:auto;enable-background:accumulate" />
      <path
         sodipodi:nodetypes="ccccccccccccccc"
         inkscape:connector-curvature="0"
         id="path5549"
         d="M 409.28571,394.77766 417.5,391.20623 c 13.75108,9.19589 27.1418,18.57196 37.14286,29.64286 l 36.07143,46.07143 c 9.83128,12.00883 19.20433,23.3303 27.14285,32.49999 13.1534,10.664 21.08975,17.02938 29.64286,23.92858 l 12.85714,-0.71429 5,-3.21428 -2.5,8.57142 -17.14285,0.71429 L 527.5,515.84909 c -5.87972,-3.08906 -11.42698,-9.15871 -18.21429,-16.78572 C 498.23509,489.43615 484.41498,468.5035 472.5,454.42052 l -23.21429,-27.85715 c -9.30535,-11.9379 -25.26062,-21.65915 -40,-31.78571 z"
         style="color:#000000;clip-rule:nonzero;display:inline;overflow:visible;visibility:visible;opacity:1;isolation:auto;mix-blend-mode:normal;color-interpolation:sRGB;color-interpolation-filters:linearRGB;solid-color:#000000;solid-opacity:1;fill:#4d4d4d;fill-opacity:1;fill-rule:evenodd;stroke:#e6e6e6;stroke-width:1.00000018;stroke-linecap:butt;stroke-linejoin:miter;stroke-miterlimit:4;stroke-dasharray:none;stroke-dashoffset:0;stroke-opacity:1;color-rendering:auto;image-rendering:auto;shape-rendering:auto;text-rendering:auto;enable-background:accumulate" />
      <path
         sodipodi:nodetypes="ccccccccscc"
         inkscape:connector-curvature="0"
         id="path5551"
         d="M 416.07143,525.1348 C 436.77101,535.23914 456.20011,544.073 475,552.27766 l 48.57143,16.42857 c 9.4257,1.04571 16.99683,0.85503 23.57143,0 4.04762,-1.46432 8.09524,-5.44997 12.14286,-10.71429 l -1.07143,8.92858 c -2.45688,4.44788 -7.6011,6.20843 -11.78572,8.92857 -9.16667,1.09238 -18.33333,-0.0431 -27.5,-1.78572 0.36204,1.08612 -36.26748,-12.93892 -38.92857,-14.64285 -0.81972,-0.52488 -50.96288,-19.58872 -52.14286,-21.07143 l -18.57143,-8.92857"
         style="color:#000000;clip-rule:nonzero;display:inline;overflow:visible;visibility:visible;opacity:1;isolation:auto;mix-blend-mode:normal;color-interpolation:sRGB;color-interpolation-filters:linearRGB;solid-color:#000000;solid-opacity:1;fill:#4d4d4d;fill-opacity:1;fill-rule:evenodd;stroke:#e6e6e6;stroke-width:1.00000018;stroke-linecap:butt;stroke-linejoin:miter;stroke-miterlimit:4;stroke-dasharray:none;stroke-dashoffset:0;stroke-opacity:1;color-rendering:auto;image-rendering:auto;shape-rendering:auto;text-rendering:auto;enable-background:accumulate" />
      <path
         sodipodi:nodetypes="cscccccccccccc"
         inkscape:connector-curvature="0"
         id="path5553"
         d="m 395.71429,560.84909 c 1.78571,0 2.5,3.57143 4.28571,3.92857 1.78571,0.35714 12.5,2.85714 12.5,2.85714 14.15019,-1.35895 27.50573,-5.10188 40.71429,-9.28571 17.66156,-5.98641 35.3586,-11.18756 52.14286,-18.92857 14.59676,-3.99578 23.41253,-9.01458 32.49999,-13.92858 l 4.28572,-1.42857 3.92857,4.28572 L 520,541.92052 c -12.97619,5.39291 -22.0238,9.70893 -34.99999,13.21428 -11.19048,5.14979 -33.09524,11.35854 -44.28572,14.64286 -10.28485,3.26321 -22.11458,4.20908 -34.28572,4.64286 -5.67189,-1.27038 -10.1345,-2.78262 -11.07143,-5 z"
         style="color:#000000;clip-rule:nonzero;display:inline;overflow:visible;visibility:visible;opacity:1;isolation:auto;mix-blend-mode:normal;color-interpolation:sRGB;color-interpolation-filters:linearRGB;solid-color:#000000;solid-opacity:1;fill:#4d4d4d;fill-opacity:1;fill-rule:evenodd;stroke:#e6e6e6;stroke-width:1.00000018;stroke-linecap:butt;stroke-linejoin:miter;stroke-miterlimit:4;stroke-dasharray:none;stroke-dashoffset:0;stroke-opacity:1;color-rendering:auto;image-rendering:auto;shape-rendering:auto;text-rendering:auto;enable-background:accumulate" />
      <path
         sodipodi:nodetypes="ccccccccccc"
         inkscape:connector-curvature="0"
         id="path5614"
         d="m 382.84782,668.52737 c 65.2405,18.73807 126.96191,13.07039 186.87822,2.52539 16.46374,29.52857 33.60514,70.52641 38.89087,94.95433 4.0733,33.71426 -7.5113,50.03645 -22.90174,63.31837 1.26131,-2.02668 1.42448,2.7618 -26.62111,10.27485 0,0 -52.88749,11.26306 -72.43513,2.08157 -5.50731,-1.37291 -15.19627,-9.16852 -16.93799,-17.08593 0.3328,7.80621 -9.27553,15.75633 -19.69798,18.18274 -24.11097,2.26001 -46.93377,-1.59188 -64.64977,-9.59645 -43.43476,-22.86812 -48.07376,-42.60871 -44.44671,-69.19545 3.14049,-30.25924 25.5931,-62.56263 41.92134,-95.45942 z"
         style="color:#000000;clip-rule:nonzero;display:inline;overflow:visible;visibility:visible;opacity:1;isolation:auto;mix-blend-mode:normal;color-interpolation:sRGB;color-interpolation-filters:linearRGB;solid-color:#000000;solid-opacity:1;fill:#4d4d4d;fill-opacity:1;fill-rule:evenodd;stroke:#e6e6e6;stroke-width:1.00000024;stroke-linecap:butt;stroke-linejoin:miter;stroke-miterlimit:4;stroke-dasharray:none;stroke-dashoffset:0;stroke-opacity:1;color-rendering:auto;image-rendering:auto;shape-rendering:auto;text-rendering:auto;enable-background:accumulate" />
    </g>
  </g>
</svg>
