<?xml version="1.0" encoding="UTF-8" standalone="no"?>
<svg id="svg6894" xmlns:rdf="http://www.w3.org/1999/02/22-rdf-syntax-ns#" xmlns="http://www.w3.org/2000/svg" viewBox="0 0 600.00001 400.00001" height="400" width="600" version="1.1" xmlns:cc="http://creativecommons.org/ns#" xmlns:xlink="http://www.w3.org/1999/xlink" xmlns:dc="http://purl.org/dc/elements/1.1/">
 <defs id="defs6896">
  <linearGradient id="linearGradient4471" y2="210.29" xlink:href="#linearGradient4463" gradientUnits="userSpaceOnUse" y1="210.29" gradientTransform="translate(-82.114 1509.3)" x2="426.11" x1="382.56"/>
  <linearGradient id="linearGradient4463">
   <stop id="stop4465" stop-color="#fafcf2" offset="0"/>
   <stop id="stop4467" stop-color="#fafcf2" stop-opacity="0" offset="1"/>
  </linearGradient>
  <linearGradient id="linearGradient4475" y2="214.53" xlink:href="#linearGradient4463" gradientUnits="userSpaceOnUse" y1="209.58" gradientTransform="translate(-82.114 1509.3)" x2="578.84" x1="466.7"/>
 </defs>
 <metadata id="metadata6899">
  <rdf:RDF>
   <cc:Work rdf:about="">
    <dc:format>image/svg+xml</dc:format>
    <dc:type rdf:resource="http://purl.org/dc/dcmitype/StillImage"/>
    <dc:title/>
   </cc:Work>
  </rdf:RDF>
 </metadata>
 <g id="layer1" transform="translate(0 -652.36)">
  <g id="g6792" transform="translate(79.257 87.849)">
   <g id="g6758" transform="translate(2.8571 2.8571)">
    <g id="g4924" transform="translate(602.05 540.08)">
     <path id="path4726" stroke-linejoin="round" style="color-rendering:auto;color:#000000;isolation:auto;mix-blend-mode:normal;shape-rendering:auto;solid-color:#000000;image-rendering:auto" d="m-265.06 291.04 43.402-44.805c4.0436-4.1743 6.3466-9.334 7.0762-14.66h-142.05c1.6783 3.2534 3.6529 6.5221 5.9258 9.748 2.2729 3.226 4.843 6.4087 7.7129 9.4883s6.0386 6.0567 9.5078 8.8711c1.7346 1.4072 3.5448 2.7732 5.4297 4.0918s3.8454 2.5896 5.8809 3.8047 4.1456 2.3759 6.332 3.4726c2.1864 1.0968 4.4495 2.1302 6.7871 3.0938 2.3376 0.96355 4.7512 1.8564 7.2402 2.6719 2.4891 0.81547 5.0525 1.5525 7.6934 2.2051 2.6408 0.65254 5.3575 1.2206 8.1504 1.6953 2.7929 0.47475 5.6621 0.85658 8.6074 1.1387 2.9453 0.28209 5.9684 0.46449 9.0664 0.53906 3.098 0.0746 6.2725 0.0423 9.5234-0.10547l-6.2891 8.75z" stroke="#535257" stroke-linecap="round" stroke-width="5" fill="#ffad00"/>
     <path id="path4728" stroke-linejoin="round" style="color-rendering:auto;color:#000000;isolation:auto;mix-blend-mode:normal;shape-rendering:auto;solid-color:#000000;image-rendering:auto" d="m-426.67 231.58h-143.71c0.18472 6.5794 2.8223 13.096 7.9453 18.059l33.693 32.639c3.1851-0.00035 6.3228-0.0675 9.3809-0.23243 3.2988-0.17794 6.522-0.44869 9.6699-0.80664 3.148-0.35794 6.2208-0.80216 9.2148-1.3281 2.994-0.52596 5.9092-1.1325 8.7461-1.8145 2.8369-0.68198 5.5949-1.4396 8.2715-2.2656 2.6766-0.82603 5.272-1.7216 7.7852-2.6797 2.5131-0.95807 4.9426-1.9785 7.2891-3.0566s4.6105-2.2142 6.7871-3.4004c2.1767-1.1862 4.2659-2.4228 6.2695-3.7051 2.0037-1.2823 3.9205-2.6102 5.748-3.9766s3.5666-2.7724 5.2148-4.2109 3.2061-2.9096 4.6719-4.4082c1.4657-1.4986 2.839-3.0235 4.1191-4.5703s2.4673-3.1143 3.5586-4.6973c1.0913-1.5829 2.087-3.182 2.9863-4.7891 0.88331-1.5786 1.6682-3.1655 2.3633-4.7559z" stroke="#535257" stroke-linecap="round" stroke-width="5" fill="#ffad00"/>
     <path id="path4730" stroke-linejoin="round" style="color-rendering:auto;color:#000000;isolation:auto;mix-blend-mode:normal;shape-rendering:auto;solid-color:#000000;image-rendering:auto" d="m-426.67 231.58c-0.69506 1.5904-1.48 3.1773-2.3633 4.7559-0.89928 1.6071-1.895 3.2061-2.9863 4.7891s-2.2785 3.1505-3.5586 4.6973-2.6534 3.0717-4.1191 4.5703-3.0236 2.9697-4.6719 4.4082c-1.6482 1.4385-3.3873 2.8445-5.2148 4.2109s-3.7444 2.6943-5.748 3.9766c-2.0037 1.2823-4.0929 2.5189-6.2695 3.7051s-4.4406 2.3222-6.7871 3.4004c-2.3464 1.0781-4.776 2.0986-7.2891 3.0566-2.5131 0.95808-5.1086 1.8537-7.7852 2.6797-2.6766 0.82603-5.4346 1.5836-8.2715 2.2656-2.8369 0.68199-5.7521 1.2885-8.7461 1.8145-2.994 0.52596-6.0669 0.97018-9.2148 1.3281-3.148 0.35795-6.3712 0.6287-9.6699 0.80664-3.0581 0.16497-6.1958 0.23208-9.3809 0.23243l121.62 117.82c10.411 10.085 26.913 9.8214 36.998-0.58984l105.06-108.46 6.2891-8.75c-3.251 0.14782-6.4254 0.18004-9.5234 0.10547-3.098-0.0746-6.1211-0.25697-9.0664-0.53906s-5.8145-0.66392-8.6074-1.1387c-2.7929-0.47475-5.5095-1.0428-8.1504-1.6953-2.6408-0.65255-5.2043-1.3896-7.6934-2.2051-2.4891-0.81548-4.9026-1.7083-7.2402-2.6719-2.3376-0.96354-4.6007-1.997-6.7871-3.0938-2.1864-1.0967-4.2965-2.2576-6.332-3.4726-2.0355-1.2151-3.996-2.4861-5.8809-3.8047s-3.6951-2.6846-5.4297-4.0918c-3.4692-2.8144-6.6379-5.7915-9.5078-8.8711s-5.44-6.2623-7.7129-9.4883-4.2475-6.4946-5.9258-9.748h-70.043z" stroke="#535257" stroke-linecap="round" stroke-width="5" fill="#73d0ef"/>
     <path id="path4732" style="color-rendering:auto;color:#000000;isolation:auto;mix-blend-mode:normal;shape-rendering:auto;solid-color:#000000;image-rendering:auto" stroke-dasharray="10.00000005, 10.00000005" d="m-390.9 235.86v167.14" fill-rule="evenodd" stroke="#fff" stroke-width="5" fill="#fff"/>
     <path id="path4734" stroke-linejoin="round" style="color-rendering:auto;color:#000000;isolation:auto;mix-blend-mode:normal;shape-rendering:auto;solid-color:#000000;image-rendering:auto" d="m-396.18 51.393c-6.6872 0.10637-13.334 2.7749-18.377 7.9805l-148.47 153.27c-5.1226 5.2882-7.5481 12.146-7.3574 18.938h355.8c1.09-7.958-1.4271-16.296-7.6641-22.338l-155.31-150.45c-5.2056-5.0426-11.934-7.499-18.621-7.3926z" stroke="#535257" stroke-linecap="round" stroke-width="5" fill="#ffad00"/>
     <path id="path4736" style="color-rendering:auto;color:#000000;isolation:auto;mix-blend-mode:normal;shape-rendering:auto;solid-color:#000000;image-rendering:auto" d="m-510.34 159.08s42.471 1.8579 44.471-0.14214 22.115-54.698 22.115-54.698l17.914 52.341 19.115-38.37 14.458 40.542 66.426 0.47057 38.975-0.37437 11.803 0.0355 21.722 22.697 26 23.5-341.5 24c-1.3981-15.497 38.963-46.653 58.5-70z" fill-rule="evenodd" stroke="#535257" stroke-width="5" fill="#0a97fb"/>
     <path id="path4738" style="color-rendering:auto;color:#000000;isolation:auto;mix-blend-mode:normal;shape-rendering:auto;solid-color:#000000;image-rendering:auto" d="m-571.05 231.24c52.075-19.549 101.04-42.202 156.51-58.364 19.223 7.8857 25.289 12.246 58.201 26.707 20.383 3.7801 47.112-21.442 90.343-30.586 27.406 23.789 52.327 40.785 50.243 60.707z" fill-rule="evenodd" stroke="#535257" stroke-width="5.1" fill="#f0203d"/>
     <path id="path4740" style="color-rendering:auto;color:#000000;isolation:auto;mix-blend-mode:normal;shape-rendering:auto;solid-color:#000000;image-rendering:auto" d="m-456.57 228.17 8.5673-21.885 9.809 21.758z" fill-rule="evenodd" fill="#73d0ef"/>
     <path id="path4742" style="color-rendering:auto;color:#000000;isolation:auto;mix-blend-mode:normal;shape-rendering:auto;solid-color:#000000;image-rendering:auto" d="m-303.84 227.08 17.25-43 19.75 42.75z" fill-rule="evenodd" stroke="#535257" stroke-width="4" fill="#ffad00"/>
     <path id="path4744" style="color-rendering:auto;color:#000000;isolation:auto;mix-blend-mode:normal;shape-rendering:auto;solid-color:#000000;image-rendering:auto" d="m-411.32 228.49 17.25-43 19.75 42.75z" fill-rule="evenodd" stroke="#535257" stroke-width="4" fill="#ffad00"/>
     <path id="path4746" style="color-rendering:auto;color:#000000;isolation:auto;mix-blend-mode:normal;shape-rendering:auto;solid-color:#000000;image-rendering:auto" d="m-301.04 256.09-14 0.5 14 0.5z" fill-rule="evenodd" stroke="#535257" stroke-width="3" fill="#535257"/>
     <path id="path4748" style="color-rendering:auto;color:#000000;isolation:auto;mix-blend-mode:normal;shape-rendering:auto;solid-color:#000000;image-rendering:auto" d="m-472.29 254.84-14 0.5 14 0.5z" fill-rule="evenodd" stroke="#535257" stroke-width="3" fill="#535257"/>
     <path id="path4750" stroke-linejoin="round" style="color-rendering:auto;color:#000000;isolation:auto;mix-blend-mode:normal;shape-rendering:auto;solid-color:#000000;image-rendering:auto" d="m-417.62 180.17c0-4.9506-3.9504-8.9363-8.8571-8.9363h-56.935c-4.9067 0-8.8571 3.9857-8.8571 8.9363v102.13c0 4.9505 3.9504 8.9363 8.8571 8.9363h56.935c4.9067 0 8.8571-3.9858 8.8571-8.9363v-102.13zm-4.8377 6.0645v89.998c0 4.9505-3.9492 8.935-8.8558 8.935h-47.262c-4.9067 0-8.8558-3.9845-8.8558-8.935v-89.998c0-4.9506 3.9492-8.9363 8.8558-8.9363h47.262c4.9067 0 8.8558 3.9857 8.8558 8.9363z" stroke="#535257" stroke-linecap="round" stroke-width="3" fill="#f0203d"/>
     <path id="path4838" style="color-rendering:auto;color:#000000;isolation:auto;mix-blend-mode:normal;shape-rendering:auto;solid-color:#000000;image-rendering:auto" d="m-340.45 227.87 8.5673-21.885 9.809 21.758z" fill-rule="evenodd" fill="#ffad00"/>
     <path id="path4840" style="color-rendering:auto;color:#000000;isolation:auto;mix-blend-mode:normal;shape-rendering:auto;solid-color:#000000;image-rendering:auto" d="m-443.7 106.31-7.7626 23.945 4.7626-6.2071 1.8536 8.0303 2.8839-8.8536 5.6464 10.677z" fill-rule="evenodd" fill="#f3fbd3"/>
     <path id="path4842" style="color-rendering:auto;color:#000000;isolation:auto;mix-blend-mode:normal;shape-rendering:auto;solid-color:#000000;image-rendering:auto" d="m-407.28 123.58 6.0836 17.632-4.9498-4.6846-1.4142 5.8336-2.2981-6.1872-6.1872 6.0988z" fill-rule="evenodd" fill="#f3fbd3"/>
     <path id="path4844" style="color-rendering:auto;color:#000000;isolation:auto;mix-blend-mode:normal;shape-rendering:auto;solid-color:#000000;image-rendering:auto" d="m-268.84 261.08 14-0.5-14-0.5z" fill-rule="evenodd" stroke="#535257" stroke-width="3" fill="#535257"/>
     <path id="path4846" style="color-rendering:auto;color:#000000;isolation:auto;mix-blend-mode:normal;shape-rendering:auto;solid-color:#000000;image-rendering:auto" d="m-274.79 249.58-14 0.5 14 0.5z" fill-rule="evenodd" stroke="#535257" stroke-width="3" fill="#535257"/>
     <path id="path4848" style="color-rendering:auto;color:#000000;isolation:auto;mix-blend-mode:normal;shape-rendering:auto;solid-color:#000000;image-rendering:auto" d="m-256.29 241.58-14 0.5 14 0.5z" fill-rule="evenodd" stroke="#535257" stroke-width="3" fill="#535257"/>
     <path id="path4850" style="color-rendering:auto;color:#000000;isolation:auto;mix-blend-mode:normal;shape-rendering:auto;solid-color:#000000;image-rendering:auto" d="m-515.29 248.58-14 0.5 14 0.5z" fill-rule="evenodd" stroke="#535257" stroke-width="3" fill="#535257"/>
     <path id="path4852" style="color-rendering:auto;color:#000000;isolation:auto;mix-blend-mode:normal;shape-rendering:auto;solid-color:#000000;image-rendering:auto" d="m-511.84 261.58 14-0.5-14-0.5z" fill-rule="evenodd" stroke="#535257" stroke-width="3" fill="#535257"/>
     <path id="path4854" style="color-rendering:auto;color:#000000;isolation:auto;mix-blend-mode:normal;shape-rendering:auto;solid-color:#000000;image-rendering:auto" d="m-493.79 241.58-14 0.5 14 0.5z" fill-rule="evenodd" stroke="#535257" stroke-width="3" fill="#535257"/>
     <path id="path4856" style="color-rendering:auto;color:#000000;isolation:auto;mix-blend-mode:normal;shape-rendering:auto;solid-color:#000000;image-rendering:auto" d="m-314.04 240.84-14 0.5 14 0.5z" fill-rule="evenodd" stroke="#535257" stroke-width="3" fill="#535257"/>
     <path id="path4858" style="color-rendering:auto;color:#000000;isolation:auto;mix-blend-mode:normal;shape-rendering:auto;solid-color:#000000;image-rendering:auto" d="m-457.19 242.05-14 0.5 14 0.5z" fill-rule="evenodd" stroke="#535257" stroke-width="3" fill="#535257"/>
     <ellipse id="ellipse4868" fill-rule="evenodd" rx="4.25" ry="4.5" stroke="#f3fbd3" cy="215.58" cx="-392.59" fill="#f3fbd3"/>
     <ellipse id="ellipse4870" fill-rule="evenodd" rx="4.5" ry="4.25" stroke="#f3fbd3" cy="214.33" cx="-284.84" fill="#f3fbd3"/>
     <path id="path4868" stroke-linejoin="round" style="color-rendering:auto;color:#000000;isolation:auto;mix-blend-mode:normal;shape-rendering:auto;solid-color:#000000;image-rendering:auto" d="m-296 180.17c0-4.9506-3.9504-8.9363-8.8571-8.9363h-56.935c-4.9067 0-8.8571 3.9857-8.8571 8.9363v102.13c0 4.9505 3.9504 8.9363 8.8571 8.9363h56.935c4.9067 0 8.8571-3.9858 8.8571-8.9363v-102.13zm-4.8377 6.0645v89.998c0 4.9505-3.9492 8.935-8.8558 8.935h-47.262c-4.9067 0-8.8558-3.9845-8.8558-8.935v-89.998c0-4.9506 3.9492-8.9363 8.8558-8.9363h47.262c4.9067 0 8.8558 3.9857 8.8558 8.9363z" stroke="#535257" stroke-linecap="round" stroke-width="3" fill="#f0203d"/>
     <ellipse id="path4870" rx="15.556" ry="18.031" cy="108.02" cx="-374.06" fill="none"/>
     <ellipse id="path4872" fill-rule="evenodd" rx="20.224" ry="20.468" cy="121.85" cx="-357.51" fill="#ff4900"/>
    </g>
    <path id="path4461" opacity=".5" style="color-rendering:auto;color:#000000;isolation:auto;mix-blend-mode:normal;shape-rendering:auto;solid-color:#000000;image-rendering:auto" d="m155.93 733.19c-8.491 2.9626-18.879 3.5739-23.122 10.133-1.7718 8.0065 7.7422 9.4791 16.813 11.208-11.963 0.14167-20.202 2.1451-19.303 8.7177-5.8356 7.1645-3.0225 11.818 9.3404 13.699-22.146 6.7891 9.0259 11.265 7.5825 19.689-7.5125 4.5586-20.182 11.494-14.697 12.691l28.286-0.62269c4.0678-2.4887 8.3276-4.8333 3.2462-14.184-6.4554-7.5974-27.692-8.6531 0.48994-18.819-0.60833-9.9178-8.215-8.1718-13.699-9.9631 11.55-7.521 10.778-9.2916 14.322-13.077 3.7169-12.613-9.9244-7.8671-16.731-9.9566-4.4526-3.1721 4.0188-6.3442 7.4723-9.5163z" fill-rule="evenodd" fill="url(#linearGradient4471)"/>
    <path id="path4473" opacity=".7" style="color-rendering:auto;color:#000000;isolation:auto;mix-blend-mode:normal;shape-rendering:auto;solid-color:#000000;image-rendering:auto" d="m280.01 732.09c-8.491 2.9626-18.879 3.5739-23.122 10.133-1.7718 8.0065 7.7422 9.4791 16.813 11.208-11.963 0.14167-20.202 2.1451-19.303 8.7177-5.8356 7.1645-3.0225 11.818 9.3404 13.699-22.146 6.7891-17.491 18.336-7.6203 20.042-8.2196 4.5586 4.9205 13.262 10.406 14.459l12.376 0.0844c4.0678-2.4887 14.338-7.6617 9.2566-17.012-6.4554-7.5974-27.692-8.6531 0.48994-18.819-0.60833-9.9178-8.215-8.1718-13.699-9.9631 11.55-7.521 10.778-9.2916 14.322-13.077 3.7169-12.613-9.9244-7.8671-16.731-9.9566-4.4526-3.1721 4.0188-6.3442 7.4723-9.5163z" fill-rule="evenodd" fill="url(#linearGradient4475)"/>
   </g>
   <text id="text4477" style="word-spacing:0px;letter-spacing:0px;text-anchor:middle;text-align:center" font-weight="bold" xml:space="preserve" font-size="30px" font-stretch="condensed" line-height="125%" y="874.58386" x="209.30104" font-family="&apos;Open Sans Condensed&apos;" fill="#000000"><tspan id="tspan4479" style="text-anchor:middle;text-align:center" font-weight="bold" font-size="35px" font-stretch="condensed" line-height="125%" y="874.58386" x="209.30104" font-family="&apos;Open Sans Condensed&apos;" fill="#535257">RESPONSIVE</tspan></text>
  </g>
  <g id="g8288" transform="translate(-545.48 -165.67)">
   <path id="path5080" stroke-linejoin="round" style="color-rendering:auto;color:#000000;isolation:auto;mix-blend-mode:normal;shape-rendering:auto;solid-color:#000000;image-rendering:auto" d="m-511.4 678.03h-143.71c0.1847 6.5794 2.8223 13.096 7.9453 18.059l33.693 32.639c3.1851-0.00035 6.3228-0.0675 9.3809-0.23243 3.2988-0.17794 6.5219-0.44869 9.6699-0.80664 3.148-0.35794 6.2209-0.80216 9.2149-1.3281 2.994-0.52596 5.9092-1.1325 8.7461-1.8145 2.8368-0.68198 5.5949-1.4396 8.2714-2.2656 2.6766-0.82603 5.2721-1.7216 7.7852-2.6797 2.5131-0.95807 4.9426-1.9785 7.2891-3.0566 2.3464-1.0781 4.6104-2.2142 6.7871-3.4004 2.1766-1.1862 4.2658-2.4228 6.2695-3.7051s3.9205-2.6102 5.748-3.9766c1.8276-1.3664 3.5667-2.7724 5.2149-4.2109s3.2061-2.9096 4.6719-4.4082c1.4657-1.4986 2.839-3.0235 4.1191-4.5703s2.4673-3.1143 3.5586-4.6973c1.0913-1.5829 2.087-3.182 2.9863-4.7891 0.8833-1.5786 1.6683-3.1655 2.3633-4.7559z" stroke="#535257" stroke-linecap="round" stroke-width="5" fill="#ffad00"/>
   <path id="path5078" stroke-linejoin="round" style="color-rendering:auto;color:#000000;isolation:auto;mix-blend-mode:normal;shape-rendering:auto;solid-color:#000000;image-rendering:auto" d="m-349.79 737.49 43.402-44.805c4.0435-4.1743 6.3466-9.334 7.0762-14.66h-142.05c1.6783 3.2534 3.6529 6.5221 5.9258 9.748 2.2729 3.226 4.843 6.4087 7.7129 9.4883 2.8698 3.0796 6.0385 6.0567 9.5078 8.8711 1.7346 1.4072 3.5447 2.7732 5.4297 4.0918 1.8849 1.3186 3.8453 2.5896 5.8808 3.8047s4.1457 2.3759 6.3321 3.4726c2.1863 1.0968 4.4495 2.1302 6.7871 3.0938 2.3375 0.96355 4.7511 1.8564 7.2402 2.6719 2.4891 0.81547 5.0525 1.5525 7.6934 2.2051 2.6408 0.65254 5.3574 1.2206 8.1503 1.6953 2.793 0.47475 5.6622 0.85658 8.6075 1.1387 2.9453 0.28209 5.9684 0.46449 9.0664 0.53906 3.098 0.0746 6.2724 0.0423 9.5234-0.10547l-6.2891 8.75z" stroke="#535257" stroke-linecap="round" stroke-width="5" fill="#ffad00"/>
   <path id="path5082" stroke-linejoin="round" style="color-rendering:auto;color:#000000;isolation:auto;mix-blend-mode:normal;shape-rendering:auto;solid-color:#000000;image-rendering:auto" d="m-511.4 678.03c-0.695 1.5904-1.48 3.1773-2.3633 4.7559-0.8992 1.6071-1.895 3.2061-2.9863 4.7891s-2.2785 3.1505-3.5586 4.6973-2.6534 3.0717-4.1191 4.5703c-1.4658 1.4986-3.0237 2.9697-4.6719 4.4082s-3.3873 2.8445-5.2148 4.2109c-1.8276 1.3664-3.7444 2.6943-5.7481 3.9766s-4.0929 2.5189-6.2695 3.7051c-2.1767 1.1862-4.4407 2.3222-6.7871 3.4004-2.3465 1.0781-4.776 2.0986-7.2891 3.0566-2.5131 0.95808-5.1086 1.8537-7.7851 2.6797-2.6766 0.82603-5.4347 1.5836-8.2715 2.2656-2.8369 0.68199-5.7521 1.2885-8.7461 1.8145-2.994 0.52596-6.0669 0.97018-9.2149 1.3281-3.1479 0.35795-6.3711 0.6287-9.6699 0.80664-3.0581 0.16497-6.1958 0.23208-9.3809 0.23243l121.62 117.82c10.411 10.085 26.913 9.8214 36.998-0.58984l105.06-108.46 6.2891-8.75c-3.251 0.14782-6.4254 0.18004-9.5234 0.10547-3.098-0.0746-6.1211-0.25697-9.0664-0.53906s-5.8145-0.66392-8.6075-1.1387c-2.7929-0.47475-5.5095-1.0428-8.1503-1.6953-2.6409-0.65255-5.2043-1.3896-7.6934-2.2051-2.4891-0.81548-4.9027-1.7083-7.2402-2.6719-2.3376-0.96354-4.6008-1.997-6.7871-3.0938-2.1864-1.0967-4.2966-2.2576-6.3321-3.4726-2.0355-1.2151-3.9959-2.4861-5.8808-3.8047-1.885-1.3186-3.6951-2.6846-5.4297-4.0918-3.4693-2.8144-6.638-5.7915-9.5078-8.8711-2.8699-3.0796-5.44-6.2623-7.7129-9.4883s-4.2475-6.4946-5.9258-9.748h-70.043z" stroke="#535257" stroke-linecap="round" stroke-width="5" fill="#73d0ef"/>
   <path id="path5084" style="color-rendering:auto;color:#000000;isolation:auto;mix-blend-mode:normal;shape-rendering:auto;solid-color:#000000;image-rendering:auto" stroke-dasharray="10.00000005, 10.00000005" d="m-475.64 682.31v167.14" fill-rule="evenodd" stroke="#fff" stroke-width="5" fill="#fff"/>
   <path id="path5086" stroke-linejoin="round" style="color-rendering:auto;color:#000000;isolation:auto;mix-blend-mode:normal;shape-rendering:auto;solid-color:#000000;image-rendering:auto" d="m-480.92 497.84c-6.6872 0.10637-13.334 2.7749-18.377 7.9805l-148.47 153.27c-5.1226 5.2882-7.5481 12.146-7.3574 18.938h355.8c1.09-7.958-1.4271-16.296-7.6641-22.338l-155.32-150.46c-5.2056-5.0426-11.934-7.499-18.621-7.3926z" stroke="#535257" stroke-linecap="round" stroke-width="5" fill="#0a97fb"/>
   <path id="path5098" style="color-rendering:auto;color:#000000;isolation:auto;mix-blend-mode:normal;shape-rendering:auto;solid-color:#000000;image-rendering:auto" d="m-385.78 702.54-14 0.5 14 0.5z" fill-rule="evenodd" stroke="#535257" stroke-width="3" fill="#535257"/>
   <path id="path5100" style="color-rendering:auto;color:#000000;isolation:auto;mix-blend-mode:normal;shape-rendering:auto;solid-color:#000000;image-rendering:auto" d="m-557.03 701.29-14 0.5 14 0.5z" fill-rule="evenodd" stroke="#535257" stroke-width="3" fill="#535257"/>
   <path id="path4645" d="m2466 29.362-15.892-6.387-11.762 12.45 1.1634-17.088-15.476-7.3392 16.611-4.1741 2.1978-16.986 9.1029 14.509 16.834-3.1588-10.985 13.141z" fill-rule="evenodd" transform="matrix(.26583 .070467 -.070467 .26583 -1149.8 372.36)" fill="#f3fbd3"/>
   <path id="path4647" d="m2466 29.362-15.892-6.387-11.762 12.45 1.1634-17.088-15.476-7.3392 16.611-4.1741 2.1978-16.986 9.1029 14.509 16.834-3.1588-10.985 13.141z" fill-rule="evenodd" transform="matrix(.31510 .083529 -.083529 .31510 -1235.6 361.7)" fill="#f3fbd3"/>
   <path id="path4649" d="m2466 29.362-15.892-6.387-11.762 12.45 1.1634-17.088-15.476-7.3392 16.611-4.1741 2.1978-16.986 9.1029 14.509 16.834-3.1588-10.985 13.141z" fill-rule="evenodd" transform="matrix(.26583 .070467 -.070467 .26583 -1171.1 412.11)" fill="#f3fbd3"/>
   <path id="path4651" d="m2466 29.362-15.892-6.387-11.762 12.45 1.1634-17.088-15.476-7.3392 16.611-4.1741 2.1978-16.986 9.1029 14.509 16.834-3.1588-10.985 13.141z" fill-rule="evenodd" transform="matrix(.34248 .090785 -.090785 .34248 -1269.5 360.51)" fill="#f3fbd3"/>
   <path id="path4653" d="m2466 29.362-15.892-6.387-11.762 12.45 1.1634-17.088-15.476-7.3392 16.611-4.1741 2.1978-16.986 9.1029 14.509 16.834-3.1588-10.985 13.141z" fill-rule="evenodd" transform="matrix(.26583 .070467 -.070467 .26583 -1125.6 436.11)" fill="#f3fbd3"/>
   <path id="path4655" d="m2466 29.362-15.892-6.387-11.762 12.45 1.1634-17.088-15.476-7.3392 16.611-4.1741 2.1978-16.986 9.1029 14.509 16.834-3.1588-10.985 13.141z" fill-rule="evenodd" transform="matrix(.19116 .050673 -.050673 .19116 -920.26 415.59)" fill="#f3fbd3"/>
   <path id="path4657" d="m2466 29.362-15.892-6.387-11.762 12.45 1.1634-17.088-15.476-7.3392 16.611-4.1741 2.1978-16.986 9.1029 14.509 16.834-3.1588-10.985 13.141z" fill-rule="evenodd" transform="matrix(.19116 .050673 -.050673 .19116 -857.33 477.81)" fill="#f3fbd3"/>
   <path id="path4659" d="m2466 29.362-15.892-6.387-11.762 12.45 1.1634-17.088-15.476-7.3392 16.611-4.1741 2.1978-16.986 9.1029 14.509 16.834-3.1588-10.985 13.141z" fill-rule="evenodd" transform="matrix(.19116 .050673 -.050673 .19116 -1022.8 479.23)" fill="#f3fbd3"/>
   <path id="path4661" d="m2466 29.362-15.892-6.387-11.762 12.45 1.1634-17.088-15.476-7.3392 16.611-4.1741 2.1978-16.986 9.1029 14.509 16.834-3.1588-10.985 13.141z" fill-rule="evenodd" transform="matrix(.19116 .050673 -.050673 .19116 -819.85 502.56)" fill="#f3fbd3"/>
   <path id="path4663" d="m2466 29.362-15.892-6.387-11.762 12.45 1.1634-17.088-15.476-7.3392 16.611-4.1741 2.1978-16.986 9.1029 14.509 16.834-3.1588-10.985 13.141z" fill-rule="evenodd" transform="matrix(.26583 .070467 -.070467 .26583 -1160.5 449.59)" fill="#f3fbd3"/>
   <path id="path4639" stroke-linejoin="round" style="color-rendering:auto;color:#000000;isolation:auto;mix-blend-mode:normal;shape-rendering:auto;solid-color:#000000;image-rendering:auto" d="m-557.91 593.67c-7.8348 0-14.143 6.3078-14.143 14.143v90.912c0 7.8347 6.3078 14.143 14.143 14.143h161.62c7.8347 0 14.142-6.3078 14.142-14.143v-90.912c0-7.8347-6.3078-14.143-14.142-14.143h-161.62zm9.5976 7.7246h142.43c7.8347 0 14.141 6.3059 14.141 14.141v75.467c0 7.8348-6.3059 14.141-14.141 14.141h-142.43c-7.8347 0-14.143-6.3059-14.143-14.141v-75.467c0-7.8348 6.3079-14.141 14.143-14.141z" stroke="#535257" stroke-linecap="round" stroke-width="5" fill="#f0203d"/>
   <path id="path5196" style="color-rendering:auto;color:#000000;isolation:auto;mix-blend-mode:normal;shape-rendering:auto;solid-color:#000000;image-rendering:auto" d="m-353.58 707.53 14-0.5-14-0.5z" fill-rule="evenodd" stroke="#535257" stroke-width="3" fill="#535257"/>
   <path id="path5198" style="color-rendering:auto;color:#000000;isolation:auto;mix-blend-mode:normal;shape-rendering:auto;solid-color:#000000;image-rendering:auto" d="m-359.52 696.03-14 0.5 14 0.5z" fill-rule="evenodd" stroke="#535257" stroke-width="3" fill="#535257"/>
   <path id="path5200" style="color-rendering:auto;color:#000000;isolation:auto;mix-blend-mode:normal;shape-rendering:auto;solid-color:#000000;image-rendering:auto" d="m-341.02 688.03-14 0.5 14 0.5z" fill-rule="evenodd" stroke="#535257" stroke-width="3" fill="#535257"/>
   <path id="path5202" style="color-rendering:auto;color:#000000;isolation:auto;mix-blend-mode:normal;shape-rendering:auto;solid-color:#000000;image-rendering:auto" d="m-600.02 695.03-14 0.5 14 0.5z" fill-rule="evenodd" stroke="#535257" stroke-width="3" fill="#535257"/>
   <path id="path5204" style="color-rendering:auto;color:#000000;isolation:auto;mix-blend-mode:normal;shape-rendering:auto;solid-color:#000000;image-rendering:auto" d="m-596.58 708.03 14-0.5-14-0.5z" fill-rule="evenodd" stroke="#535257" stroke-width="3" fill="#535257"/>
   <path id="path5206" style="color-rendering:auto;color:#000000;isolation:auto;mix-blend-mode:normal;shape-rendering:auto;solid-color:#000000;image-rendering:auto" d="m-578.52 688.03-14 0.5 14 0.5z" fill-rule="evenodd" stroke="#535257" stroke-width="3" fill="#535257"/>
   <path id="path5208" style="color-rendering:auto;color:#000000;isolation:auto;mix-blend-mode:normal;shape-rendering:auto;solid-color:#000000;image-rendering:auto" d="m-398.78 687.29-14 0.5 14 0.5z" fill-rule="evenodd" stroke="#535257" stroke-width="3" fill="#535257"/>
   <path id="path5210" style="color-rendering:auto;color:#000000;isolation:auto;mix-blend-mode:normal;shape-rendering:auto;solid-color:#000000;image-rendering:auto" d="m-541.92 688.5-14 0.5 14 0.5z" fill-rule="evenodd" stroke="#535257" stroke-width="3" fill="#535257"/>
   <path id="path4677" stroke-linejoin="round" style="color-rendering:auto;color:#000000;isolation:auto;mix-blend-mode:normal;shape-rendering:auto;solid-color:#000000;image-rendering:auto" d="m-531.53 614.42c-5.277 0-9.5255 4.2172-9.5255 9.4552v60.78c0 5.238 4.2485 9.4552 9.5255 9.4552h108.86c5.2769 0 9.5254-4.2172 9.5254-9.4552v-60.78c0-5.238-4.2485-9.4552-9.5254-9.4552h-108.86zm6.4642 5.1644h95.932c5.2769 0 9.5241 4.2159 9.5241 9.4539v50.454c0 5.238-4.2472 9.4539-9.5241 9.4539h-95.932c-5.2769 0-9.5254-4.2159-9.5254-9.4539v-50.454c0-5.238 4.2485-9.4539 9.5254-9.4539z" stroke="#535257" stroke-linecap="round" stroke-width="5" fill="#f0203d"/>
   <path id="path4482" style="color-rendering:auto;color:#000000;isolation:auto;mix-blend-mode:normal;shape-rendering:auto;solid-color:#000000;image-rendering:auto" d="m-512.76 674.11 14.319-46.139 15.099 46.294-29.418-0.15541z" fill-rule="evenodd" fill="#73d0ef"/>
   <path id="path4486" style="color-rendering:auto;color:#000000;isolation:auto;mix-blend-mode:normal;shape-rendering:auto;solid-color:#000000;image-rendering:auto" d="m-454.07 674.18 14.319-27.463 15.099 27.556-29.418-0.0925z" fill-rule="evenodd" stroke="#535257" stroke-width="4" fill="#0a97fb"/>
   <path id="path4490" style="color-rendering:auto;color:#000000;isolation:auto;mix-blend-mode:normal;shape-rendering:auto;solid-color:#000000;image-rendering:auto" d="m-546.35 702.73 21.891-53.538 23.084 53.719-44.974-0.18033z" fill-rule="evenodd" stroke="#535257" stroke-width="4" fill="#73d0ef"/>
   <path id="path4494" style="color-rendering:auto;color:#000000;isolation:auto;mix-blend-mode:normal;shape-rendering:auto;solid-color:#000000;image-rendering:auto" d="m-490.02 702.78 18.912-36.272 19.943 36.395-38.854-0.12218z" fill-rule="evenodd" fill="#0a97fb"/>
   <path id="path4498" style="color-rendering:auto;color:#000000;isolation:auto;mix-blend-mode:normal;shape-rendering:auto;solid-color:#000000;image-rendering:auto" d="m-439.57 702.81 14.319-27.463 15.099 27.556-29.418-0.0925z" fill-rule="evenodd" fill="#f0203d"/>
   <g id="g4643" fill-rule="evenodd" fill="#f3fbd3" transform="translate(-2972.6 554.25)">
    <path id="path4613" d="m2466 29.362-15.892-6.387-11.762 12.45 1.1634-17.088-15.476-7.3392 16.611-4.1741 2.1978-16.986 9.1029 14.509 16.834-3.1588-10.985 13.141z" transform="matrix(.18337 .048608 -.048608 .18337 2065.4 -40.478)"/>
    <path id="path4615" d="m2466 29.362-15.892-6.387-11.762 12.45 1.1634-17.088-15.476-7.3392 16.611-4.1741 2.1978-16.986 9.1029 14.509 16.834-3.1588-10.985 13.141z" transform="matrix(.21736 .057618 -.057618 .21736 1969.2 -37.829)"/>
    <path id="path4617" d="m2466 29.362-15.892-6.387-11.762 12.45 1.1634-17.088-15.476-7.3392 16.611-4.1741 2.1978-16.986 9.1029 14.509 16.834-3.1588-10.985 13.141z" transform="matrix(.18337 .048608 -.048608 .18337 2065 -28.368)"/>
    <path id="path4619" d="m2466 29.362-15.892-6.387-11.762 12.45 1.1634-17.088-15.476-7.3392 16.611-4.1741 2.1978-16.986 9.1029 14.509 16.834-3.1588-10.985 13.141z" transform="matrix(.23624 .062623 -.062623 .23624 1967.7 -61.843)"/>
    <path id="path4621" d="m2466 29.362-15.892-6.387-11.762 12.45 1.1634-17.088-15.476-7.3392 16.611-4.1741 2.1978-16.986 9.1029 14.509 16.834-3.1588-10.985 13.141z" transform="matrix(.18337 .048608 -.048608 .18337 2012.2 -33.379)"/>
    <path id="path4623" d="m2466 29.362-15.892-6.387-11.762 12.45 1.1634-17.088-15.476-7.3392 16.611-4.1741 2.1978-16.986 9.1029 14.509 16.834-3.1588-10.985 13.141z" transform="matrix(.19116 .050673 -.050673 .19116 2060.1 -52.039)"/>
    <path id="path4625" d="m2466 29.362-15.892-6.387-11.762 12.45 1.1634-17.088-15.476-7.3392 16.611-4.1741 2.1978-16.986 9.1029 14.509 16.834-3.1588-10.985 13.141z" transform="matrix(.13186 .034954 -.034954 .13186 2128.3 -7.0876)"/>
    <path id="path4627" d="m2466 29.362-15.892-6.387-11.762 12.45 1.1634-17.088-15.476-7.3392 16.611-4.1741 2.1978-16.986 9.1029 14.509 16.834-3.1588-10.985 13.141z" transform="matrix(.13186 .034954 -.034954 .13186 2183.2 -14.951)"/>
    <path id="path4629" d="m2466 29.362-15.892-6.387-11.762 12.45 1.1634-17.088-15.476-7.3392 16.611-4.1741 2.1978-16.986 9.1029 14.509 16.834-3.1588-10.985 13.141z" transform="matrix(.13186 .034954 -.034954 .13186 2219 -5.6658)"/>
    <path id="path4631" d="m2466 29.362-15.892-6.387-11.762 12.45 1.1634-17.088-15.476-7.3392 16.611-4.1741 2.1978-16.986 9.1029 14.509 16.834-3.1588-10.985 13.141z" transform="matrix(.18337 .048608 -.048608 .18337 2042.7 -37.965)"/>
   </g>
   <text id="text4655" style="word-spacing:0px;letter-spacing:0px;text-anchor:middle;text-align:center" font-weight="bold" xml:space="preserve" font-size="17.5px" font-stretch="condensed" line-height="125%" y="780.93958" x="-477.08002" font-family="&apos;Open Sans Condensed&apos;" fill="#535257"><tspan id="tspan4657" style="text-anchor:middle;text-align:center" font-weight="bold" font-size="35px" font-stretch="condensed" line-height="125%" y="780.93958" x="-477.08002" font-family="&apos;Open Sans Condensed&apos;" fill="#535257">DESIGN</tspan></text>
   <ellipse id="path4681" fill-rule="evenodd" rx="5.6569" ry="6.0104" stroke="#008000" cy="688.43" cx="-524.6" stroke-width="4" fill="#f3fbd3"/>
   <ellipse id="path4683" fill-rule="evenodd" rx="4.5962" ry="4.4069" cy="666.7" cx="-498.09" fill="#f3fbd3"/>
   <ellipse id="path4685" fill-rule="evenodd" rx="5.864" ry="5.6569" cy="691.61" cx="-471.07" fill="#f3fbd3"/>
   <path id="path8238" d="m2466 29.362-15.892-6.387-11.762 12.45 1.1634-17.088-15.476-7.3392 16.611-4.1741 2.1978-16.986 9.1029 14.509 16.834-3.1588-10.985 13.141z" fill-rule="evenodd" transform="matrix(.26583 .070467 -.070467 .26583 -1246.8 468.33)" fill="#f3fbd3"/>
   <path id="path8240" d="m2466 29.362-15.892-6.387-11.762 12.45 1.1634-17.088-15.476-7.3392 16.611-4.1741 2.1978-16.986 9.1029 14.509 16.834-3.1588-10.985 13.141z" fill-rule="evenodd" transform="matrix(.31510 .083529 -.083529 .31510 -1113.4 450.6)" fill="#f3fbd3"/>
   <path id="path8242" d="m2466 29.362-15.892-6.387-11.762 12.45 1.1634-17.088-15.476-7.3392 16.611-4.1741 2.1978-16.986 9.1029 14.509 16.834-3.1588-10.985 13.141z" fill-rule="evenodd" transform="matrix(.19116 .050673 -.050673 .19116 -1093.6 537.92)" fill="#f3fbd3"/>
   <path id="path8244" d="m2466 29.362-15.892-6.387-11.762 12.45 1.1634-17.088-15.476-7.3392 16.611-4.1741 2.1978-16.986 9.1029 14.509 16.834-3.1588-10.985 13.141z" fill-rule="evenodd" transform="matrix(.19116 .050673 -.050673 .19116 -1053.6 537.82)" fill="#f3fbd3"/>
   <path id="path8246" d="m2466 29.362-15.892-6.387-11.762 12.45 1.1634-17.088-15.476-7.3392 16.611-4.1741 2.1978-16.986 9.1029 14.509 16.834-3.1588-10.985 13.141z" fill-rule="evenodd" transform="matrix(.26583 .070467 -.070467 .26583 -1052.9 467.31)" fill="#f3fbd3"/>
   <path id="path8248" d="m2466 29.362-15.892-6.387-11.762 12.45 1.1634-17.088-15.476-7.3392 16.611-4.1741 2.1978-16.986 9.1029 14.509 16.834-3.1588-10.985 13.141z" fill-rule="evenodd" transform="matrix(.19116 .050673 -.050673 .19116 -1054.2 501.55)" fill="#f3fbd3"/>
  </g>
 </g>
</svg>
