<?xml version="1.0" encoding="UTF-8" standalone="no"?>
<!-- Created with Inkscape (http://www.inkscape.org/) -->

<svg
   xmlns:dc="http://purl.org/dc/elements/1.1/"
   xmlns:cc="http://creativecommons.org/ns#"
   xmlns:rdf="http://www.w3.org/1999/02/22-rdf-syntax-ns#"
   xmlns:svg="http://www.w3.org/2000/svg"
   xmlns="http://www.w3.org/2000/svg"
   xmlns:xlink="http://www.w3.org/1999/xlink"
   xmlns:sodipodi="http://sodipodi.sourceforge.net/DTD/sodipodi-0.dtd"
   xmlns:inkscape="http://www.inkscape.org/namespaces/inkscape"
   width="500"
   height="480"
   viewBox="0 0 500 480.00001"
   id="svg2"
   version="1.1"
   inkscape:version="0.91 r"
   sodipodi:docname="tecnología.svg">
  <defs
     id="defs4">
    <linearGradient
       inkscape:collect="always"
       id="linearGradient4264">
      <stop
         style="stop-color:#0c96e6;stop-opacity:1;"
         offset="0"
         id="stop4266" />
      <stop
         style="stop-color:#145288;stop-opacity:1"
         offset="1"
         id="stop4268" />
    </linearGradient>
    <linearGradient
       inkscape:collect="always"
       xlink:href="#linearGradient4264"
       id="linearGradient4270"
       x1="612.30328"
       y1="287.92001"
       x2="539.52264"
       y2="172.20572"
       gradientUnits="userSpaceOnUse"
       gradientTransform="matrix(2.3324751,0,0,2.3324751,-1067.7779,237.98807)" />
    <linearGradient
       inkscape:collect="always"
       xlink:href="#linearGradient4256"
       id="linearGradient8405"
       x1="119.4947"
       y1="840.10876"
       x2="405.29199"
       y2="840.10876"
       gradientUnits="userSpaceOnUse" />
    <linearGradient
       inkscape:collect="always"
       id="linearGradient4256">
      <stop
         style="stop-color:#009aae;stop-opacity:1;"
         offset="0"
         id="stop4258" />
      <stop
         style="stop-color:#145288;stop-opacity:1"
         offset="1"
         id="stop4260" />
    </linearGradient>
  </defs>
  <sodipodi:namedview
     id="base"
     pagecolor="#ffffff"
     bordercolor="#666666"
     borderopacity="1.0"
     inkscape:pageopacity="0.0"
     inkscape:pageshadow="2"
     inkscape:zoom="0.35"
     inkscape:cx="202.35241"
     inkscape:cy="355.23462"
     inkscape:document-units="px"
     inkscape:current-layer="layer1"
     showgrid="false"
     units="px"
     inkscape:window-width="1366"
     inkscape:window-height="716"
     inkscape:window-x="0"
     inkscape:window-y="0"
     inkscape:window-maximized="1" />
  <metadata
     id="metadata7">
    <rdf:RDF>
      <cc:Work
         rdf:about="">
        <dc:format>image/svg+xml</dc:format>
        <dc:type
           rdf:resource="http://purl.org/dc/dcmitype/StillImage" />
        <dc:title></dc:title>
      </cc:Work>
    </rdf:RDF>
  </metadata>
  <g
     inkscape:label="Capa 1"
     inkscape:groupmode="layer"
     id="layer1"
     style="display:inline;opacity:1"
     transform="translate(0,-572.36218)">
    <g
       id="g9160">
      <g
         id="g9113">
        <ellipse
           ry="204.92459"
           rx="202.00902"
           cy="829.5838"
           cx="257.19788"
           id="ellipse4247"
           style="opacity:1;fill:#66b5ba;fill-opacity:0.99085364;fill-rule:evenodd;stroke:none;stroke-width:20;stroke-miterlimit:4;stroke-dasharray:none;stroke-dashoffset:0;stroke-opacity:1" />
        <path
           sodipodi:nodetypes="cccccc"
           inkscape:connector-curvature="0"
           id="path4245"
           d="M 55.142193,796.62758 C -20.042083,852.7022 10.092934,959.08367 124.28341,975.72837 245.41372,993.9483 389.16232,983.58516 452.49597,888.26053 534.25794,743.45521 422.01943,609.99652 310.8814,631.68829 c -34.22962,7.693 -59.28326,11.74942 -84.13566,29.15595 z"
           style="color:#000000;clip-rule:nonzero;display:inline;overflow:visible;visibility:visible;opacity:1;isolation:auto;mix-blend-mode:normal;color-interpolation:sRGB;color-interpolation-filters:linearRGB;solid-color:#000000;solid-opacity:1;fill:url(#linearGradient4270);fill-opacity:1;fill-rule:evenodd;stroke:none;stroke-width:1.00000012px;stroke-linecap:butt;stroke-linejoin:miter;stroke-miterlimit:4;stroke-dasharray:none;stroke-dashoffset:0;stroke-opacity:1;color-rendering:auto;image-rendering:auto;shape-rendering:auto;text-rendering:auto;enable-background:accumulate" />
        <path
           style="color:#000000;clip-rule:nonzero;display:inline;overflow:visible;visibility:visible;opacity:1;isolation:auto;mix-blend-mode:normal;color-interpolation:sRGB;color-interpolation-filters:linearRGB;solid-color:#000000;solid-opacity:1;fill:#ffffff;fill-opacity:1;fill-rule:nonzero;stroke:url(#linearGradient8405);stroke-width:7.81299639;stroke-linecap:round;stroke-linejoin:round;stroke-miterlimit:4;stroke-dasharray:none;stroke-dashoffset:0;stroke-opacity:1;color-rendering:auto;image-rendering:auto;shape-rendering:auto;text-rendering:auto;enable-background:accumulate"
           d="m 262.36114,743.21085 c -24.68201,0 -49.36427,1.29419 -51.00117,3.88361 -1.27503,2.01701 -2.21035,37.7131 -2.23097,85.11283 -0.023,52.85828 -0.852,81.6397 -2.35153,81.6397 -1.48785,0 -2.31643,-22.77368 -2.31643,-63.68964 l 0,-63.68966 -29.64361,0 c -19.96902,0 -30.55183,0.90673 -32.42393,2.7788 -2.0207,2.02068 -2.78034,19.40263 -2.78034,63.68966 l 0,60.91084 -8.10598,0 -8.10598,0 0,11.57912 0,11.58062 138.95994,0 138.95994,0 0,-11.58062 c 0,-11.3226 -0.15419,-11.57912 -6.94777,-11.57912 l -6.94777,0 0,-60.91084 c 0,-44.28703 -0.75962,-61.66898 -2.78032,-63.68966 -1.88297,-1.88293 -12.71094,-2.7788 -33.58063,-2.7788 l -30.80335,0 0,63.68966 c 0,40.91596 -0.82858,63.68964 -2.31643,63.68964 -1.49953,0 -2.32856,-28.78142 -2.35153,-81.6397 -0.0206,-47.39973 -0.95594,-83.09582 -2.23097,-85.11283 -1.6369,-2.58942 -26.31916,-3.88361 -51.00117,-3.88361 z m 0,7.6253 c 18.90942,0 32.42394,13.96579 32.42394,33.50586 0,12.20859 -6.87841,23.62544 -17.17791,28.51286 -22.75214,10.79654 -47.66996,-4.10772 -47.66996,-28.51286 0,-19.54007 13.51452,-33.50586 32.42393,-33.50586 z m 0,10.15538 c -8.74931,0 -9.2642,0.38579 -9.2642,6.94776 0,6.17594 -0.77177,6.94777 -6.94776,6.94777 -6.56198,0 -6.94777,0.5149 -6.94777,9.26419 0,8.74932 0.38579,9.26421 6.94777,9.26421 6.17599,0 6.94776,0.77174 6.94776,6.94776 0,6.56199 0.51489,6.94777 9.2642,6.94777 8.74933,0 9.2642,-0.38579 9.2642,-6.94777 0,-6.17601 0.77178,-6.94776 6.94777,-6.94776 6.56198,0 6.94776,-0.5149 6.94776,-9.26421 0,-8.74929 -0.38578,-9.26419 -6.94776,-9.26419 -6.17599,0 -6.94777,-0.77183 -6.94777,-6.94777 0,-6.56198 -0.51487,-6.94776 -9.2642,-6.94776 z m -100.74493,50.9508 c 4.632,0 5.78956,1.15915 5.78956,5.79108 0,4.63201 -1.15756,5.78955 -5.78956,5.78955 -4.63199,0 -5.79108,-1.15754 -5.79108,-5.78955 0,-4.63193 1.15909,-5.79108 5.79108,-5.79108 z m 23.15974,0 c 4.63199,0 5.78955,1.15915 5.78955,5.79108 0,4.63201 -1.15756,5.78955 -5.78955,5.78955 -4.63199,0 -5.79108,-1.15754 -5.79108,-5.78955 0,-4.63193 1.15909,-5.79108 5.79108,-5.79108 z m 159.80325,0 c 4.63199,0 5.78954,1.15915 5.78954,5.79108 0,4.63201 -1.15755,5.78955 -5.78954,5.78955 -4.63199,0 -5.78956,-1.15754 -5.78956,-5.78955 0,-4.63193 1.15757,-5.79108 5.78956,-5.79108 z m 20.8433,0 c 4.63199,0 5.79108,1.15915 5.79108,5.79108 0,4.63201 -1.15909,5.78955 -5.79108,5.78955 -4.63199,0 -5.78955,-1.15754 -5.78955,-5.78955 0,-4.63193 1.15756,-5.79108 5.78955,-5.79108 z M 161.61621,837.4185 c 4.632,0 5.78956,1.15906 5.78956,5.79108 0,4.63193 -1.15756,5.78954 -5.78956,5.78954 -4.63199,0 -5.79108,-1.15761 -5.79108,-5.78954 0,-4.63202 1.15909,-5.79108 5.79108,-5.79108 z m 23.15974,0 c 4.63199,0 5.78955,1.15906 5.78955,5.79108 0,4.63193 -1.15756,5.78954 -5.78955,5.78954 -4.63199,0 -5.79108,-1.15761 -5.79108,-5.78954 0,-4.63202 1.15909,-5.79108 5.79108,-5.79108 z m 159.80325,0 c 4.63199,0 5.78954,1.15906 5.78954,5.79108 0,4.63193 -1.15755,5.78954 -5.78954,5.78954 -4.63199,0 -5.78956,-1.15761 -5.78956,-5.78954 0,-4.63202 1.15757,-5.79108 5.78956,-5.79108 z m 20.8433,0 c 4.63199,0 5.79108,1.15906 5.79108,5.79108 0,4.63193 -1.15909,5.78954 -5.79108,5.78954 -4.63199,0 -5.78955,-1.15761 -5.78955,-5.78954 0,-4.63202 1.15756,-5.79108 5.78955,-5.79108 z m -203.80629,23.15974 c 4.88933,0 5.78956,1.08212 5.78956,6.94929 0,5.86717 -0.90023,6.94777 -5.78956,6.94777 -4.88932,0 -5.79108,-1.0806 -5.79108,-6.94777 0,-5.86717 0.90176,-6.94929 5.79108,-6.94929 z m 23.15974,0 c 4.88933,0 5.78955,1.08212 5.78955,6.94929 0,5.86717 -0.90022,6.94777 -5.78955,6.94777 -4.88932,0 -5.79108,-1.0806 -5.79108,-6.94777 0,-5.86717 0.90176,-6.94929 5.79108,-6.94929 z m 159.80325,0 c 4.88932,0 5.78954,1.08212 5.78954,6.94929 0,5.86717 -0.90022,6.94777 -5.78954,6.94777 -4.88933,0 -5.78956,-1.0806 -5.78956,-6.94777 0,-5.86717 0.90023,-6.94929 5.78956,-6.94929 z m 20.8433,0 c 4.88932,0 5.79108,1.08212 5.79108,6.94929 0,5.86717 -0.90176,6.94777 -5.79108,6.94777 -4.88932,0 -5.78955,-1.0806 -5.78955,-6.94777 0,-5.86717 0.90023,-6.94929 5.78955,-6.94929 z m -121.58976,2.31642 19.68662,0 19.68661,0 0,24.31796 0,24.31795 -19.68661,0 -19.68662,0 0,-24.31795 0,-24.31796 z"
           id="rect8347"
           inkscape:connector-curvature="0" />
      </g>
    </g>
  </g>
</svg>
